<?xml version="1.0" standalone="no"?>
<!DOCTYPE svg PUBLIC "-//W3C//DTD SVG 1.1//EN" "http://www.w3.org/Graphics/SVG/1.1/DTD/svg11.dtd" >
<svg xmlns="http://www.w3.org/2000/svg">
<metadata>
This is a custom SVG webfont generated by Font Squirrel.
Copyright   : This font has been released into the public domain by its author, Barry Schwartz. This applies worldwide.__In some countries this may not be legally possible; if so:__Barry Schwartz grants anyone the right to use this work for any purpose, without any conditions, unless such conditions are required by law.
</metadata>
<defs>
<font id="webfont" horiz-adv-x="227" >
<font-face units-per-em="1000" ascent="737" descent="-263" />
<missing-glyph horiz-adv-x="250" />
<glyph unicode=" "  horiz-adv-x="250" />
<glyph unicode="&#x09;" horiz-adv-x="250" />
<glyph unicode="&#xa0;" horiz-adv-x="250" />
<glyph unicode="!" horiz-adv-x="325" d="M194 674q10 0 10 -26v-23q0 -96 -10.5 -195.5t-20 -151t-14.5 -67.5t-17 -16q-15 0 -15 30v17l-2 71t-2.5 65l-3 58t-3 51t-2.5 43t-2 34.5t-2 25.5q-2 10 -2 16v5q0 15 13 23q68 40 73 40zM166 85q21 0 36 -15t15 -36q0 -20 -14.5 -35t-36.5 -15q-21 0 -36.5 14.5 t-15.5 36.5t15.5 36t36.5 14z" />
<glyph unicode="&#x22;" horiz-adv-x="389" d="M150 715q17 0 27 -11t10 -27q0 -13 -14 -39q-93 -166 -97 -171q-8 -10 -18 -10q-9 0 -14.5 6.5t-5.5 15.5v1q0 5 59 179q21 56 53 56zM316 715q16 0 26 -11t10 -27q0 -15 -13 -39l-38 -66.5l-41.5 -73.5t-18.5 -31q-8 -10 -18 -10q-9 0 -14.5 6.5t-5.5 15.5v1q0 5 60 179 q19 56 53 56z" />
<glyph unicode="#" horiz-adv-x="552" d="M346 348q0 5 -7 5h-105q-7 0 -9 -7q-2 -19 -7 -54l-8.5 -59t-3.5 -26q0 -5 8 -5h102q10 0 11 8q19 137 19 138zM404 615h7q16 0 16 -11q0 -5 -13.5 -100.5t-13.5 -100.5t5 -5h74q19 0 19 -26q0 -19 -16 -19h-86q-3 0 -5 -6q-2 -19 -7 -54l-8.5 -59t-3.5 -26q0 -6 7 -6 h101q18 0 18 -22q0 -23 -18 -23h-104q-11 0 -13 -11q-25 -177 -26 -179q-5 -10 -22 -10q-20 0 -20 14q0 4 12 91t12 89q0 6 -8 6h-69q-30 0 -36.5 -1.5t-7.5 -6.5q-25 -181 -26 -183q-5 -9 -25 -9q-19 0 -19 14q0 3 12.5 90t12.5 89q0 7 -9 7h-74q-16 0 -16 19 q0 10 0.5 14.5t4 8t11.5 3.5h87q3 0 3 2q20 137 20 144q0 5 -7 5h-101q-18 0 -18 22q0 23 18 23h108q9 0 9 8q28 200 29 201q5 8 23 8h1q20 0 20 -13q0 -4 -14 -100t-14 -99q0 -5 8 -5h104q8 0 9 7q28 201 30 203q5 7 16 7h3z" />
<glyph unicode="$" horiz-adv-x="482" d="M376 531q0 -19 -11.5 -31.5t-29.5 -12.5q-21 0 -33.5 16t-17 35.5t-16.5 38t-33 22.5h-2q-5 0 -5 -5v-174q0 -3 -0.5 -9t-0.5 -7q0 -6 1.5 -9.5t5.5 -6t8 -4l14 -5t19 -7.5q93 -40 118 -122q9 -30 9 -61q0 -79 -48.5 -126.5t-118.5 -59.5q-8 -2 -8 -12v-69q0 -19 -20 -19 t-20 19v69q0 10 -9 10q-69 2 -115.5 45t-46.5 87q0 23 14 39t35 16q18 0 30 -12.5t12 -33.5q0 -6 -1.5 -17t-1.5 -18q0 -34 26 -49.5t51 -15.5q5 0 5 4v260q0 12 -9 13q-65 14 -100.5 62.5t-35.5 102.5q0 61 39 104t97 48q9 2 9 8v21q0 20 20 20h1q21 0 21 -20v-19v-2 q0 -6 6 -6q62 -7 102 -40t40 -67zM183 599q-21 0 -52.5 -25.5t-31.5 -69.5q0 -32 20.5 -55.5t38 -31.5t23.5 -8q5 0 5 5v75v83q0 27 -3 27zM234 295q-7 0 -7 -9q0 -72 -0.5 -139.5t-0.5 -71.5q0 -31 4 -31h2q7 0 22 7.5t33 22t31.5 40.5t13.5 57q0 40 -23 70.5t-44.5 42 t-30.5 11.5z" />
<glyph unicode="%" horiz-adv-x="820" d="M213 -123q-9 0 -17 5.5t-8 13.5q0 4 4 12q395 674 398 677q8 10 23 10q9 0 19.5 -4.5t10.5 -13.5q0 -5 -4 -11q-400 -674 -404 -678q-9 -11 -22 -11zM179 515q-23 0 -39 -14t-24 -36.5t-11.5 -43.5t-3.5 -42q0 -39 12 -86t36 -68q21 -17 44 -17q61 0 73 85q5 30 5 55 q0 65 -24.5 116t-67.5 51zM193 553q52 0 95 -42.5t43 -135.5q0 -91 -42 -148t-110 -57q-52 0 -95 42t-43 134q0 99 44 153t108 54zM627 252q-42 0 -60.5 -43t-18.5 -91l1 -2q0 -39 12 -85.5t36 -67.5q19 -17 44 -17q60 0 73 84q5 30 5 56q0 64 -24.5 115t-67.5 51zM641 290 q52 0 95 -42.5t43 -135.5q0 -90 -42 -147.5t-110 -57.5q-52 0 -95 42t-43 134q0 99 44 153t108 54z" />
<glyph unicode="&#x26;" horiz-adv-x="828" d="M100 422q0 3 -10.5 16.5t-21 37.5t-10.5 53q0 68 52.5 120t122.5 52q37 0 72 -14.5t35 -46.5q0 -19 -14 -32t-31 -13q-20 0 -42.5 25t-44.5 25q-36 0 -71 -33t-35 -83q0 -29 14 -56t25 -27q2 0 17.5 7t41 13.5t51.5 6.5q37 0 62 -15.5t25 -40.5t-26.5 -41t-65.5 -16h-1 q-24 0 -46.5 6t-35 12t-14.5 6q-3 0 -5.5 -2t-3.5 -4q0 -2 -2 -4l-2 -2q-27 -48 -27 -104q0 -27 7.5 -54t25.5 -55.5t45.5 -50t72 -36.5t99.5 -18h18q57 0 100 17t65.5 44t33 55.5t10.5 56.5q0 51 -29 85.5t-75 34.5q-44 0 -76 -29.5t-32 -66.5q0 -25 16.5 -43.5t41.5 -18.5 q11 0 23.5 5t12.5 12q0 4 -4 6t-9 3t-12 4.5t-12 10.5q-7 10 -7 22q0 15 11 25.5t28 10.5q23 0 40.5 -16.5t17.5 -41.5q0 -30 -25 -53t-61 -23q-40 0 -68.5 29.5t-28.5 71.5q0 40 26 75t71 58q46 23 131.5 36.5t115.5 26.5q36 16 61 46.5t25 72.5q0 46 -29 76.5t-66 30.5 q-30 0 -30 -9l8 -10q8 -10 8 -25q0 -17 -11.5 -29t-29.5 -12q-19 0 -32 14.5t-13 34.5q0 32 26.5 53t61.5 21q56 0 102 -48t46 -119q0 -80 -62 -137t-147 -59q-15 0 -15 -8q0 -1 8.5 -15t17 -40.5t8.5 -56.5v-2q0 -101 -88 -177t-210 -76q-123 0 -207 79.5t-84 188.5 q0 29 6.5 56.5t16.5 47t19 33.5l18 22l8 10q2 4 2 7v1zM261 392q42 0 42 23q0 25 -43 25q-24 0 -44 -4t-30 -9t-10 -10q0 -3 3 -6q25 -19 82 -19z" />
<glyph unicode="'" horiz-adv-x="224" d="M150 715q17 0 27 -11t10 -27q0 -13 -14 -39q-93 -166 -97 -171q-8 -10 -18 -10q-9 0 -14.5 7t-5.5 16v1q0 4 59 178q21 56 53 56z" />
<glyph unicode="(" horiz-adv-x="363" d="M316 -174q0 -9 -6 -14.5t-15 -5.5q-12 0 -24 10q-103 81 -164.5 198.5t-61.5 247.5q0 122 58.5 239.5t163.5 202.5q19 14 30 14q21 0 21 -19q0 -13 -14 -24q-82 -74 -132.5 -179.5t-50.5 -232.5q0 -120 47 -226.5t132 -183.5q16 -16 16 -27z" />
<glyph unicode=")" horiz-adv-x="363" d="M48 701q0 9 6 15t15 6t24 -11q103 -81 164 -198.5t61 -247.5q0 -122 -58.5 -239.5t-163.5 -202.5q-19 -14 -30 -14q-9 0 -15 5.5t-6 14.5t15 24q82 74 132 179t50 232q0 121 -46.5 227t-131.5 184q-16 13 -16 26z" />
<glyph unicode="*" horiz-adv-x="335" d="M321 617q0 -14 -14.5 -25.5t-32 -17t-32 -11.5t-14.5 -11q0 -6 23 -11t45.5 -17t22.5 -37q0 -17 -11.5 -28t-26.5 -11q-21 0 -47 26.5t-29 26.5q-7 0 -7 -9q0 -14 4.5 -38.5t4.5 -30.5q0 -20 -15 -29.5t-27 -9.5t-24 10t-12 32q0 11 3.5 32.5t3.5 27.5q0 11 -6 11 q-5 0 -34 -22t-50 -22q-16 0 -24 13t-8 22q0 19 23 33.5t45.5 23t22.5 15.5q0 6 -13.5 11t-30.5 8.5t-30.5 15t-13.5 29.5q0 15 12 25t26 10q18 0 42.5 -26.5t35.5 -26.5q5 0 5 7q0 5 -4.5 27t-4.5 36q0 45 40 45q39 0 39 -46q0 -17 -6 -41t-6 -25q0 -2 2 -2q4 0 34 24.5 t50 24.5q15 0 27 -11.5t12 -27.5z" />
<glyph unicode="+" horiz-adv-x="701" d="M76 231q-23 0 -23 22v13q0 22 24 22h245v249q0 20 20 20h14q24 0 24 -26v-243h249q20 0 20 -19v-14q0 -24 -27 -24h-242v-247q0 -22 -22 -22h-14q-22 0 -22 23v246h-246z" />
<glyph unicode="," d="M100 100q36 0 62 -33.5t26 -81.5q0 -58 -38 -95t-63 -37q-19 0 -19 17q0 8 5 12.5t17 11.5t21 15q26 24 26 47q0 17 -11 26t-24.5 10.5t-30 8t-24.5 18.5q-8 11 -8 26q0 23 18.5 39t42.5 16z" />
<glyph unicode="-" d="M199 335q16 0 16 -39q0 -14 -18 -28l-44 -31l-34.5 -25l-26.5 -19l-20.5 -14.5l-14.5 -10.5l-10.5 -7.5t-7 -4t-5.5 -2t-4 -0.5q-18 0 -18 26v14q0 10 3.5 14.5t15.5 13.5l97 68q64 45 71 45z" />
<glyph unicode="." d="M113 101q24 0 42 -17.5t18 -41.5t-17 -41.5t-42 -17.5q-24 0 -42 17t-18 43q0 25 17.5 41.5t41.5 16.5z" />
<glyph unicode="/" horiz-adv-x="435" d="M36 -187q-30 0 -30 14q0 4 377 744q5 9 15 9q31 0 31 -18q0 -4 -171 -328l-196 -393q-12 -23 -13 -24q-5 -4 -13 -4z" />
<glyph unicode="0" horiz-adv-x="475" d="M235 440q91 0 156 -67t65 -162q0 -94 -65 -161.5t-157 -67.5q-91 0 -156.5 66.5t-65.5 162.5q0 95 65.5 162t157.5 67zM234 385q-64 0 -110 -50t-46 -120q0 -71 46.5 -122t112.5 -51q63 0 110 47.5t47 121.5t-48 124t-112 50z" />
<glyph unicode="1" horiz-adv-x="356" d="M164 421q32 0 59.5 0.5t43.5 1.5t19 1q14 0 14 -22q0 -14 -15 -17q-1 0 -60 -4q-14 -1 -14 -16v-304q0 -20 18 -21q10 -1 21.5 -1.5t18.5 -1t15 -1t12 -1.5t8.5 -2t6.5 -2.5t4 -4t2.5 -6t0.5 -8.5q0 -18 -17 -18q-1 0 -8 0.5t-18.5 1.5t-26 2t-34 1.5t-37.5 0.5t-37 -0.5 t-33 -1.5t-25.5 -2t-18.5 -1.5t-8 -0.5q-14 0 -14 21q0 17 18 19q66 6 69 7q7 3 7 17v307q0 14 -15 16q-78 4 -79 4q-15 4 -15 23q0 16 15 16q3 0 19 -1t43.5 -1.5t60.5 -0.5z" />
<glyph unicode="2" horiz-adv-x="450" d="M76 -13q-27 0 -27 19q0 8 5.5 12.5t27.5 18.5t46 32q72 56 124 123q24 32 24 58q0 46 -42.5 79t-89.5 33q-37 0 -59 -21.5t-24 -49.5q0 -26 -15 -26h-1q-20 0 -20 36q0 54 39 88.5t99 34.5q70 0 122.5 -41.5t52.5 -104.5q0 -29 -14.5 -57.5t-28.5 -45t-50.5 -52 t-50.5 -50.5q-4 -6 -4 -7q0 -8 11 -8q23 0 73 4q38 3 65.5 19t49.5 64q4 10 12 10q18 0 18 -12q0 -3 -37 -128q-1 -4 -3 -6.5t-3 -4t-4.5 -2.5t-5 -1t-6.5 -0.5t-7 -0.5q-39 -2 -108 -5t-117 -5.5t-52 -2.5z" />
<glyph unicode="3" horiz-adv-x="360" d="M119 443q17 0 41 -7t50 -20t44 -37t18 -53q0 -27 -14.5 -62t-29 -59t-14.5 -25q0 -5 7.5 -7.5t25.5 -8t35 -15.5q57 -33 57 -114q0 -97 -43 -152q-25 -32 -67 -48.5t-86 -16.5q-54 0 -84.5 25t-30.5 48q0 17 13.5 28.5t30.5 11.5t29.5 -11t20 -24t26.5 -24t46 -11 q47 0 69 38t22 91t-27 83.5t-95 30.5q-14 0 -26 -1t-14 -1q-17 0 -17 13q0 3 0.5 5t3.5 4t6 5t10 9l15 13q64 62 64 122q0 35 -21.5 66t-70.5 31q-32 0 -42 -10.5t-10 -27.5q1 -5 1 -13v-8q0 -13 -18 -13t-18 41q0 43 25 73.5t68 30.5z" />
<glyph unicode="4" horiz-adv-x="447" d="M40 0q-17 0 -17 14q0 8 17 32q252 362 261 374q7 9 16 9q14 0 14 -18l-1 -326q0 -11 10 -11h16q18 0 29.5 1t12.5 1q20 0 20 -13q0 -4 -4 -30t-7 -29q-4 -4 -12 -4h-56q-9 0 -9 -7v-167q0 -12 -10 -12h-40q-10 0 -10 12v164q0 10 -8 10h-222zM260 66q10 0 10 13v213 q0 8 -5 8q-2 0 -6 -4q-150 -222 -150 -225q0 -5 6 -5h145z" />
<glyph unicode="5" horiz-adv-x="381" d="M117 257q72 0 125.5 -54t53.5 -142q0 -79 -47 -149q-27 -39 -70.5 -72.5t-64.5 -33.5q-17 0 -17 15q0 7 9.5 14.5t23 14.5t33.5 25.5t36 43.5q36 57 36 119q0 69 -40 111t-93 42q-17 0 -34 -5l-17 -5q-13 0 -13 15q0 3 16 59.5l32 111.5l15 55q5 13 17 13q6 0 82.5 -24 t84.5 -24t16.5 9t16 20.5t9.5 13.5q4 3 8 3q5 0 10.5 -4t5.5 -10q0 -3 -46 -109q-4 -11 -13 -11q-7 0 -84 24t-79 24h-1q-6 0 -9.5 -7.5t-11.5 -37.5q-5 -21 -9 -34v-2q0 -2 -1 -3q0 -6 7 -6h13z" />
<glyph unicode="6" horiz-adv-x="483" d="M368 142q0 48 -17 97t-57 87.5t-94 38.5q-38 0 -62.5 -24t-32.5 -55t-8 -69q0 -88 46 -146.5t110 -58.5q49 0 82 35.5t33 94.5zM204 401q99 0 170 -66.5t71 -165.5q0 -82 -53.5 -139.5t-136.5 -57.5q-88 0 -155 69t-67 186q0 143 100.5 258.5t250.5 143.5q2 1 7 1 q9 0 14.5 -7.5t5.5 -15.5q0 -11 -16 -18q-158 -51 -246 -187l-1 -1v-2q0 -3 4 -3h3q3 0 8 1t11 2t14 1.5t16 0.5z" />
<glyph unicode="7" horiz-adv-x="450" d="M52 217q-17 0 -17 16q0 1 4.5 31t9 82t5.5 105q0 19 18 19q3 0 5.5 -0.5t4.5 -2.5t3 -4t2 -6.5t1.5 -8.5t2 -11t2.5 -13q2 -12 14 -12h302q22 0 22 -18v-1q0 -5 -58 -178q-68 -206 -115 -370q-13 -46 -16.5 -54t-13.5 -9q-6 -1 -19 -1h-1h-6q-28 0 -28 14q0 5 111 330 q65 179 65 183q0 19 -30 24q-55 5 -99 5q-83 0 -109 -7q-12 -2 -16.5 -11t-16.5 -50q-7 -22 -11 -37q-5 -15 -16 -15z" />
<glyph unicode="8" horiz-adv-x="447" d="M102 514q0 -45 27 -81.5t54.5 -51.5t42.5 -15q7 0 14 7q60 55 60 130q0 48 -29 83t-73 35h-1q-40 -1 -67.5 -32t-27.5 -75zM220 25q50 0 86 32t36 79q0 48 -40 91t-104 75q-10 6 -15 6q-9 0 -30 -20t-42 -58.5t-21 -78.5q0 -55 38.5 -90.5t91.5 -35.5zM209 -22 q-80 0 -136.5 52t-56.5 123q0 69 69 124l40 31q20 15 20 18t-5 6q-47 32 -77 76.5t-30 93.5q0 63 50.5 114.5t125.5 51.5q69 0 117 -37t48 -105q0 -50 -29.5 -96.5t-76.5 -72.5q-3 -1 -3 -5q0 -1 3 -4q71 -32 114 -82t43 -105q0 -73 -65.5 -128t-150.5 -55z" />
<glyph unicode="9" horiz-adv-x="509" d="M105 250q0 -81 48.5 -148.5t130.5 -67.5q45 0 67 18.5t33 52.5q11 36 11 71q0 85 -52.5 146t-121.5 61q-45 0 -80.5 -33.5t-35.5 -99.5zM275 -5q-100 0 -171.5 69.5t-71.5 162.5q0 85 61 143t145 58q96 0 165 -73.5t69 -179.5q0 -117 -88 -226t-229 -153q-26 -7 -31 -7 q-10 0 -14.5 8.5t-4.5 15.5q0 12 17 17q44 14 84.5 36.5t67 45t47 44t29.5 34.5t9 15q0 3 -3 3l-4 -2q-4 -2 -12.5 -3t-18 -3t-22 -3.5t-24.5 -1.5z" />
<glyph unicode=":" horiz-adv-x="228" d="M124 411q24 0 42 -17.5t18 -41.5t-17.5 -41.5t-42.5 -17.5q-24 0 -41.5 17t-17.5 43q0 25 17.5 41.5t41.5 16.5zM124 101q24 0 42 -17.5t18 -41.5t-17.5 -41.5t-42.5 -17.5q-24 0 -41.5 17t-17.5 43q0 25 17.5 41.5t41.5 16.5z" />
<glyph unicode=";" d="M124 100q36 0 62 -33.5t26 -81.5q0 -58 -38.5 -95t-63.5 -37q-18 0 -18 17q0 8 5 12.5t17 11.5t21 15q26 25 26 47v1q0 17 -11 25.5t-25 10.5t-30 8t-24 18q-8 9 -8 26q0 23 18.5 39t42.5 16zM124 411q24 0 42 -17.5t18 -41.5t-17.5 -41.5t-42.5 -17.5q-24 0 -41.5 17 t-17.5 43q0 25 17.5 41.5t41.5 16.5z" />
<glyph unicode="&#x3c;" horiz-adv-x="672" d="M52 249q0 11 18 18q524 191 528 191q23 0 23 -38q0 -14 -19 -20l-441 -161l447 -162q13 -5 13 -17t-7 -24.5t-22 -12.5q-5 0 -523 189q-17 6 -17 18v19z" />
<glyph unicode="=" horiz-adv-x="701" d="M76 305q-23 0 -23 22v14q0 22 23 22h552q20 0 20 -20v-13q0 -25 -26 -25h-546zM76 156q-22 0 -22 22v14q0 22 23 22h552q20 0 20 -20v-14q0 -24 -26 -24h-547z" />
<glyph unicode="&#x3e;" horiz-adv-x="672" d="M621 249v-19q0 -12 -17 -18q-519 -189 -523 -189q-15 0 -22 12.5t-7 24.5t13 17l447 162l-441 161q-19 6 -19 20q0 38 23 38q4 0 528 -191q18 -7 18 -18z" />
<glyph unicode="?" horiz-adv-x="380" d="M159 101q24 0 42 -17.5t18 -41.5t-17.5 -41.5t-42.5 -17.5q-24 0 -42 17t-18 43q0 25 18 41.5t42 16.5zM160 689q87 0 132 -46.5t45 -100.5q0 -34 -17 -64t-41.5 -53l-49 -47t-41.5 -56.5t-17 -71.5q0 -5 0.5 -12t0.5 -10q0 -18 -8.5 -27t-17.5 -9q-27 0 -27 55 q0 44 21 86t45.5 70t45.5 67t21 77q0 43 -25 73.5t-62 30.5q-21 0 -36.5 -11.5t-22.5 -25.5t-19.5 -25.5t-29.5 -11.5q-18 0 -30 13t-12 31q0 45 64 59q39 9 81 9z" />
<glyph unicode="@" horiz-adv-x="1000" d="M725 -71q12 0 12 -12q0 -16 -40.5 -38.5t-79.5 -34.5q-63 -20 -135 -20h-1q-169 1 -281 98.5t-112 263.5v1q0 43 9.5 86t32.5 96t73.5 102.5t121.5 85.5q108 54 217 54q144 0 234 -91t90 -224q0 -124 -72 -214t-162 -90q-27 0 -46.5 7.5t-29 18.5t-14.5 22t-7.5 18.5 t-3.5 7.5t-5 -4q-61 -76 -131 -76q-39 0 -66 27t-27 70q0 65 69 157.5t133 131.5q39 24 75 24q11 0 19.5 -1.5t9.5 -1.5q8 0 16 15.5t9 16.5q5 4 13 4q23 0 23 -17q0 -4 -10.5 -37t-27.5 -102t-31 -148q-5 -23 -5 -39q0 -26 14.5 -37t33.5 -11q32 0 69.5 20.5t60.5 53.5 q51 71 51 188v1q0 128 -80.5 199.5t-200.5 71.5q-151 0 -262 -104.5t-111 -269.5q0 -147 91.5 -241.5t238.5 -94.5q67 0 123 18t83 40q15 9 19 9zM587 353q0 10 -11 10q-33 0 -93 -58t-93 -143q-14 -33 -14 -60t13 -38.5t29 -11.5q18 0 47.5 14.5t50.5 38.5q20 22 22 34 q49 212 49 214z" />
<glyph unicode="A" horiz-adv-x="821" d="M137 0q-17 0 -33.5 -0.5t-29 -1.5t-23 -2l-16 -1.5t-6.5 -0.5q-20 0 -20 21q0 4 0.5 7.5t1 6t2.5 4.5l3 3t4 2.5t5 2l6 1.5t6.5 1t8 1t8.5 1q24 3 35 12.5t22 35.5q74 165 153 320l74 141l64 120t16 23l1 1q11 8 24 8q27 0 42 -38l144 -332q109 -265 111 -268 q13 -20 42.5 -24t32.5 -15q2 -8 2 -13q0 -22 -20 -22l-17 2q-16 2 -43.5 3t-54.5 1q-32 0 -58.5 -1.5t-42 -3t-18.5 -1.5q-20 0 -20 17q0 5 0.5 9t2 7t2 5t4 4t6 2.5t8 1.5t9.5 1.5l12.5 1.5t14.5 2q20 4 20 19t-24 89.5t-51 136.5q-4 10 -18 10h-235q-16 0 -23 -12 q-34 -63 -60.5 -131t-26.5 -85q0 -4 0.5 -7.5t1.5 -6t3.5 -4.5l4.5 -3.5t6 -3t6.5 -2t8.5 -1.5t9.5 -1.5t11 -1t11.5 -1.5q22 -2 22 -24t-22 -22q-3 0 -17 1.5t-39 3t-54 1.5zM509 352q9 0 9 7q0 8 -38.5 98t-49.5 108q-4 7 -11 7q-9 0 -19 -17q-102 -191 -102 -199 q0 -4 6 -4h205z" />
<glyph unicode="B" horiz-adv-x="564" d="M90 686q31 0 87.5 4.5t86.5 4.5q108 0 166 -40q61 -44 61 -115q0 -46 -26.5 -87t-68.5 -67q-2 -2 -2 -3q0 -2 3 -3q59 -12 99 -60.5t40 -113.5q0 -66 -38 -116.5t-89 -72.5q-51 -23 -120 -23q-23 0 -68.5 3t-68.5 3q-16 0 -53 -1t-61 -1h-2q-6 0 -9.5 1t-6.5 6.5t-3 16.5 q0 13 8.5 16t47.5 7q6 1 8 1.5t6 2.5t5.5 6t1.5 10v547q0 13 -7 20t-15.5 8.5t-29.5 3.5q-18 0 -18 25q0 18 18 18q1 0 7 -0.5t17 -0.5h24zM402 519q0 20 -7 41t-22.5 42.5t-46 35t-71.5 13.5q-56 0 -70 -11q-5 -4 -5 -13v-2v-214q0 -13 10 -13h45h13q106 0 140 64 q14 28 14 57zM257 41q79 0 134.5 42.5t55.5 117.5q0 50 -29 92.5t-89 55.5q-27 6 -84 6h-51q-14 0 -14 -15v-258q0 -11 1 -16.5t8 -12t21 -8.5q30 -4 47 -4z" />
<glyph unicode="C" horiz-adv-x="700" d="M115 354q0 -138 82 -232.5t199 -94.5q88 0 161 54t100 143q4 13 15 13q16 0 16 -11q-22 -156 -25 -163q-4 -16 -22 -16h-1h-28q-9 0 -15 -1.5t-9.5 -3.5t-10 -7.5t-12.5 -8.5q-86 -50 -185 -50q-70 0 -136.5 27t-116.5 76q-51 49 -79.5 117t-28.5 139q0 74 30.5 142 t80.5 117q107 102 255 102h1q53 0 98.5 -13t70.5 -26.5t27 -13.5q8 0 13.5 16.5t15.5 19.5q2 0 6 0.5t5 0.5q11 0 13 -12l7 -51q6 -51 13 -104t7 -57q0 -17 -20 -17q-17 0 -21 6t-7 30q-1 7 -1 11q-6 40 -26 66q-34 43 -86.5 70.5t-117.5 27.5q-108 0 -188 -81.5t-80 -214.5 z" />
<glyph unicode="D" horiz-adv-x="709" d="M300 48q119 0 207 71.5t88 196.5q0 74 -31 143t-89 112q-85 62 -208 62q-43 0 -55 -6t-12 -25v-509q0 -18 8 -26.5t28 -12.5q32 -6 64 -6zM11 654q0 21 22 21h182q93 0 161.5 -8t128.5 -36q81 -38 135.5 -113t54.5 -175q0 -127 -88 -221.5t-202 -115.5q-35 -6 -89 -6 h-283q-23 0 -23 28q0 4 0.5 7t2.5 5.5t4 4t6.5 2.5t8 2t10 1t11.5 0.5t14.5 1t16.5 0.5q16 1 21.5 9.5t5.5 26.5v506q0 24 -13.5 30t-51.5 7h-17q-18 0 -18 23z" />
<glyph unicode="E" horiz-adv-x="578" d="M436 513q28 0 28 -29v-184q0 -29 -28 -29q-27 0 -27 22v54q0 22 -26 22h-138q-15 0 -23.5 -2t-17 -11t-8.5 -27v-229q0 -34 32 -38q43 -7 93 -7q34 0 82.5 5.5t61.5 15.5q9 7 35 54.5t34 52.5q6 3 10 3q6 0 12 -6t6 -17v-1q0 -4 -31 -142q-2 -11 -8.5 -15.5t-21.5 -4.5 h-344q-45 0 -83.5 -6t-40.5 -6q-12 0 -18 11t-6 19q0 11 7 15.5t40 16.5l29 11q14 5 18 13t4 26v521q0 11 -4.5 14t-22.5 6q-9 1 -21.5 2t-19 2t-13 3.5t-9.5 7.5t-3 13q0 22 19 22h460q17 0 22 -16q4 -19 11.5 -52l12.5 -56t5 -25q0 -15 -21 -15q-15 0 -28 18 q-44 78 -50 84q-8 9 -28 9h-188q-14 0 -21 -6t-8.5 -13t-1.5 -19v-151q0 -22 20 -22h153q11 0 18 1.5t13.5 9t6.5 22.5v31q0 22 27 22z" />
<glyph unicode="F" horiz-adv-x="541" d="M450 483q0 -3 -1 -15t-2 -32.5t-1 -45.5t1 -46.5t2 -33.5t1 -14q0 -26 -27 -26q-4 0 -7 0.5t-5.5 2.5t-4 4t-3 6t-2 7.5l-1.5 10t-1.5 12t-1.5 15.5t-2 18q-1 14 -18 14h-163q-22 0 -22 -28v-248q0 -9 1 -13.5t4 -10.5t12 -9t24 -4q9 0 20 -0.5t17.5 -0.5h14t12 -0.5 t9 -1.5t7 -2.5t4.5 -4t3 -5.5t1 -8v-9q0 -21 -17 -21l-20 2q-20 2 -51.5 3t-63.5 1q-20 0 -41 -0.5t-37 -1.5t-28.5 -2t-20 -1.5t-8.5 -0.5q-23 0 -23 23q0 6 0.5 10.5t3 7t5 4t8 2.5t10 1.5t14 1t16.5 1.5q30 3 30 31v530q0 20 -10 25t-41 6h-14q-23 0 -23 21q0 30 18 30 q3 0 13.5 -1t29.5 -2t41 -1q17 0 75 1.5t87 1.5h190h5q27 0 33 -25q23 -104 23 -107q0 -10 -6 -16.5t-14 -6.5q-12 0 -21 11t-28 46q-9 16 -14 26q-8 13 -14.5 17t-20.5 4h-184q-18 0 -23.5 -9t-5.5 -27v-167q0 -15 15 -15h167q4 0 6.5 0.5t4.5 1.5t3.5 2t2.5 4t2 5.5t2 8 t1.5 10t2 12.5t2.5 15q4 27 24 27q23 0 23 -21z" />
<glyph unicode="G" horiz-adv-x="691" d="M366 -24q-142 0 -246 111t-104 267q0 150 98 251t238 101q41 0 80 -10t62 -21.5t41 -22t20 -11.5h4q11 0 26 19t18 20q4 3 12 3q14 0 14 -14v-27q0 -29 1 -58t2.5 -50.5t3.5 -38.5t3 -27t1 -11q0 -16 -29 -16q-11 0 -15 6.5t-5 17.5t-9.5 32.5t-24.5 44.5q-38 52 -96 84 t-121 32q-40 0 -78 -15.5t-71.5 -48t-54 -91t-20.5 -136.5q0 -76 17.5 -136.5t44.5 -97t62.5 -61t69 -34t67.5 -9.5q57 0 106.5 23.5t58.5 41.5q3 6 3 17v113q0 20 -11.5 25t-53.5 8q-18 2 -29 3q-28 2 -28 23q0 23 22 23q3 0 16.5 -1t36.5 -2t50 -1h2q28 0 52.5 1t38 2 t16.5 1q13 0 19.5 -6.5t6.5 -14.5q0 -17 -25 -26t-28 -20q-1 -3 -1 -10v-169q0 -20 -14 -20q-6 0 -16 10.5t-14 10.5q-6 0 -14 -8q-88 -77 -205 -77z" />
<glyph unicode="H" horiz-adv-x="762" d="M158 0q-19 0 -38 -0.5t-33.5 -1.5t-25.5 -2t-18 -1.5t-8 -0.5q-20 0 -20 27q0 13 9 16.5t37 5.5q14 0 22 1q16 1 21 9t5 23v529q0 7 -1 12t-4 8t-5 5.5t-8.5 4t-9 2t-11.5 1.5t-12 1q-4 1 -14 1.5t-15 1.5t-10 5.5t-5 12.5q0 5 1.5 10.5t7 11t14.5 5.5q3 0 18.5 -0.5 t41.5 -1t57 -0.5h3q32 0 59 0.5t42.5 1t18.5 0.5q7 0 11 -3t5.5 -7t2.5 -11q0 -2 0.5 -5t0.5 -4q0 -14 -16 -17q-3 -1 -60 -4q-23 -1 -23 -30v-165q0 -14 13 -14h338q17 0 17 18v148q0 36 -21 43q-8 3 -22 4t-24 1.5t-17.5 5.5t-7.5 16q0 24 24 24q3 0 16 -0.5t36.5 -1 t50.5 -0.5q20 0 40.5 0.5t35.5 1t27.5 1t19.5 1t8 0.5q19 0 19 -20q0 -6 -1 -10.5t-4.5 -7.5t-6.5 -5t-10 -3.5t-12.5 -2t-16 -2t-18.5 -2.5q-27 -3 -27 -29v-525v-5q0 -30 28 -32q6 0 15 -0.5t14 -1t11.5 -1.5t9.5 -2.5t6 -4t4.5 -6.5t1.5 -9q0 -26 -20 -26q-1 0 -8 0.5 t-18.5 1.5t-25.5 2t-33 1.5t-37 0.5t-37 -0.5t-33 -1.5t-25.5 -2t-18 -1.5t-7.5 -0.5q-16 0 -16 20q0 5 0.5 9t1.5 7t2.5 5t5 3.5t6.5 2t9.5 1t11.5 1t15.5 1t18.5 1.5q19 1 24.5 10t5.5 28v271q0 11 -13 11h-341q-15 0 -15 -17v-271q0 -9 1.5 -14t13 -11t33.5 -8 q3 0 11 -0.5t13 -1.5t11.5 -3t10 -6t3.5 -11q0 -28 -16 -28q-1 0 -7.5 0.5t-18 1.5t-25.5 2t-33 1.5t-37 0.5z" />
<glyph unicode="I" horiz-adv-x="323" d="M52 680l16 -1q16 -1 44 -2.5t55 -1.5q28 0 51.5 1t36.5 2t16 1q17 0 17 -19q0 -5 -0.5 -8.5t-1 -6t-2.5 -4.5l-3.5 -3.5t-5 -2.5t-6 -2t-8.5 -1.5t-10 -1t-12 -1t-14 -1.5q-16 -1 -16 -17v-540q0 -23 18 -25q10 -1 22 -1.5t18.5 -0.5t14 -1t11 -2t7 -3.5t5 -6t1.5 -8.5 q0 -29 -20 -29q-1 0 -8 0.5t-19 1.5t-27 2t-34.5 1.5t-38.5 0.5t-39 -0.5t-34.5 -1.5t-27 -2t-19.5 -1.5t-8 -0.5q-15 0 -17 23q-1 3 -1 9q0 12 8.5 15t42.5 5q20 1 33 2q21 1 21 28v520q0 3 0.5 8t0.5 6q0 13 -8.5 16t-36.5 4q-13 1 -21 1q-23 2 -23 21q0 28 22 28z" />
<glyph unicode="J" horiz-adv-x="316" d="M165 675q31 0 57 1t41.5 2t18.5 1q17 0 17 -20q0 -7 -1 -11.5t-4 -8t-5.5 -5t-9 -3t-11 -1.5t-15 -1t-18.5 -2q-26 -2 -26 -34v-537q0 -58 -24 -111t-64 -91q-9 -9 -25.5 -22t-46 -28.5t-51.5 -15.5q-34 0 -57 24.5t-23 52.5q0 20 12.5 34.5t32.5 14.5q25 0 50 -33 t46 -33q34 0 50 61q9 32 9 65v621q0 7 -1.5 11.5t-3 8t-6 6t-8.5 4t-11.5 2.5t-13.5 1.5l-17.5 1.5t-19.5 2q-22 2 -22 21q0 27 22 27q1 0 8 -0.5t18.5 -1t26 -1.5t34 -1.5t37.5 -0.5h4z" />
<glyph unicode="K" horiz-adv-x="654" d="M280 -6q-1 0 -8 0.5t-18.5 1.5t-26.5 2t-34 1.5t-38 0.5q-18 0 -37.5 -0.5t-34 -1.5t-26 -2t-18.5 -1.5t-8 -0.5q-17 0 -17 23q0 16 12.5 22t28 5t31.5 3.5t22 17.5q3 7 3 28v497q0 7 -1 13t-1.5 10.5t-3 7.5t-4 5.5t-6.5 4.5t-7 3t-9.5 2t-10.5 1.5t-13.5 1.5t-14.5 1 q-28 2 -28 24q0 9 7 16.5t22 7.5q3 0 17 -1t39 -2t54 -1h1q29 0 54 1t39 2t17 1q15 0 22 -8.5t7 -17.5q0 -13 -14 -17t-34.5 -4t-28.5 -4q-15 -7 -15 -33v-4v-213q0 -17 13 -17q7 0 26 21q178 198 182 205q8 10 8 21q0 14 -10.5 20.5t-22.5 6.5t-22.5 5t-10.5 17q0 21 23 21 q3 0 16.5 -0.5t37 -1t51.5 -0.5h6q26 0 49 0.5t35.5 1t15.5 0.5q28 0 28 -21q0 -12 -13.5 -17.5t-38 -9.5t-37.5 -9q-11 -5 -22 -13t-17 -14t-17.5 -19t-15.5 -17l-103 -111q-57 -61 -66.5 -72t-9.5 -16q0 -7 8 -15q271 -286 276 -289q2 -2 6 -5q17 -11 38.5 -14.5 t29.5 -11.5q6 -8 6 -15q0 -8 -7.5 -15.5t-21.5 -7.5q-5 0 -18 2t-29 2h-22h-17.5t-13 0.5t-10.5 1t-8 1.5t-7 2.5l-6 4.5t-6.5 6.5t-7.5 8.5q-242 278 -245 281q-10 10 -16 10h-1q-14 0 -14 -20v-211q0 -6 0.5 -10.5t1.5 -8t3.5 -6.5t4 -4.5t6.5 -3t8 -2.5t10.5 -1.5t12 -1 t15.5 -1t18 -1.5q22 -3 22 -22q0 -28 -20 -28z" />
<glyph unicode="L" horiz-adv-x="563" d="M151 675q32 0 59 0.5t43 1.5t19 1q11 0 14 -6.5t3 -20.5q0 -23 -22 -23q-9 0 -20.5 -0.5t-17.5 -0.5h-13.5t-11 -0.5t-7.5 -2t-6 -3.5t-3.5 -5t-2 -7t-0.5 -10v-507q0 -10 1.5 -16t7.5 -11t17 -5h191h3q37 0 55 27q5 8 22 45t20 40q6 8 15 8q5 0 11 -1.5t12.5 -7 t6.5 -14.5q0 -7 -20 -141q-1 -7 -2.5 -11t-7.5 -7.5t-17 -3.5l-59 2q-59 2 -159 3t-199 1h-53q-16 0 -16 16q0 15 17 21q4 1 38 8q23 6 23 32v3v525q0 5 -1 9t-2 6.5t-3.5 4t-5 2.5t-8 1.5t-9.5 0.5h-12.5h-14.5q-25 2 -25 24q0 25 19 25q4 0 17.5 -0.5l40 -1.5t56.5 -1h7z " />
<glyph unicode="M" horiz-adv-x="998" d="M721 -6q-19 0 -19 24q0 15 15 20.5t33.5 5t36 7.5t21.5 28q1 6 1 19v213q0 151 -3 160q-1 6 -7 6q-7 0 -14 -12q-38 -61 -100 -174.5l-108 -199t-53 -94.5q-10 -12 -22 -12q-3 0 -6 0.5t-5.5 2.5l-4.5 3.5t-4 4l-3.5 4.5t-3.5 5.5t-3 5t-3 5.5t-2 5q-49 101 -112 212.5 t-103 176t-45 67.5q-1 1 -3 1q-4 0 -4 -5q-6 -105 -6 -208q0 -183 6 -203q3 -11 18.5 -14.5t32 -2.5t30 -5.5t13.5 -22.5q0 -23 -18 -23l-17 2q-17 2 -46 3t-57 1t-57 -2q-29 0 -46 -2l-17 -2q-18 0 -18 22q0 6 1 10.5t5 8t7 5.5t11 3t13 2t17 2t20 2t13.5 3.5t8.5 5.5t5 9 t2.5 9.5t1.5 12.5t1 13q25 297 25 447q0 12 -11 25q-1 1 -12.5 15.5t-19.5 21.5t-26 15.5t-38 8.5q-20 3 -20 18q0 22 18 22h144q17 0 25 -13l189 -316l117 -186q6 -12 17 -12q9 0 14 11l237 444q33 63 34 63q5 9 18 9h145q15 0 15 -22q0 -8 -2.5 -12.5t-9.5 -7.5 t-14.5 -4.5t-22.5 -5t-29 -7.5q-24 -6 -24 -29q5 -485 5 -486v-7q0 -16 1.5 -24t9.5 -15.5t24 -9.5q7 -1 17.5 -1.5t15 -1t11 -1.5t9.5 -2.5t6 -4.5t4 -7.5t1 -10.5q0 -22 -20 -22l-19 2q-18 2 -48.5 3t-61.5 1q-19 0 -38.5 -0.5t-34.5 -1.5t-27 -2t-19 -1.5t-8 -0.5z" />
<glyph unicode="N" horiz-adv-x="799" d="M791 658q0 -17 -14 -21.5t-31.5 -2.5t-31.5 -11.5t-14 -46.5q-4 -180 -4 -271q0 -74 1 -137.5t2 -99.5t1 -44q0 -47 -20 -47q-12 0 -49 42l-207 236q-219 244 -222 244l-4 -4q-13 -190 -13 -355v-29q0 -40 7 -51.5t38 -13.5q36 0 61 -7q13 -7 13 -26t-17 -19q-1 0 -8 0.5 t-18.5 1.5t-25.5 2t-33 1.5t-37 0.5q-29 0 -59 -2q-28 0 -46 -2l-18 -2q-21 0 -21 20q0 21 15 26q6 2 26.5 3.5t36 7.5t22.5 21q4 10 18 281l10 189v3v1q0 14 -33 44q-39 39 -89 43q-18 0 -18 22q0 26 22 26h123q24 0 40 -19l157 -182l91 -102q184 -199 192 -204q2 -2 4 -2 q7 0 7 10q2 72 2 107q0 151 -9 298q-1 30 -14 37.5t-51 11.5q-22 3 -22 21q0 9 7 16.5t22 7.5q2 0 14.5 -0.5t34 -1.5t47.5 -1q25 0 46.5 1t33.5 1.5t14 0.5q21 0 21 -23z" />
<glyph unicode="O" horiz-adv-x="778" d="M760 337q0 -155 -105 -258t-254 -103q-73 0 -143.5 28.5t-123.5 79.5q-114 110 -116 269q0 152 109 259.5t260 107.5q158 0 265.5 -113.5t107.5 -269.5zM113 384q0 -90 30.5 -167.5t97 -130t156.5 -52.5q36 0 71.5 9t70.5 31t62 54t43.5 81t16.5 110q0 80 -26.5 155.5 t-83.5 125.5q-76 67 -180 67t-181 -72.5t-77 -210.5z" />
<glyph unicode="P" horiz-adv-x="572" d="M476 498q0 65 -60 107.5t-163 42.5q-40 0 -50.5 -3t-10.5 -12v-285q0 -8 6 -10t31 -2q110 0 178.5 44.5t68.5 117.5zM69 683q50 0 127.5 5t110.5 5q128 0 195 -60q58 -53 58 -130v-1q-1 -53 -29.5 -95t-72.5 -65q-74 -41 -225 -41h-30q-13 0 -13 -16v-203 q0 -17 6.5 -25.5t25.5 -9.5q89 -4 94 -5q14 -4 14 -23v-1q0 -24 -19 -24l-20 2q-20 2 -53 3t-65 1q-33 0 -67 -2q-32 0 -52 -2l-20 -2q-20 0 -20 24q0 5 0.5 8.5t1.5 6t2.5 4.5t4.5 3t5.5 2t8.5 1.5t10 1t13 1t16 1.5q17 2 22.5 8t5.5 19v535q0 26 -22 26h-36q-7 0 -11 1 t-8.5 7t-4.5 18q0 22 22 22h25z" />
<glyph unicode="Q" horiz-adv-x="752" d="M407 32q104 0 176 81.5t72 215.5q0 80 -26.5 158t-85.5 128q-71 60 -167 60q-104 0 -181.5 -75.5t-77.5 -207.5q0 -89 34.5 -170.5t102.5 -135.5t153 -54zM456 -11l-23 -3q-23 -2 -44 -2q-75 0 -144 29.5t-119 80.5q-106 108 -106 260q0 74 29.5 144t82.5 122 q106 104 256 104q65 0 130.5 -25t115.5 -75q53 -52 81.5 -122.5t28.5 -145.5q0 -101 -50.5 -193.5t-131.5 -147.5q-3 -3 -3 -5t3 -4q39 -27 82.5 -72.5t66.5 -60.5q40 -27 85 -27q8 0 14 0.5t7 0.5q12 0 12 -10q0 -12 -29.5 -26t-59.5 -14q-17 0 -32 3t-30.5 11t-25 12.5 t-26 19l-21 18.5t-22 22l-18.5 19q-87 87 -109 87z" />
<glyph unicode="R" horiz-adv-x="696" d="M438 496q0 61 -50.5 106.5t-124.5 45.5q-47 0 -60 -10q-6 -4 -6 -16l1 -1v-2v-235q0 -13 10 -15.5t56 -2.5q56 0 92 14q35 14 58.5 44t23.5 72zM283 687q64 0 112 -17t73 -44.5t36.5 -55.5t11.5 -57q0 -65 -40 -109t-74 -57q-5 -3 -5 -5t2 -4q72 -85 124.5 -166.5 t60.5 -90.5q28 -32 54 -32q15 0 26.5 11t16.5 11q10 0 10 -11q0 -18 -24.5 -45.5t-62.5 -27.5q-51 0 -106 73l-100 142q-86 120 -92 124q-5 4 -17 4h-73q-14 0 -14 -15v-231v-3q0 -29 26 -32q9 -1 20.5 -2t18 -1t14.5 -1t12.5 -2t9.5 -2.5t7.5 -3.5t4.5 -5t3 -7t1 -9 q0 -22 -20 -22q-1 0 -8 0.5t-19.5 1.5t-27.5 2t-35 1.5t-39 0.5t-39 -0.5t-35 -1.5t-27 -2t-19 -1.5t-8 -0.5q-18 0 -18 27q0 13 9 17t37 6q10 0 16 1q17 2 22 10t5 25v517q0 20 -11.5 26.5t-53.5 13.5q-12 2 -19 3q-15 3 -15 16q0 19 13 19h35q47 0 119 6t102 6z" />
<glyph unicode="S" horiz-adv-x="492" d="M32 516q0 69 51 119t128 50q36 0 65 -10t44.5 -20t19.5 -10q6 0 17.5 20t24.5 20q16 0 16 -19q0 -2 -1 -12.5t-2 -29.5t-1 -41t1 -40t2 -28.5t1 -12.5q0 -15 -17 -15h-1q-14 0 -20.5 10.5t-18 35t-30.5 46.5q-50 56 -110 56q-42 0 -69.5 -27.5t-27.5 -66.5q0 -55 51 -91 q31 -22 99.5 -39t90.5 -26q57 -24 91.5 -72.5t34.5 -114.5q0 -90 -63.5 -152.5t-155.5 -62.5q-89 0 -152 55q-16 14 -31 14q-5 0 -13.5 -1.5t-12.5 -1.5q-18 0 -18 15q0 3 3.5 20t9.5 55t10 88q2 21 22 21q15 0 19 -9.5t9 -48.5q1 -13 2 -24.5t1.5 -16.5t0 -9t2 -7.5 t3.5 -5.5t6.5 -9l10.5 -13q49 -66 129 -66q60 0 102.5 40.5t42.5 98.5q0 68 -58 110q-34 24 -101.5 41t-87.5 25q-59 23 -89 66.5t-30 95.5z" />
<glyph unicode="T" horiz-adv-x="692" d="M494 -6l-20 2q-20 2 -52 3t-64 1q-20 0 -41 -0.5t-37 -1.5t-29 -2t-20.5 -1.5t-8.5 -0.5q-20 0 -20 26q0 15 8 19t38 6q17 1 27 2q21 2 27.5 11t6.5 26v507q0 31 -27 31h-149q-19 0 -25.5 -4t-12.5 -16q-5 -11 -11 -22.5l-9.5 -18.5l-7 -14.5t-6 -12l-5 -9t-4.5 -7 t-4 -4.5t-4 -3t-4.5 -1.5t-5.5 -0.5q-10 0 -16 7t-6 18v1q0 4 29 138q3 15 21 15h583q11 0 14.5 -5.5t5.5 -17.5q24 -122 24 -128q0 -9 -5.5 -15.5t-13.5 -6.5q-12 0 -23 19q-6 10 -12.5 22t-10.5 18.5l-8.5 14.5t-7 11.5l-5.5 8t-5.5 6t-5 3.5t-6 2.5l-7 1t-8.5 0.5h-147 q-22 0 -22 -27v-524q0 -16 9 -19.5t49 -6.5q20 -2 33 -3q12 -1 15 -6.5t3 -21.5q0 -20 -17 -20z" />
<glyph unicode="U" horiz-adv-x="756" d="M742 663q0 -12 -7 -16t-17 -5t-19.5 -5t-16.5 -20t-7 -45q0 -2 -0.5 -5t-0.5 -5v-227q0 -8 0.5 -23.5t0.5 -23.5v-32q0 -70 -17 -126.5t-72 -95.5q-71 -49 -189 -49q-68 0 -121.5 14.5t-83.5 33.5t-52 46.5t-29.5 43t-12.5 33.5q-13 46 -13 128q0 12 0.5 38t0.5 38v252 q0 4 -0.5 8t-2 6.5t-2.5 4.5t-4 3.5t-4.5 2t-6 1.5t-6.5 1t-8 1t-8 1q-27 3 -27 24q0 24 20 24q3 0 15.5 -0.5t35.5 -1.5t50 -1h6q28 0 52 1t38 1.5t17 0.5q19 0 19 -26q0 -8 -2 -12.5t-8 -6.5t-12 -3t-18.5 -2t-21.5 -2q-32 -4 -32 -35v-313q0 -67 11.5 -112.5t49.5 -79.5 q60 -55 180 -55q140 0 183 91q19 39 19 111v14q0 10 -0.5 31t-0.5 31v272q0 17 -2.5 27t-12.5 15t-16.5 6.5t-27.5 3.5q-5 1 -8 1q-22 2 -22 22q0 22 19 22q3 0 14 -0.5t31 -1.5t43 -1t43 1t31 1.5t14 0.5q18 0 18 -26z" />
<glyph unicode="V" horiz-adv-x="830" d="M45 689q3 0 17.5 -0.5t40 -1.5t54.5 -1q28 0 52 1t37.5 1.5t16.5 0.5q18 0 18 -19q0 -16 -7.5 -20.5t-36.5 -8.5q-8 -1 -12 -2q-27 -3 -27 -26q0 -8 6 -20q47 -104 103.5 -214t90 -169t38.5 -65q4 -4 9 -4q7 0 11 8q116 211 200 436q6 18 6 22q0 23 -22 30q-8 3 -26.5 3 t-28.5 4.5t-10 19.5q0 25 22 25q3 0 16 -0.5t36 -1.5t50 -1t50 1t36 1.5t16 0.5q22 0 22 -27q0 -12 -7.5 -17t-18 -5.5t-25.5 -6t-25 -16.5q-11 -12 -38.5 -79.5t-96.5 -217.5t-161 -320q-12 -20 -25 -20q-14 0 -26 20l-154.5 277.5t-95.5 183l-47.5 100t-25.5 53t-15 18.5 q-3 2 -16 7.5t-21.5 12.5t-8.5 17q0 20 29 20z" />
<glyph unicode="W" horiz-adv-x="1002" d="M38 689q2 0 14.5 -0.5t34 -1.5t47.5 -1q25 0 46 1t33.5 1.5t14.5 0.5q18 0 18 -25q0 -13 -8.5 -17.5t-19 -3.5t-23 -1t-18.5 -9q-5 -6 -5 -13t3 -13q53 -168 156 -443q7 -18 15 -18q6 0 12.5 14t43.5 107l51 129q2 8 2 12v1q0 6 -66 197q-10 28 -17.5 32t-52.5 6 q-17 0 -17 22q0 23 23 23q3 0 16 -0.5t36.5 -1.5t50.5 -1h1q27 0 50 1t36 1.5t16 0.5q17 0 17 -22q0 -13 -6.5 -16.5t-27.5 -5.5q-6 -1 -9 -1q-31 -4 -31 -25q0 -3 2 -13q47 -143 107.5 -294.5t72.5 -168.5q7 -9 12 -9h1q10 0 16 18q45 95 85.5 205.5t60 178t19.5 80.5 q0 4 -1 7.5t-2.5 5.5t-4 4t-6 3.5t-7 2t-9.5 1.5t-10.5 1.5t-12 1t-13.5 1.5q-20 2 -20 23q0 22 18 22q3 0 16 -0.5t35.5 -1.5t49.5 -1h1q26 0 48.5 1t35 1.5t15.5 0.5q17 0 17 -23q0 -13 -8.5 -18.5t-20 -5t-24.5 -4.5t-20 -18q-1 -3 -11.5 -32.5l-29.5 -83t-45.5 -121.5 l-67 -164t-86.5 -193q-22 -48 -41 -48q-23 0 -42 53q-120 300 -123 303q-2 0 -4 -4l-78 -204q-40 -105 -48.5 -123.5t-15.5 -21.5h-1q-4 -3 -9 -3q-6 0 -11 3.5t-9.5 10t-7 12.5t-6 15.5t-5.5 14.5l-73 185.5t-58 160l-40.5 120.5l-27.5 85t-11 36q-7 17 -30 18t-28 8 q-5 5 -5 14q0 28 25 28z" />
<glyph unicode="X" horiz-adv-x="665" d="M156 686q30 0 55.5 1t39.5 1.5t17 0.5q10 0 14.5 -5.5t4.5 -23.5q0 -11 -11 -15t-24 -3.5t-24 -5t-11 -19.5q0 -6 12 -30q109 -178 112 -179q2 0 4 2l33.5 47.5l28 38.5l21.5 30l16.5 24l11.5 17.5t8.5 14.5l5 10.5t3 9.5t0.5 9t-1 9.5t-3 7.5t-3.5 5t-5.5 3.5l-6.5 2.5 t-8 2t-8 1t-9.5 0.5t-10 0.5q-26 2 -26 29q0 17 16 17q3 0 18 -0.5t41 -1.5t56 -1q31 0 57 1t41.5 1.5t18.5 0.5q18 0 18 -18t-8.5 -24.5t-21 -6t-30.5 -2.5t-32 -13q-12 -9 -33 -35t-29 -39q-130 -184 -130 -188t172 -276q17 -28 28 -34t45 -9q8 -1 13 -1q26 -4 26 -28 q0 -21 -17 -21q-1 0 -8 0.5t-19 1.5t-27 2t-35 1.5t-40 0.5q-19 0 -39 -0.5t-34.5 -1.5t-27 -2t-19.5 -1.5t-8 -0.5q-19 0 -19 21q0 20 18 25q6 1 42 6q22 3 22 22v2q0 9 -35 65l-35 57l-59 93q0 3 -3 3t-72 -99l-65 -94q-11 -15 -11 -26q0 -14 11 -18.5t40 -7.5q7 -1 11 -1 q27 -4 27 -26t-18 -22q-1 0 -7 0.5t-16 1.5t-23 2t-30 1.5t-33 0.5q-26 0 -52 -2q-25 0 -41 -2l-16 -2q-15 0 -15 19q0 4 0.5 7.5t0.5 6.5t2 5t2.5 3.5t3.5 3t5 2t6.5 1.5t7.5 1.5t10 1.5t11 2q6 1 11 2.5t10.5 4t8.5 4t8 6.5l7 7t8 10l8.5 11.5l10.5 14.5t12 17 q147 206 147 209q0 4 -159 258q-21 34 -34 40.5t-49 9.5q-25 2 -25 26q0 22 20 22q3 0 18 -0.5t41 -1.5t56 -1h3z" />
<glyph unicode="Y" horiz-adv-x="667" d="M490 21v-8q0 -19 -16 -19l-20 2q-20 2 -54 3t-67 1q-22 0 -44 -0.5t-38.5 -1.5t-29.5 -2t-21 -1.5t-9 -0.5q-25 0 -25 28q0 16 9 20t40 5q18 0 29 1h4t4.5 0.5t4 0.5t3.5 0.5t3.5 1.5t3.5 2l2.5 2.5t2 3.5t1 5t0.5 6v207q0 6 -0.5 11t-1 8t-3.5 8.5t-4 7t-5.5 9.5 t-6.5 11l-184 295q-10 12 -29 14t-24 12q-4 6 -4 14q0 22 25 22q3 0 17 -0.5t39 -1.5t54 -1t53.5 1t38.5 1.5t17 0.5q18 0 18 -20q0 -5 -0.5 -9t-2 -6.5t-3 -4.5t-5 -3.5t-6.5 -2l-9 -1.5t-10.5 -1t-13 -0.5t-15.5 -1.5q-26 -3 -26 -23v-2q0 -8 68 -125l74 -128 q8 -14 14 -14q2 0 8 6l56 77q80 109 99.5 139.5t19.5 47.5q0 16 -14.5 21.5t-31.5 4t-31.5 4t-14.5 22.5q0 20 21 20q3 0 14.5 -0.5t31.5 -1.5t43 -1h3q23 0 43.5 1l31.5 1.5t14 0.5q14 0 21 -6.5t7 -13.5q0 -9 -7.5 -15.5t-21 -17t-23.5 -22.5l-145 -187l-34 -45.5l-26 -35 l-18 -24t-13 -17.5l-7.5 -11.5t-4 -10t-1 -8t-0.5 -10.5v-195q0 -15 10.5 -18t59.5 -5q25 -1 40 -2q22 -1 22 -24z" />
<glyph unicode="Z" horiz-adv-x="629" d="M16 511q0 4 2 23.5t4 53t2 73.5v37q0 28 21 28q15 0 26 -24q8 -27 55 -27h436q24 0 24 -18q0 -8 -53 -77l-37 -49l-145 -182q-109 -132 -160 -222q-5 -7 -5 -15q0 -15 18 -19.5t82 -8.5q48 -3 98 -3h21q66 0 98.5 10.5t49.5 50.5q7 16 14 57t10 47q7 10 19 10q8 0 16 -7 t8 -21v-1q0 -19 -2 -34.5t-5 -35t-5 -34.5l-2.5 -39t-3 -34.5t-4.5 -23.5t-10 -19t-19 -7h-523h-2q-28 0 -28 21q0 9 8 19q194 275 422 527q14 16 14 22q0 11 -14 11h-323q-10 0 -16.5 -1t-12 -2t-9.5 -6t-6.5 -7.5t-5.5 -12.5t-4.5 -15.5t-5 -21.5t-6.5 -26q-5 -22 -21 -22 q-20 0 -20 25z" />
<glyph unicode="[" horiz-adv-x="378" d="M125 -155q0 -5 4 -5q1 0 7.5 4.5t20 10t31.5 8.5q4 1 4 6v780q0 4 -4.5 6.5t-11 3.5t-19 5.5t-25.5 12.5q-2 2 -4 2q-3 0 -3 -5v-829zM104 744q5 0 39 -18t79 -18q29 0 58 7t46 15l17 7q5 0 8.5 -5.5t3.5 -10.5q0 -7 -13.5 -22.5t-42 -30.5t-60.5 -15q-6 0 -6 -7l1 -773 q0 -7 4 -9t11.5 -2t23.5 -5t34 -16q19 -12 33 -26.5t14 -21.5q0 -13 -12 -13q-2 0 -19.5 9t-47.5 17.5t-64 8.5q-30 0 -56 -6.5t-41 -12.5t-18 -6q-16 0 -16 22v414q0 7 -4 7q-1 0 -8.5 -5t-15.5 -5q-29 0 -29 41q0 36 29 36q8 0 15 -3.5t8 -3.5q4 0 4 7v410q0 34 25 34z " />
<glyph unicode="\" horiz-adv-x="235" d="M232 -200q0 -9 -12.5 -17.5t-18.5 -8.5q-11 0 -11 11q-187 807 -187 811q0 8 11.5 15t19.5 7q11 0 15 -15q40 -200 86.5 -399l71.5 -298.5t25 -105.5z" />
<glyph unicode="]" horiz-adv-x="378" d="M253 -155v829q0 5 -3 5q-2 0 -4 -2q-13 -8 -25.5 -12.5t-19 -5.5t-11 -3.5t-4.5 -6.5v-780q0 -5 4 -6q18 -3 31.5 -8.5t20 -10t7.5 -4.5q4 0 4 5zM274 744q25 0 25 -34v-410q0 -7 4 -7q1 0 8 3.5t15 3.5q29 0 29 -36q0 -41 -29 -41q-8 0 -15.5 5t-8.5 5q-4 0 -4 -7v-414 q0 -22 -16 -22q-3 0 -18 6t-41 12.5t-56 6.5q-34 0 -64 -8.5t-47.5 -17.5t-19.5 -9q-12 0 -12 13q0 7 14 21.5t33 26.5q18 11 34 16t23.5 5t11.5 2t4 9l1 773q0 7 -6 7q-32 0 -60.5 15t-42 30.5t-13.5 22.5q0 5 3.5 10.5t8.5 5.5l17 -7q17 -8 46 -15t58 -7q45 0 79 18t39 18 z" />
<glyph unicode="^" horiz-adv-x="423" d="M73 462q-10 0 -16 6.5t-6 15.5q0 8 7 20q108 183 117 194q8 10 19 15q8 3 15 3q4 0 7 -1l6 -2t6.5 -3t5.5 -3.5t5 -5t4.5 -5t4.5 -5.5t4 -5.5l3.5 -5.5t3.5 -5l70 -111q44 -70 44 -81q0 -10 -7 -16.5t-17 -6.5q-4 0 -8.5 1.5t-8.5 4.5t-7 5t-7.5 7.5t-6.5 7.5t-6.5 8.5 t-5.5 7.5l-44 57q-27 35 -32.5 41t-10.5 6h-1q-6 -1 -26 -26q-7 -8 -26 -32l-39 -48q-2 -3 -9 -11.5t-9.5 -11t-8 -7.5t-10.5 -6.5t-10 -1.5z" />
<glyph unicode="_" horiz-adv-x="527" d="M27 -50v4q0 25 14 25h446q14 0 14 -25v-2q0 -28 -14 -28h-446q-14 0 -14 26z" />
<glyph unicode="`" d="M8 664q0 16 11 26.5t26 10.5h1q28 0 55 -42q101 -150 103 -156q2 -4 2 -9q0 -8 -5.5 -14t-13.5 -6h-2q-7 0 -17.5 9.5t-66.5 66.5l-68 69q-25 25 -25 45z" />
<glyph unicode="a" horiz-adv-x="423" d="M29 345q0 29 47.5 59t106.5 30q19 0 38.5 -4t44 -14t41.5 -34t21 -58q2 -24 2 -36v-197q0 -18 7 -28.5t13.5 -13t13.5 -2.5q18 0 28 16.5t16 16.5q9 0 9 -13q0 -23 -21 -51t-56 -28q-13 0 -24.5 4t-19.5 10t-14 12l-10 10l-3 5q-1 0 -1 0.5t-1 0.5q-2 0 -3.5 -1.5 t-7 -7.5t-16.5 -13q-43 -28 -93 -28q-51 0 -82.5 32.5t-31.5 79.5v1q0 56 42 89q15 12 38.5 21.5t46.5 14t43.5 7.5t34.5 4l13 1q8 2 8 14v36q0 52 -24 80q-25 27 -58 27q-53 0 -86 -67q-8 -11 -22 -11q-15 0 -27.5 10t-12.5 26zM171 35q22 0 42 9.5t28 17.5t13 14q6 8 6 23 v24v41q0 18 -1.5 23.5t-8.5 5.5q-13 0 -31.5 -2t-45.5 -11t-42 -23q-24 -20 -24 -54q0 -37 21 -55q14 -13 43 -13z" />
<glyph unicode="b" horiz-adv-x="486" d="M142 395q0 -6 4 -6q2 0 18.5 10.5t48 20.5t69.5 10q88 0 141.5 -61t53.5 -160q0 -38 -9 -73.5t-41 -75.5t-83 -59q-52 -20 -112 -20q-26 0 -55 9.5t-42 9.5q-17 0 -30.5 -10.5t-19.5 -10.5q-16 0 -16 30q0 59 1.5 293t1.5 292q0 14 -12 22q-6 4 -13 8t-11.5 7t-9.5 5.5 t-7.5 4.5t-5.5 4l-4.5 3t-2.5 2.5t-1.5 3t-0.5 2.5q0 8 13 13q111 44 114 44q14 -2 14 -20q0 -33 -1.5 -160t-1.5 -138zM414 192q0 81 -50 133t-117 52q-35 0 -71.5 -16.5t-36.5 -32.5v-256q0 -1 -0.5 -3.5t-0.5 -3.5q0 -18 14 -24q46 -19 92 -19q76 0 123 47t47 123z" />
<glyph unicode="c" horiz-adv-x="381" d="M209 -18q-85 0 -138.5 61t-53.5 154q0 102 59 166.5t155 64.5q53 0 90 -22.5t37 -51.5q0 -17 -12 -27.5t-28 -10.5q-22 0 -56 30t-65 30q-46 0 -80 -45.5t-34 -108.5q0 -71 45 -123.5t113 -52.5q34 0 59.5 13.5t40 27t22.5 13.5q7 0 12 -5t5 -12q0 -8 -6 -16 q-27 -36 -69.5 -60.5t-95.5 -24.5z" />
<glyph unicode="d" horiz-adv-x="494" d="M238 383q-75 0 -114.5 -44.5t-39.5 -122.5q0 -85 56.5 -135t117.5 -50q30 0 59 12t35 31q3 12 3 23v224q0 14 -10 24q-41 38 -107 38zM240 423q29 0 54.5 -3.5t39.5 -7.5l14 -4q7 0 7 9v168q0 13 -6 17.5t-37 16.5q-11 4 -17 7q-19 5 -19 16q0 5 9 11q124 61 129 61 q12 0 12 -14q0 -9 -1 -51t-1.5 -115t-0.5 -158q0 -267 3 -294q0 -3 0.5 -4.5t1.5 -3t2.5 -2.5t4 -1.5t4.5 -1t6 -0.5h7.5t9.5 -0.5t11 -0.5q19 0 19 -14q0 -7 -5 -10.5t-22.5 -11.5t-31.5 -16q-19 -10 -35 -21.5t-23 -17t-11 -5.5q-8 0 -8 10v33q0 3 -2 3l-6 -4l-15.5 -10 t-22.5 -11.5t-33 -9.5t-42 -4q-96 0 -157 66t-61 162q0 88 56 152t166 64h1z" />
<glyph unicode="e" horiz-adv-x="409" d="M22 206q0 102 53.5 163.5t131.5 61.5q49 0 95.5 -27.5t76.5 -68.5q8 -10 8 -22v-1q0 -9 -5 -15.5t-15.5 -12t-18.5 -9t-23 -8t-19 -5.5l-121 -41q-67 -23 -79.5 -28t-12.5 -10q0 -9 6 -28.5t20 -47.5t46 -48.5t76 -20.5q68 0 119 49q14 14 23 14q16 0 16 -15q0 -8 -7 -16 q-32 -41 -78.5 -65t-98.5 -24q-26 0 -51.5 7t-51.5 23.5t-45.5 41.5t-32 64.5t-12.5 88.5zM290 310q0 13 -34 39.5t-71 26.5q-44 0 -70 -38.5t-26 -104.5q0 -7 5 -7q2 0 93 35.5t94 36.5q9 4 9 12z" />
<glyph unicode="f" horiz-adv-x="292" d="M33 -6q-15 0 -15 25q0 3 0.5 5t1.5 3.5t2 2.5t3.5 2t4.5 1.5t6.5 1t8 1t9.5 1.5t11 2q3 0 5 1t3.5 2t2.5 2.5t1.5 2.5t1 3.5t0.5 3.5t0.5 4.5t0.5 4.5q4 50 4 287q0 7 -5 8.5t-24 1.5h-24q-21 0 -21 18q0 30 21 30q13 1 29 1t19 1t3 8v1q3 122 43 192q29 49 82 79t101 30 q37 0 54.5 -16.5t17.5 -35.5q0 -15 -11.5 -27t-30.5 -12q-14 0 -40.5 12t-42.5 12q-51 0 -77 -61.5t-26 -155.5v-9q0 -10 1.5 -13t8.5 -3h98q22 0 22 -20v-1q0 -31 -26 -31h-94q-9 0 -9 -8v-287v-3q0 -23 20 -24q8 -1 17.5 -1.5t14 -0.5t10 -0.5t7.5 -1.5t4.5 -3.5t3 -5.5 t0.5 -8q0 -22 -16 -22l-13 2q-13 2 -34.5 3t-42.5 1q-14 0 -28 -0.5t-24.5 -1.5t-19 -2t-13.5 -1.5t-6 -0.5z" />
<glyph unicode="g" horiz-adv-x="440" d="M187 399q-38 0 -62.5 -30.5t-24.5 -79.5q0 -58 29 -100t74 -42q40 0 64.5 32t24.5 79q0 55 -29.5 98t-75.5 43zM83 -88q0 -44 46.5 -71.5t116.5 -27.5q69 0 98 22.5t29 50.5q0 41 -40 59q-20 10 -47 13.5t-77 5.5t-87 6h-3q-6 0 -17 -11q-19 -19 -19 -47zM22 277 q0 64 46.5 110t115.5 46q42 0 81.5 -18t44.5 -18q30 0 52 32q14 23 29 23q14 0 26 -13t12 -28q0 -17 -15 -30t-35.5 -21t-21.5 -9q-4 -4 -4 -8q0 -2 2.5 -10t5.5 -22t3 -31q0 -70 -48 -119t-118 -49q-19 0 -36.5 4.5t-21.5 4.5q-14 0 -29.5 -17.5t-15.5 -33.5q0 -26 42 -35 t108.5 -11t94.5 -10q45 -13 68 -44t23 -67q0 -52 -48.5 -94.5t-159.5 -42.5q-47 0 -83 9t-57 22t-34 31t-17.5 33t-4.5 31q0 10 1.5 19t4.5 16.5t7 14t8.5 11.5l8.5 9.5t8 7.5t7 5t5 3l2 1q2 2 2 4q0 1 -9.5 7t-18.5 19.5t-9 33.5q0 48 56 93l1 1q1 1 1 3q0 4 -9 9t-24.5 19 t-27.5 36q-19 32 -19 73z" />
<glyph unicode="h" horiz-adv-x="514" d="M293 8v7q0 5 0.5 8t3 5t5 3t8 2t10 1.5l13.5 1.5t17 2q15 2 17.5 15t2.5 72q0 98 -12.5 141.5t-35.5 68.5q-36 36 -81 36q-30 0 -56.5 -16.5t-30.5 -32.5q-1 -4 -1 -13q0 -240 2 -247q3 -14 15 -20t25.5 -6t24 -4.5t10.5 -16.5q0 -21 -11 -21q-1 0 -6 0.5t-13.5 1.5 t-19.5 2t-25 1.5t-28 0.5t-29 -0.5t-25.5 -1.5t-19.5 -2t-14 -1.5t-6 -0.5q-12 0 -12 20q0 10 5 13.5t21 6.5q7 1 11 2q11 2 16.5 8.5t6 11t1.5 14.5q5 152 5 275v4q0 221 -4 245q-2 12 -36.5 20.5t-34.5 21.5q0 11 16 19q110 64 115 64h1q15 0 15 -19l-1 -308q0 -7 5 -7 q1 0 16.5 9.5t43.5 18.5t58 9q95 0 134 -91q15 -36 20.5 -82.5t8.5 -182.5q0 -10 2 -16t7.5 -9.5t10.5 -4.5t17 -2q17 -2 17 -18q0 -22 -13 -22q-1 0 -6 0.5t-13.5 1.5t-19 2t-24.5 1.5t-28 0.5q-13 0 -27 -0.5t-24.5 -1.5t-19 -2t-13.5 -1.5t-6 -0.5q-11 0 -11 14z" />
<glyph unicode="i" horiz-adv-x="243" d="M104 618q0 19 14 33t34 14t34 -13.5t14 -32.5q0 -20 -14.5 -34t-34.5 -14t-33.5 13.5t-13.5 33.5zM94 121v94.5t0.5 68.5t0.5 30q0 10 -6.5 14.5t-38.5 17.5q-14 5 -23 9q-12 5 -12 13q0 3 1.5 6t5 5l6 3.5t7.5 3.5t7 3q108 52 110 52h1q14 0 14 -16l-1 -32 q-2 -32 -3.5 -86.5t-1.5 -108.5v-33q0 -91 3 -108.5t20 -19.5q4 -1 10 -1.5t9 -1t7 -1.5l6 -1.5t5 -1.5t4 -2t2 -3t1.5 -4t0.5 -5q0 -22 -12 -22q-1 0 -6 0.5t-13.5 1.5t-19.5 2t-25 1.5t-28 0.5t-28.5 -0.5t-25 -1.5t-19 -2t-13.5 -1.5t-6 -0.5q-15 0 -15 17q0 16 6 19 t43 8q17 3 22 11.5t5 24.5v47z" />
<glyph unicode="j" horiz-adv-x="232" d="M94 102q0 56 0.5 104t1 75t0.5 33q0 4 -0.5 6.5t-0.5 4.5t-1.5 4.5t-3 4t-4.5 4t-5.5 4l-8 5l-9.5 6l-12 7.5l-15 9q-9 5 -9 12q0 6 9 11t54 24l57 24q4 2 7 2q10 0 10 -16q0 -5 -0.5 -29.5t-1 -67.5t-0.5 -94q0 -79 1 -147t2 -106.5t1 -46.5q0 -21 -15 -44 q-14 -20 -32 -41.5t-54 -51t-63 -29.5q-16 0 -27 9.5t-11 24.5q0 16 12 29.5t32 13.5q6 0 15.5 -1.5t14.5 -1.5q12 0 23 4.5t22.5 23.5t11.5 51q0 5 -0.5 28t-0.5 63.5v88.5zM104 604q0 20 14 33.5t34 13.5t34 -13.5t14 -32.5t-14.5 -33t-34.5 -14t-33.5 13.5t-13.5 32.5z " />
<glyph unicode="k" horiz-adv-x="454" d="M224 12q0 13 7.5 18t16 5t16 3.5t7.5 13.5t-26 47t-50 67t-27 33q0 2 -4 2t-15.5 -12.5t-12.5 -16.5q-1 -3 -1 -11v-103q0 -14 7 -17t39 -7q21 -5 21 -21q0 -17 -14 -17q-2 0 -11.5 1t-27 2t-38.5 1t-38.5 -1t-27.5 -2t-12 -1q-17 0 -17 18q0 17 24.5 20.5t26.5 21.5v539 q0 16 -12 24q-45 31 -46 32l-4 8q0 10 20 17q95 42 99 42q11 0 11 -17v-472q0 -4 3 -4q4 0 6 4q14 15 29.5 30t23.5 23.5l17 17.5t13 13.5t8 9.5t5 8.5l2 7t1 8.5q0 16 -13 26.5t-13 15.5v10q0 13 21 13h58q29 0 54 1t39 1.5t17 0.5q15 0 15 -19q0 -12 -5 -15.5t-23 -5.5 t-30 -5q-21 -6 -45.5 -23.5t-40 -33l-59.5 -60.5q-7 -7 -7 -9q0 -4 42 -54l74 -88q17 -21 28 -32t31.5 -23t42.5 -15q16 -2 16 -17q0 -21 -16 -21q-1 0 -6 0.5t-14 1.5t-20.5 2t-26 1.5t-29.5 0.5q-14 0 -29 -0.5t-26 -1.5t-20 -2t-14.5 -1.5t-6.5 -0.5q-13 0 -13 17v1z" />
<glyph unicode="l" horiz-adv-x="239" d="M228 14q0 -20 -12 -20q-1 0 -6 0.5t-14 1.5t-20 2t-25.5 1.5t-28.5 0.5q-21 0 -42.5 -1t-34.5 -3l-13 -1q-14 0 -14 18v3q0 13 6 16t35 6q18 2 23 11t5 27v509q0 4 -0.5 7t-3 5.5t-4 3.5t-7 4t-8.5 5l-15.5 9l-13 7.5t-9 5.5t-7 4.5t-5 4t-3 4.5t-0.5 4v1q0 5 11 11 q7 4 37 19l75 39q6 4 12 4q14 0 14 -19v-633q0 -5 0.5 -9t1.5 -7.5t2 -5.5t4.5 -4t5 -3t7 -2.5t8 -2t10.5 -1.5t12 -2q17 -3 17 -20z" />
<glyph unicode="m" horiz-adv-x="723" d="M142 378q1 0 15.5 11t40 22t52.5 11q13 0 26 -3t23.5 -8t19.5 -10.5t16 -11.5l12 -10.5t8 -8.5l3 -3q1 -1 4 -1t5 1.5l11.5 9t25.5 16.5q50 29 97 29q44 0 81.5 -26t53.5 -83q11 -38 11 -117v-127q0 -7 0.5 -11.5t2.5 -8.5t3.5 -5.5t7 -3.5t8 -2.5l12 -2.5l14.5 -3 q14 -2 14 -18q0 -20 -15 -20q-2 0 -13 1.5t-30 3t-41 1.5t-41.5 -1.5t-30.5 -3t-13 -1.5q-16 0 -16 17v5.5t1 5t2 3.5t3.5 2.5t4.5 2t6.5 1.5t7.5 1.5t10 2l12 2.5q14 2 17 8t3 19v139q0 110 -41 146q-27 22 -62 22q-31 0 -61 -17t-30 -29v-3q0 -3 1.5 -8.5t2.5 -13.5 t1.5 -19t0.5 -23v-193q0 -1 -0.5 -4t-0.5 -4v-1q0 -14 13 -17q3 -1 36 -5q19 -3 19 -19q0 -21 -13 -21q-1 0 -6 0.5t-14 1.5t-19.5 2t-25 1.5t-28.5 0.5t-28.5 -0.5t-25.5 -1.5t-19 -2q-8 -2 -14 -2h-6q-14 0 -14 22q0 3 0.5 5t1.5 3.5t2.5 2.5t4.5 2t5.5 1.5t7 1.5t8.5 1.5 t11 1.5t13 2q16 3 21 11t5 27v185q0 63 -32 87q-31 24 -70 24q-29 0 -49 -13t-27 -26q-4 -10 -4 -26v-241q0 -4 0.5 -7.5t1 -6.5t2 -5t2.5 -3.5t4 -3t5 -2t7.5 -1.5t8 -1.5t10 -1.5t12.5 -2q14 -2 14 -21q0 -16 -13 -16l-12 2q-12 2 -32.5 3t-40.5 1q-19 0 -35.5 -1t-26 -2 t-11.5 -1q-14 0 -14 20q0 10 8 14t18.5 4.5t19.5 6.5t10 19v248q0 13 -4.5 18.5t-21.5 18.5q-9 6 -14 10q-9 6 -9 12q0 5 4 8t30 20l47 30q16 9 19 9q9 0 9 -12v-38q0 -6 4 -6z" />
<glyph unicode="n" horiz-adv-x="499" d="M141 377q0 -4 3 -4h1q1 0 7.5 6t18 15t27 17.5t38 15t46.5 6.5h2q20 0 40 -5.5t43.5 -19.5t39 -44.5t19.5 -74.5q2 -17 2 -51v-19t-0.5 -54t-0.5 -100v-2q0 -5 1 -9t1.5 -7t3.5 -5l4.5 -3t7 -2.5t8 -1.5t10.5 -1t12 -2q14 -2 14 -18q0 -20 -15 -20q-3 0 -13.5 1.5 t-29.5 3t-41 1.5q-12 0 -25 -0.5t-22.5 -1.5t-17.5 -2q-9 -2 -13 -2h-4q-14 0 -14 20q0 3 0.5 5.5t1.5 4t2.5 3t4 2.5t5 1.5t7 1.5t8.5 1.5t10.5 1.5l12.5 2q16 2 16 24v155q0 76 -13 108q-14 33 -44 46.5t-56 13.5q-39 0 -69 -23.5t-34 -41.5q-1 -4 -1 -13v-237v-3 q0 -25 22 -28q6 -1 13 -2t11 -1.5t9 -1.5t7 -2t5 -2t4.5 -2.5t2.5 -4t1.5 -5t0.5 -6.5q0 -18 -13 -18q-1 0 -6 0.5t-14 2t-20 2.5t-25 1.5t-28 0.5q-13 0 -27 -0.5t-24 -1.5t-18.5 -2l-13 -1.5t-5.5 -0.5q-16 0 -16 18q0 14 6 17t33 7q17 3 21.5 10.5t4.5 23.5v239 q0 17 -5 23.5t-40 32.5q-6 6 -6 10v1q0 5 7 9.5t41 22.5l47 25q6 4 10 4q12 0 12 -15v-39v-3z" />
<glyph unicode="o" horiz-adv-x="467" d="M21 204q0 101 64 164.5t152 63.5q90 0 149.5 -64t59.5 -164q0 -103 -62 -163t-151 -60q-94 0 -153 64.5t-59 158.5zM236 30q62 0 102 50.5t40 119.5q0 78 -44.5 131.5t-103.5 53.5q-49 0 -90 -43t-41 -133q0 -79 38 -129t99 -50z" />
<glyph unicode="p" horiz-adv-x="494" d="M250 27q63 0 110.5 47.5t47.5 120.5q0 72 -47 124.5t-108 52.5q-39 0 -66 -21q-29 -21 -29 -62v-215q0 -19 26 -31q32 -16 66 -16zM286 431q82 0 135.5 -63.5t53.5 -152.5q0 -99 -66.5 -160.5t-171.5 -61.5q-10 0 -19.5 0.5t-17 1.5t-13.5 2t-10 1l-4 1q-7 0 -7 -11v-137 v-3q0 -24 22 -26q10 -1 23 -2l19.5 -1.5t14 -1.5t11 -2.5t7 -4.5t4.5 -7.5t1 -11.5q0 -15 -12 -15q-2 0 -14.5 1t-33.5 2t-46 1q-32 0 -64 -2t-50 -4l-19 -2q-16 0 -16 20q0 3 0.5 5.5t1.5 4t2.5 3t4.5 2.5l6 2t8 2t9.5 2l11.5 2.5t14 2.5q22 4 22 28v462v2q0 15 -13 20 q-65 29 -66 32q-1 1 -1 3v1q0 4 18 15q6 4 25 15l64 37q16 8 17 8q8 0 8 -11v-59q0 -6 3 -6l13 14q13 14 40.5 30t61.5 21q8 1 23 1z" />
<glyph unicode="q" horiz-adv-x="525" d="M259 401q-71 0 -121 -49t-50 -119q0 -76 55 -128.5t130 -52.5q27 0 55 8.5t38 17.5q9 9 9 30q0 47 -3 235q0 19 -14 29q-44 29 -99 29zM16 213q0 38 14.5 75t44.5 70.5t84 54.5t124 21q37 0 75 -6.5t39 -6.5q17 0 26 12.5t12 12.5q11 0 11 -55q0 -5 0.5 -14t0.5 -13v-503 q0 -30 10.5 -38t44.5 -12q14 -3 14 -14q0 -22 -18 -22q-2 0 -9 0.5t-19 1t-27 0.5q-21 0 -42.5 -1t-37 -3t-28 -4t-19.5 -3t-8 -1q-18 0 -18 18q0 3 0.5 6t2 5t3.5 3.5t5 3t5.5 2l7.5 1.5t9 2t10.5 2t11.5 2q29 6 29 40v172q0 7 -6 7q-2 0 -18 -9.5t-46 -19t-65 -9.5 q-91 0 -157 65t-66 157z" />
<glyph unicode="r" horiz-adv-x="358" d="M145 377q1 0 21.5 14l45.5 30.5t37 20.5t29 4q27 0 52.5 -12.5t25.5 -31.5v-1q0 -6 -4 -12l-6 -9q-3 -2 -10 -8l-7 -6l-10 -8q-10 -8 -16.5 -10t-14.5 -2q-12 0 -27 12.5t-32 12.5q-21 0 -46 -15.5t-32 -25.5q-4 -6 -4 -18v-240v-4q0 -28 25 -30q10 -1 27 -2 q22 -1 29.5 -2.5t12 -5.5t4.5 -14q0 -20 -14 -20q-1 0 -6.5 0.5t-15 1.5t-21.5 2t-27.5 1.5t-30.5 0.5q-16 0 -32 -0.5t-27.5 -1.5t-21 -2t-15 -1.5t-6.5 -0.5q-16 0 -16 17q0 9 3.5 13.5t8 5.5t15.5 2.5t18 3.5q18 4 18 24v265q0 5 -1 8.5t-2.5 6.5t-6.5 6.5t-9.5 7 t-15 10.5l-20.5 14q-3 3 -4 7q0 3 32 19l73 35l9 3q12 0 12 -20v-40q0 -5 3 -5z" />
<glyph unicode="s" horiz-adv-x="338" d="M31 309q0 47 39.5 82.5t104.5 35.5q13 0 24.5 -1.5t18 -2.5t7.5 -1q4 0 11.5 5t13.5 5q12 0 16 -19q2 -14 7 -40.5l8.5 -44.5t3.5 -20q0 -16 -23 -16q-9 0 -14 7.5t-9 21t-9 20.5q-11 15 -35 27t-47 12q-26 0 -44.5 -15t-18.5 -38q0 -50 79 -72q7 -2 35.5 -9t39 -10.5 t29 -14.5t31.5 -26q30 -35 30 -79q0 -52 -41 -93.5t-111 -41.5q-38 0 -78 13t-60 37q-12 13 -12 34q0 15 -0.5 35t-0.5 25q0 19 3.5 25t14.5 6t13.5 -9t3.5 -25.5t6 -27.5q9 -19 42 -39t72 -20q34 0 57.5 18.5t23.5 48.5q0 19 -8.5 33t-26 23t-28.5 13.5t-33.5 10t-23.5 5.5 q-111 32 -111 122z" />
<glyph unicode="t" horiz-adv-x="333" d="M40 365q-20 0 -20 13q0 6 14 18t40.5 40.5t49.5 68.5q11 18 20 18q13 0 13 -16q0 -7 -0.5 -35t-0.5 -35q0 -20 20 -20h90q2 0 4 -0.5t4 -0.5q26 0 26 -19q0 -18 -9 -29q-5 -5 -18 -5h-117q-10 0 -10 -9q-1 -187 -1 -234q0 -74 51 -74q27 0 64 30t45 30t13 -5.5t5 -12.5 q0 -6 -7 -17q-79 -90 -139 -90q-36 0 -66 29t-35 93q-1 11 -1 32q0 25 2 119t2 102q0 9 -7 9h-32z" />
<glyph unicode="u" horiz-adv-x="505" d="M359 33q-1 0 -8 -5.5t-19.5 -13t-28 -14.5t-38 -12.5t-45.5 -5.5q-61 0 -102.5 38.5t-50.5 106.5q-3 30 -3 61q0 18 0.5 86.5t0.5 74.5q0 18 -27 28q-5 2 -15 4.5t-13 5.5t-3 11v3q0 13 11 14q100 6 104 6q10 0 10 -12v-205q0 -67 18 -103q14 -27 41.5 -47t64.5 -20 q49 0 85 36q17 19 17 30v246q0 4 -0.5 7.5t-1.5 6t-3 5t-3.5 4t-5.5 3t-6.5 2t-9 2t-10 2t-12 2l-14.5 2.5q-15 3 -15 16q0 15 14 17q32 1 58 2t36 1.5t17.5 0.5h11.5q15 0 15 -20v-313q0 -3 0.5 -4.5t2 -3t3.5 -2.5l6 -3t8.5 -4t13 -5.5t16.5 -7.5q8 -3 8 -12t-2 -12.5 t-9 -6t-16.5 -4.5t-29.5 -10t-43 -21q-6 -4 -11 -4q-14 0 -14 20v23q0 4 -3 4z" />
<glyph unicode="v" horiz-adv-x="490" d="M298 396v5q0 14 12 14q2 0 12.5 -0.5t28.5 -1.5t39 -1t39 1t28.5 1.5t12.5 0.5q15 0 15 -19q0 -18 -24.5 -19.5t-30.5 -10.5q-2 -4 -6 -20q-24 -86 -57.5 -173t-56.5 -134t-31 -55q-7 -9 -19 -9q-17 0 -33 31q-56 99 -97.5 185t-59 126t-21.5 46q-6 8 -15.5 11t-16 3 t-11 6t-4.5 19t12 13q3 0 15 -0.5t33.5 -1.5t46.5 -1q26 0 47.5 1t33.5 1.5t15 0.5q14 0 14 -20q0 -11 -5 -14.5t-23 -4t-28 -2.5q-20 -2 -20 -18q0 -8 14 -47t43.5 -102.5t61.5 -119.5l2 -3l3.5 -3.5t3.5 -1.5q5 0 5 5q34 60 58 126t31 101t7 48q0 3 -0.5 5.5t-2.5 4.5 t-4 3t-5.5 2t-6.5 1.5t-8 1t-9 1t-11 1t-12 0.5q-13 8 -15 17z" />
<glyph unicode="w" horiz-adv-x="752" d="M735 415q15 0 15 -17q0 -9 -4 -14t-8 -6q-3 -2 -11 -2h-8q-12 -3 -18.5 -13t-14.5 -37.5t-20 -65t-43 -108t-75 -152.5q-13 -25 -28 -25t-34 34q-5 8 -43 78l-39 76q-24 47 -27 47t-40 -79q-70 -142 -75 -147q-7 -9 -18 -9q-15 0 -29 26q-47 90 -86.5 177t-58.5 135 t-20 49q-5 9 -13.5 12.5t-14.5 3.5t-11 4.5t-5 15.5q0 17 18 17q2 0 11.5 -0.5t26.5 -1.5t36 -1h3q19 0 35 1t25.5 1.5t11.5 0.5q12 0 12 -17q0 -12 -9.5 -17t-21.5 -4t-21.5 -2t-9.5 -13q0 -7 6 -19q47 -125 112 -251q4 -8 10 -8q3 0 5.5 2t3.5 3.5t1 2.5q28 44 59 103.5 t32 71.5v1q0 5 -17 41.5t-21 42.5q-8 13 -22 18t-25 4.5t-19.5 3t-8.5 14.5q0 23 16 23q3 0 16 -0.5t36.5 -1.5t50.5 -1t50.5 1t36.5 1.5t16 0.5q14 0 14 -15v-6q0 -10 -4.5 -12t-29.5 -4q-15 -1 -24 -2q-23 -2 -23 -21q0 -16 40 -100t85 -156q8 -14 16 -14q9 0 12 9 q32 57 56 120t32.5 97t8.5 43q0 4 -0.5 7t-2.5 5.5t-3.5 4t-5 2.5t-6.5 1.5t-8.5 1t-9.5 1t-11.5 1t-13.5 0.5q-18 2 -18 20q0 17 12 17q2 0 12 -1t27.5 -2t38.5 -1t39 1t28.5 2t12.5 1z" />
<glyph unicode="x" horiz-adv-x="443" d="M24 415q2 0 12.5 -0.5t29 -1.5t40.5 -1t41 1t29.5 1.5t12.5 0.5q12 0 12 -14v-2q0 -2 0.5 -5t0.5 -4q0 -7 -4.5 -9t-21.5 -4q-6 -1 -10 -1q-16 -2 -16 -14q0 -4 14 -24l46 -59q12 -16 14 -16t5 3q70 93 70 98q0 11 -24.5 12.5t-24.5 13.5q0 25 13 25q2 0 11 -0.5t25 -1.5 t35 -1h3q19 0 35.5 1t26 1.5t11.5 0.5q13 0 13 -15t-6 -18t-31 -6q-20 -3 -29 -9t-23 -22q-85 -112 -85 -114t138 -177l5 -6.5t4 -4.5t4 -3.5t3.5 -2.5t4 -1.5t4 -1t6 -1.5t6.5 -1q10 -2 10 -12q0 -24 -15 -24q-2 0 -12.5 1t-28.5 2t-40 1t-40 -1t-28.5 -2t-12.5 -1 q-12 0 -12 17q0 11 5 15t21 6t24 4q12 4 12 13q0 2 -4 10q-92 114 -93 115h-1q-1 0 -2 1q-4 0 -34 -42l-44 -59q-14 -18 -14 -25q0 -14 27.5 -17t31.5 -8q2 -3 2 -10q0 -20 -13 -20q-2 0 -11 1t-25.5 2t-35.5 1t-35 -1t-25.5 -2.5t-11.5 -1.5q-10 0 -10 21q0 11 8 15t20 5.5 t18 5.5q2 1 9 11l82 107q35 45 35 49q0 3 -4 7q-115 143 -123 151q-7 7 -25 9t-18 22q0 17 13 17z" />
<glyph unicode="y" horiz-adv-x="468" d="M92 -223q-16 0 -27.5 10.5t-11.5 25.5q0 18 13 31t37.5 28.5t37.5 27.5q21 19 44 57t23 58q0 26 -111 248q-50 95 -55 102t-12.5 9.5t-12.5 2.5t-9 5t-4 16q0 17 14 17q2 0 12 -0.5t27.5 -1.5t38.5 -1t38.5 1t28 1.5t12.5 0.5q13 0 13 -16v-6.5t-1 -5t-1.5 -3.5t-3 -2.5 t-3.5 -2t-5 -1t-6 -1t-8 -1t-9 -0.5q-15 -2 -15 -14q0 -5 12.5 -37.5t39 -91.5t57.5 -117q0 -6 7 -6q3 0 5 2t3 4.5t2 3.5q82 196 82 235q0 6 -1.5 10t-3.5 6t-7 3.5t-8.5 1.5t-12.5 0.5t-15 1.5q-19 2 -19 19q0 18 19 18q2 0 12 -0.5t27.5 -1.5t38.5 -1h1q20 0 37.5 1 t27 1.5t11.5 0.5q12 0 12 -20q0 -10 -5.5 -13t-24.5 -5q-6 -1 -9 -1q-10 -1 -14 -7.5t-15 -37.5q-24 -67 -50 -132q-97 -236 -179 -360q-40 -62 -74 -62z" />
<glyph unicode="z" horiz-adv-x="361" d="M65 454h6q11 0 13 -18.5t15 -18.5h218q22 0 22 -15q0 -2 -6 -14q-225 -305 -226 -308q-1 -2 -1 -4q0 -11 16 -11h145q3 0 8.5 -0.5t6.5 -0.5q3 0 5 0.5l4 1t3.5 2t2.5 3t2 5t1.5 6t1.5 8t2 9.5t2.5 11.5t2.5 14.5q5 16 17 16q24 0 24 -17q0 -1 -1.5 -8.5t-3 -20.5 l-3.5 -30t-3.5 -39.5t-1.5 -44.5q0 -14 0.5 -26t0.5 -19v-9q0 -20 -30 -20q-17 0 -17 18v60q0 15 -17 15h-232q-30 0 -30 23q0 9 13 30l204 275q6 6 6 13q0 14 -20 14h-119q-9 0 -12 -5.5t-7 -24.5q-2 -9 -3 -15q-5 -16 -17 -16q-18 0 -18 13q0 1 1 6t2.5 14.5t3 21t2.5 28 t1 32.5v30q0 15 16 15z" />
<glyph unicode="{" horiz-adv-x="251" d="M45 256q0 1 14.5 9t29.5 31.5t15 62.5q0 38 -13.5 112t-13.5 115q0 71 33 102.5t74 31.5q24 0 24 -5q0 -1 -11 -6.5t-26 -21t-23 -37.5q-7 -21 -7 -46q0 -27 13.5 -89.5t13.5 -103.5q0 -42 -11.5 -79t-23 -57t-11.5 -21q0 -2 11 -18t21.5 -47t10.5 -69q0 -33 -14 -96 t-14 -94q0 -26 6.5 -48t16 -35.5t19 -22.5t15.5 -14l7 -5q0 -3 -16 -3q-42 0 -77 33.5t-35 107.5q0 40 16 107.5t16 97.5q0 19 -4 35.5t-10.5 27t-14 19.5t-13.5 14q-5 4 -11 7l-6 3q-1 1 -1 2z" />
<glyph unicode="|" horiz-adv-x="153" d="M77 -198h-4q-23 0 -23 13v890q0 13 24 13h2q27 0 27 -13v-890q0 -13 -26 -13z" />
<glyph unicode="}" horiz-adv-x="251" d="M177 586q0 -41 -13.5 -115t-13.5 -112q0 -20 4 -36.5t10 -26.5t13.5 -17.5t13.5 -10.5q5 -4 11 -6l6 -3q1 -1 1 -2q0 -4 -4 -5q-56 -31 -56 -104q0 -30 16 -97.5t16 -107.5q0 -74 -35 -107.5t-77 -33.5q-16 0 -16 3l7 5q6 5 15.5 14t19 22.5t16 35.5t6.5 48q0 31 -14 94 t-14 96q0 38 10.5 69t21.5 47t11 18t-4 10q-42 66 -42 147q0 41 13.5 103.5t13.5 89.5q0 25 -7 45t-16.5 31.5t-19.5 19t-17 11t-7 4.5q0 5 24 5q41 0 74 -31.5t33 -102.5z" />
<glyph unicode="~" horiz-adv-x="451" d="M40 173q-4 0 -10 7.5t-6 12.5q0 2 10 19t24.5 38t24.5 31q29 31 66 31q29 0 75 -29t75 -29q25 0 46.5 13.5t36 30t15.5 16.5q4 2 6 2q5 0 14.5 -5.5t9.5 -12.5q0 -6 -19 -32.5t-56 -54.5t-75 -28q-36 0 -77.5 29.5t-66.5 29.5q-44 0 -86 -64q-3 -5 -7 -5z" />
<glyph unicode="&#xa1;" horiz-adv-x="325" d="M132 -16q-10 0 -10 25v23q0 96 10.5 196.5t19.5 149.5t14 68q5 16 17 16q16 0 16 -33v-13l2 -71.5t2.5 -65t2.5 -58t2.5 -51.5t2.5 -43t2.5 -34.5l2.5 -24.5v-16l1 -6q0 -16 -13 -22q-68 -40 -72 -40zM160 572q-21 0 -36.5 15t-15.5 36t15 36t36 15t36.5 -14.5 t15.5 -36.5q0 -23 -15 -37t-36 -14z" />
<glyph unicode="&#xa8;" horiz-adv-x="255" d="M147 618q0 19 14.5 33t33.5 14q20 0 34 -13.5t14 -32.5q0 -20 -14 -34t-34 -14t-34 13.5t-14 33.5zM12 618q0 19 14.5 33t33.5 14q20 0 34 -13.5t14 -32.5q0 -20 -14 -34t-34 -14t-34 13.5t-14 33.5z" />
<glyph unicode="&#xa9;" horiz-adv-x="772" d="M386 27q124 0 214.5 88t90.5 218q0 124 -88.5 214t-217.5 90q-127 0 -215.5 -90t-88.5 -215q0 -128 90.5 -216.5t214.5 -88.5zM30 332q0 146 103.5 251.5t252.5 105.5q148 0 252 -105.5t104 -251.5q0 -145 -103 -250.5t-254 -105.5q-145 0 -250 103.5t-105 252.5z M550 384q-10 0 -14 7t-4 16.5t-4 24t-13 26.5q-50 62 -129 62q-67 0 -118 -51.5t-51 -136.5q0 -87 52 -146.5t126 -59.5q54 0 100.5 33.5t63.5 90.5q4 10 14 10q11 0 11 -10q-14 -83 -15 -98q-2 -18 -18 -18h-18q-7 0 -9.5 -1t-8 -5t-11.5 -7q-56 -33 -119 -33 q-98 0 -166 68.5t-68 163.5q0 96 69.5 165t167.5 69q37 0 65.5 -8t43 -16.5t17.5 -8.5q2 0 7 11.5t17 11.5q10 0 12 -10q17 -116 17 -133q0 -9 -3 -13t-14 -4z" />
<glyph unicode="&#xab;" horiz-adv-x="365" d="M185 334q6 0 11.5 -6.5t5.5 -12.5q0 -5 -61 -74l-36 -40q-3 -6 -3 -7q0 -5 95 -115q4 -4 4 -8q0 -6 -5.5 -12.5t-11.5 -6.5q-4 0 -156 132q-6 4 -6 9q0 4 7 11q152 130 156 130zM326 334q6 0 11.5 -6.5t5.5 -12.5q0 -5 -61 -74l-36 -40q-4 -4 -4 -7q0 -4 33.5 -43 l61.5 -72q4 -3 4 -8q0 -6 -5 -12.5t-11 -6.5q-5 0 -68 56l-88 76q-6 4 -6 9q0 6 7 11q153 129 156 130z" />
<glyph unicode="&#xac;" horiz-adv-x="701" d="M76 231q-23 0 -23 22v13q0 22 24 22h564q8 0 8 -9v-218q0 -20 -19 -20h-14q-24 0 -24 26v164h-516z" />
<glyph unicode="&#xad;" d="M199 335q16 0 16 -39q0 -14 -18 -28l-44 -31l-34.5 -25l-26.5 -19l-20.5 -14.5l-14.5 -10.5l-10.5 -7.5t-7 -4t-5.5 -2t-4 -0.5q-18 0 -18 26v14q0 10 3.5 14.5t15.5 13.5l97 68q64 45 71 45z" />
<glyph unicode="&#xae;" horiz-adv-x="519" d="M242 676q45 0 65.5 -20.5t20.5 -45.5q0 -24 -14.5 -40.5t-27.5 -21.5q29 -33 58 -80q12 -22 26 -22q4 0 8 4t8 4q6 0 6 -7q0 -6 -10 -17t-24 -11q-22 0 -40 27l-66 91q-2 5 -8 5h-26q-2 0 -2 -3v-83l-1 -2q0 -8 21.5 -9t21.5 -13q0 -11 -10 -11l-14 1q-14 1 -32 1 q-12 0 -22.5 -0.5t-16.5 -1t-7 -0.5q-10 0 -10 12q0 6 3.5 8t12.5 3q5 1 8 1q8 0 8 10v186q0 2 -0.5 3.5t-2 2.5t-2.5 2t-4 1.5t-5 1t-6.5 1t-7.5 1.5q-8 0 -8 8q0 9 8 9h12q17 0 43 2.5t37 2.5zM291 604q0 22 -15.5 37.5t-41.5 15.5q-21 0 -21 -6l1 -1v-86q0 -4 20 -4 q57 0 57 44zM258 372q72 0 123.5 51t51.5 121q0 72 -51.5 123.5t-123.5 51.5q-70 0 -121.5 -51.5t-51.5 -123.5q0 -70 51.5 -121t121.5 -51zM258 335q-86 0 -147 61.5t-61 147.5q0 88 61 149.5t147 61.5q88 0 149.5 -61.5t61.5 -149.5q0 -86 -62 -147.5t-149 -61.5z" />
<glyph unicode="&#xb0;" horiz-adv-x="212" d="M106 690q39 0 66.5 -29t27.5 -68q0 -40 -27.5 -68.5t-66.5 -28.5q-38 0 -66 28.5t-28 68.5t28 68.5t66 28.5zM106 653q-23 0 -38.5 -17.5t-15.5 -41.5q0 -25 16 -42.5t39 -17.5q24 0 39.5 18t15.5 41q0 24 -16.5 42t-39.5 18z" />
<glyph unicode="&#xb1;" horiz-adv-x="701" d="M76 280q-23 0 -23 22v14q0 22 24 22h245v193q0 16 20 16h14q14 0 18.5 -5t4.5 -16v-188h250q20 0 20 -20v-14q0 -24 -27 -24h-243v-191q0 -18 -21 -18h-14q-13 0 -17.5 4.5t-4.5 14.5v190h-246zM76 -12q-23 0 -23 22v13q0 22 24 22h552q20 0 20 -19v-14q0 -24 -27 -24 h-546z" />
<glyph unicode="&#xb4;" d="M175 701q15 0 26 -10.5t11 -26.5q0 -19 -24 -45q-130 -133 -139 -140q-7 -5 -15 -5q-9 0 -14 6t-5 14q0 10 26 48l32 47l47 70q27 42 55 42z" />
<glyph unicode="&#xb6;" horiz-adv-x="750" d="M444 315q0 51 5.5 99t13 81t15.5 58t13.5 39t5.5 15q0 10 -12 28t-19 18q-1 0 -5 -4q-70 -138 -70 -326q0 -59 9.5 -125t20.5 -106t17 -40q4 0 14.5 14t15.5 25q-24 132 -24 224zM439 665q0 6 -15.5 10t-27.5 4q-58 0 -102 -54t-68 -125q-28 -84 -28 -179v-1 q0 -131 45 -216.5t116 -85.5q17 0 35 6.5t18 14.5q0 2 -5 15t-12 36.5t-13.5 54t-11.5 75.5t-5 93q0 64 7.5 122.5t18.5 97.5t22 68t18.5 45.5t7.5 18.5zM647 633q0 10 11.5 21.5t11.5 19.5q0 7 -7 13.5t-21 6.5q-31 0 -58.5 -25t-40.5 -51q-62 -125 -62 -297v-4 q1 -133 29 -241.5t64 -164.5q32 -47 58 -62q5 -3 19.5 -4.5t24 -5.5t9.5 -16t-11.5 -19.5t-26.5 -7.5h-4q-28 0 -58 29q-24 23 -57 85q-30 58 -51 132q-2 -2 -10.5 -9.5t-11.5 -9.5t-12 -8.5t-15 -9l-17.5 -7.5t-22.5 -7t-26.5 -4.5t-33.5 -3.5q-4 0 -10 -0.5t-10 -0.5 q-124 0 -203 90.5t-79 222.5q0 87 33 166t86 132.5t117.5 85t127.5 31.5q41 0 72.5 -13.5t46.5 -27t16 -13.5q3 0 8.5 7t19.5 21.5t35 26.5q36 22 69 22q32 0 49.5 -18.5t17.5 -41.5q0 -26 -18 -43.5t-36 -17.5q-9 0 -16 6t-7 15z" />
<glyph unicode="&#xb7;" d="M113 318q24 0 42 -17.5t18 -41.5t-17 -41t-42 -17q-24 0 -42 17t-18 42t17.5 41.5t41.5 16.5z" />
<glyph unicode="&#xb8;" horiz-adv-x="199" d="M101 -199q-22 0 -48.5 5t-30.5 8q-3 3 -3 7q0 2 1 7t4.5 11t8.5 6l3 -1q4 -1 10 -2l12 -2t13.5 -2t12.5 -1q17 0 27.5 9t10.5 24q0 20 -20 34.5t-51 16.5q-5 0 -5 3q0 2 32 81h31q-2 -7 -6 -19l-7 -21l-3 -9q0 -3 4 -3h2q37 0 60.5 -20t23.5 -56q0 -31 -18.5 -53.5 t-63.5 -22.5z" />
<glyph unicode="&#xbb;" horiz-adv-x="365" d="M180 334q4 0 49 -39l107 -91q6 -4 6 -11q0 -6 -6 -9l-56 -49q-95 -83 -100 -83t-10.5 6t-5.5 12q0 4 39 49l57 66q3 5 3 8t-3 8l-58 65q-40 45 -40 49q0 7 6 13t12 6zM40 334q4 0 67 -54l87 -76q8 -5 8 -11q0 -4 -6 -9l-56 -49q-95 -83 -100 -83q-6 0 -11 5.5t-5 12.5 q0 6 94 115q5 5 5 9q0 2 -3 7l-94 104q-4 6 -4 10q0 7 6 13t12 6z" />
<glyph unicode="&#xbf;" horiz-adv-x="380" d="M193 572q-24 0 -42 17.5t-18 41.5t17.5 41.5t42.5 17.5q24 0 42 -17t18 -43q0 -25 -18 -41.5t-42 -16.5zM192 -16q-87 0 -132 46.5t-45 100.5q0 34 17 64t41.5 53l49 47t41.5 56.5t17 71.5q0 5 -0.5 12t-0.5 10q0 18 8.5 27t17.5 9q27 0 27 -55q0 -44 -21 -86t-45.5 -70 t-45.5 -67t-21 -77q0 -43 25 -73.5t62 -30.5q21 0 36.5 11.5t22.5 25.5t19.5 25.5t29.5 11.5q18 0 30 -13t12 -31q0 -45 -64 -59q-39 -9 -81 -9z" />
<glyph unicode="&#xc0;" horiz-adv-x="821" d="M288 862q0 16 11.5 26t27.5 10q22 0 52 -23q149 -108 153 -114q4 -8 4 -13q0 -9 -6 -14t-14 -5h-1q-6 0 -186 86l-5 2l-6 3t-6.5 4t-7 5t-6 6t-5.5 7.5t-3.5 9t-1.5 10.5zM137 0q-17 0 -33.5 -0.5t-29 -1.5t-23 -2l-16 -1.5t-6.5 -0.5q-20 0 -20 21q0 4 0.5 7.5t1 6 t2.5 4.5l3 3t4 2.5t5 2l6 1.5t6.5 1t8 1t8.5 1q24 3 35 12.5t22 35.5q74 165 153 320l74 141l64 120t16 23l1 1q11 8 24 8q27 0 42 -38l144 -332q109 -265 111 -268q13 -20 42.5 -24t32.5 -15q2 -8 2 -13q0 -22 -20 -22l-17 2q-16 2 -43.5 3t-54.5 1q-32 0 -58.5 -1.5 t-42 -3t-18.5 -1.5q-20 0 -20 17q0 5 0.5 9t2 7t2 5t4 4t6 2.5t8 1.5t9.5 1.5l12.5 1.5t14.5 2q20 4 20 19t-24 89.5t-51 136.5q-4 10 -18 10h-235q-16 0 -23 -12q-34 -63 -60.5 -131t-26.5 -85q0 -4 0.5 -7.5t1.5 -6t3.5 -4.5l4.5 -3.5t6 -3t6.5 -2t8.5 -1.5t9.5 -1.5 t11 -1t11.5 -1.5q22 -2 22 -24t-22 -22q-3 0 -17 1.5t-39 3t-54 1.5zM509 352q9 0 9 7q0 8 -38.5 98t-49.5 108q-4 7 -11 7q-9 0 -19 -17q-102 -191 -102 -199q0 -4 6 -4h205z" />
<glyph unicode="&#xc1;" horiz-adv-x="821" d="M567 897q16 0 28 -10.5t12 -25.5q0 -13 -9 -24t-14 -13.5t-18 -9.5q-181 -86 -187 -86q-8 0 -14 5.5t-6 14.5q0 13 19 26l138 100q30 23 51 23zM137 0q-17 0 -33.5 -0.5t-29 -1.5t-23 -2l-16 -1.5t-6.5 -0.5q-20 0 -20 21q0 4 0.5 7.5t1 6t2.5 4.5l3 3t4 2.5t5 2l6 1.5 t6.5 1t8 1t8.5 1q24 3 35 12.5t22 35.5q74 165 153 320l74 141l64 120t16 23l1 1q11 8 24 8q27 0 42 -38l144 -332q109 -265 111 -268q13 -20 42.5 -24t32.5 -15q2 -8 2 -13q0 -22 -20 -22l-17 2q-16 2 -43.5 3t-54.5 1q-32 0 -58.5 -1.5t-42 -3t-18.5 -1.5q-20 0 -20 17 q0 5 0.5 9t2 7t2 5t4 4t6 2.5t8 1.5t9.5 1.5l12.5 1.5t14.5 2q20 4 20 19t-24 89.5t-51 136.5q-4 10 -18 10h-235q-16 0 -23 -12q-34 -63 -60.5 -131t-26.5 -85q0 -4 0.5 -7.5t1.5 -6t3.5 -4.5l4.5 -3.5t6 -3t6.5 -2t8.5 -1.5t9.5 -1.5t11 -1t11.5 -1.5q22 -2 22 -24 t-22 -22q-3 0 -17 1.5t-39 3t-54 1.5zM509 352q9 0 9 7q0 8 -38.5 98t-49.5 108q-4 7 -11 7q-9 0 -19 -17q-102 -191 -102 -199q0 -4 6 -4h205z" />
<glyph unicode="&#xc2;" horiz-adv-x="821" d="M334 728q-15 0 -15 14q0 7 36 51l50 62q18 24 38 24q12 0 25 -14l56 -69q38 -46 38 -53q0 -5 -4 -10t-12 -5q-12 0 -26 14l-21 17.5l-16.5 14.5t-12 10l-10 7.5t-7.5 5t-6.5 3t-5.5 0.5q-13 0 -54 -36t-53 -36zM137 0q-17 0 -33.5 -0.5t-29 -1.5t-23 -2l-16 -1.5 t-6.5 -0.5q-20 0 -20 21q0 4 0.5 7.5t1 6t2.5 4.5l3 3t4 2.5t5 2l6 1.5t6.5 1t8 1t8.5 1q24 3 35 12.5t22 35.5q74 165 153 320l74 141l64 120t16 23l1 1q11 8 24 8q27 0 42 -38l144 -332q109 -265 111 -268q13 -20 42.5 -24t32.5 -15q2 -8 2 -13q0 -22 -20 -22l-17 2 q-16 2 -43.5 3t-54.5 1q-32 0 -58.5 -1.5t-42 -3t-18.5 -1.5q-20 0 -20 17q0 5 0.5 9t2 7t2 5t4 4t6 2.5t8 1.5t9.5 1.5l12.5 1.5t14.5 2q20 4 20 19t-24 89.5t-51 136.5q-4 10 -18 10h-235q-16 0 -23 -12q-34 -63 -60.5 -131t-26.5 -85q0 -4 0.5 -7.5t1.5 -6t3.5 -4.5 l4.5 -3.5t6 -3t6.5 -2t8.5 -1.5t9.5 -1.5t11 -1t11.5 -1.5q22 -2 22 -24t-22 -22q-3 0 -17 1.5t-39 3t-54 1.5zM509 352q9 0 9 7q0 8 -38.5 98t-49.5 108q-4 7 -11 7q-9 0 -19 -17q-102 -191 -102 -199q0 -4 6 -4h205z" />
<glyph unicode="&#xc3;" horiz-adv-x="821" d="M492 799q20 0 37 11.5t27 23t14 11.5t11.5 -4t7.5 -9q0 -6 -19.5 -29t-36.5 -36q-28 -22 -58 -22q-27 0 -57.5 22.5t-49.5 22.5t-34.5 -13t-24.5 -26t-11 -13q-3 0 -8 5.5t-5 9.5q0 3 17.5 29.5t27.5 36.5q23 23 50 23q22 0 56 -21.5t56 -21.5zM137 0q-17 0 -33.5 -0.5 t-29 -1.5t-23 -2l-16 -1.5t-6.5 -0.5q-20 0 -20 21q0 4 0.5 7.5t1 6t2.5 4.5l3 3t4 2.5t5 2l6 1.5t6.5 1t8 1t8.5 1q24 3 35 12.5t22 35.5q74 165 153 320l74 141l64 120t16 23l1 1q11 8 24 8q27 0 42 -38l144 -332q109 -265 111 -268q13 -20 42.5 -24t32.5 -15q2 -8 2 -13 q0 -22 -20 -22l-17 2q-16 2 -43.5 3t-54.5 1q-32 0 -58.5 -1.5t-42 -3t-18.5 -1.5q-20 0 -20 17q0 5 0.5 9t2 7t2 5t4 4t6 2.5t8 1.5t9.5 1.5l12.5 1.5t14.5 2q20 4 20 19t-24 89.5t-51 136.5q-4 10 -18 10h-235q-16 0 -23 -12q-34 -63 -60.5 -131t-26.5 -85q0 -4 0.5 -7.5 t1.5 -6t3.5 -4.5l4.5 -3.5t6 -3t6.5 -2t8.5 -1.5t9.5 -1.5t11 -1t11.5 -1.5q22 -2 22 -24t-22 -22q-3 0 -17 1.5t-39 3t-54 1.5zM509 352q9 0 9 7q0 8 -38.5 98t-49.5 108q-4 7 -11 7q-9 0 -19 -17q-102 -191 -102 -199q0 -4 6 -4h205z" />
<glyph unicode="&#xc4;" horiz-adv-x="821" d="M460 775q0 19 14.5 33t33.5 14q20 0 34 -13.5t14 -32.5q0 -20 -14 -34t-34 -14t-34 13.5t-14 33.5zM325 775q0 19 14.5 33t33.5 14q20 0 34 -13.5t14 -32.5q0 -20 -14 -34t-34 -14t-34 13.5t-14 33.5zM137 0q-17 0 -33.5 -0.5t-29 -1.5t-23 -2l-16 -1.5t-6.5 -0.5 q-20 0 -20 21q0 4 0.5 7.5t1 6t2.5 4.5l3 3t4 2.5t5 2l6 1.5t6.5 1t8 1t8.5 1q24 3 35 12.5t22 35.5q74 165 153 320l74 141l64 120t16 23l1 1q11 8 24 8q27 0 42 -38l144 -332q109 -265 111 -268q13 -20 42.5 -24t32.5 -15q2 -8 2 -13q0 -22 -20 -22l-17 2q-16 2 -43.5 3 t-54.5 1q-32 0 -58.5 -1.5t-42 -3t-18.5 -1.5q-20 0 -20 17q0 5 0.5 9t2 7t2 5t4 4t6 2.5t8 1.5t9.5 1.5l12.5 1.5t14.5 2q20 4 20 19t-24 89.5t-51 136.5q-4 10 -18 10h-235q-16 0 -23 -12q-34 -63 -60.5 -131t-26.5 -85q0 -4 0.5 -7.5t1.5 -6t3.5 -4.5l4.5 -3.5t6 -3 t6.5 -2t8.5 -1.5t9.5 -1.5t11 -1t11.5 -1.5q22 -2 22 -24t-22 -22q-3 0 -17 1.5t-39 3t-54 1.5zM509 352q9 0 9 7q0 8 -38.5 98t-49.5 108q-4 7 -11 7q-9 0 -19 -17q-102 -191 -102 -199q0 -4 6 -4h205z" />
<glyph unicode="&#xc5;" horiz-adv-x="821" d="M443 889q36 0 60.5 -26t24.5 -62q0 -37 -25 -62.5t-60 -25.5t-60 25.5t-25 62.5q0 36 25 62t60 26zM443 851q-19 0 -32 -14.5t-13 -34.5t13.5 -35t32.5 -15t32 15t13 34t-13.5 34.5t-32.5 15.5zM137 0q-17 0 -33.5 -0.5t-29 -1.5t-23 -2l-16 -1.5t-6.5 -0.5q-20 0 -20 21 q0 4 0.5 7.5t1 6t2.5 4.5l3 3t4 2.5t5 2l6 1.5t6.5 1t8 1t8.5 1q24 3 35 12.5t22 35.5q74 165 153 320l74 141l64 120t16 23l1 1q11 8 24 8q27 0 42 -38l144 -332q109 -265 111 -268q13 -20 42.5 -24t32.5 -15q2 -8 2 -13q0 -22 -20 -22l-17 2q-16 2 -43.5 3t-54.5 1 q-32 0 -58.5 -1.5t-42 -3t-18.5 -1.5q-20 0 -20 17q0 5 0.5 9t2 7t2 5t4 4t6 2.5t8 1.5t9.5 1.5l12.5 1.5t14.5 2q20 4 20 19t-24 89.5t-51 136.5q-4 10 -18 10h-235q-16 0 -23 -12q-34 -63 -60.5 -131t-26.5 -85q0 -4 0.5 -7.5t1.5 -6t3.5 -4.5l4.5 -3.5t6 -3t6.5 -2 t8.5 -1.5t9.5 -1.5t11 -1t11.5 -1.5q22 -2 22 -24t-22 -22q-3 0 -17 1.5t-39 3t-54 1.5zM509 352q9 0 9 7q0 8 -38.5 98t-49.5 108q-4 7 -11 7q-9 0 -19 -17q-102 -191 -102 -199q0 -4 6 -4h205z" />
<glyph unicode="&#xc6;" horiz-adv-x="1010" d="M508 352q9 0 9 9v258q-1 12 -10 12q-6 0 -11 -5q-30 -30 -102.5 -145.5t-72.5 -124.5q0 -4 9 -4h178zM308 675q0 26 14 26q3 0 15.5 -1t45 -3t76.5 -4q21 -1 133.5 -1h214t105.5 -1q10 -3 12 -16q3 -19 10.5 -51l13 -55.5t5.5 -24.5q0 -8 -8 -13.5t-17 -5.5q-13 0 -19 10 q-3 5 -23 46.5t-24 47.5q-6 9 -32 9h-191q-15 0 -22 -7t-8 -14t-1 -21v-147q0 -22 20 -22h153q25 0 31.5 9.5t6.5 36.5v18q0 22 27 22t27 -29v-184q0 -29 -27 -29t-27 22v39q0 24 -4.5 30.5t-21.5 6.5h-138q-15 0 -24 -2t-17 -11t-8 -27v-221q0 -25 5 -34t27 -12 q43 -7 94 -7q50 0 91.5 6.5t51.5 14.5q9 7 35 54.5t34 52.5q4 3 10 3q18 0 18 -23q0 -6 -31 -143q-3 -14 -10 -17t-25 -3h-335q-48 0 -78.5 -1.5t-43 -3t-15.5 -1.5q-17 0 -17 21q0 15 12.5 21t28.5 6t32.5 5t22.5 18q4 8 4 29v197q-1 9 -11 9h-166q-38 0 -45 -1.5t-12 -9.5 q-39 -62 -71 -131.5t-32 -85.5q0 -6 1.5 -10.5t5 -7.5t7 -4.5t11 -3t13 -2.5t16.5 -2.5l18 -2.5q18 -2 18 -23q0 -22 -17 -22l-17 2q-18 2 -47 3t-57 1q-18 0 -36.5 -0.5t-32.5 -1.5t-25.5 -2t-18 -1.5t-7.5 -0.5q-16 0 -16 21q0 17 11 21q4 1 19 3.5t28.5 7t22.5 12.5 t23 33.5l55 100t98 167.5l69.5 110t50 74.5l30.5 43t17.5 25.5t4.5 12q0 3 -1 5.5t-3.5 4l-5 3t-7.5 3t-10 2.5t-13.5 2t-15.5 2t-19 2.5t-22 3.5q-20 3 -20 22z" />
<glyph unicode="&#xc7;" horiz-adv-x="700" d="M363 -23q-146 7 -245 111.5t-99 246.5q0 74 30.5 142t80.5 117q107 102 255 102h1q53 0 98.5 -13t70.5 -26.5t27 -13.5q8 0 13.5 16.5t15.5 19.5q2 0 6 0.5t5 0.5q11 0 13 -12l7 -51q6 -51 13 -104t7 -57q0 -17 -20 -17q-17 0 -21 6t-7 30q-1 7 -1 11q-6 40 -26 66 q-34 43 -86.5 70.5t-117.5 27.5q-108 0 -188 -81.5t-80 -214.5q0 -138 82 -232.5t199 -94.5q88 0 161 54t100 143q4 13 15 13q16 0 16 -11q-22 -156 -25 -163q-4 -16 -22 -16h-1h-28q-9 0 -15 -1.5t-9.5 -3.5t-10 -7.5t-12.5 -8.5q-79 -45 -169 -50l-6 -16q0 -3 4 -3h3 q37 0 60.5 -20t23.5 -56v-1q0 -30 -19 -52.5t-63 -22.5q-22 0 -49 5t-30 8q-4 3 -4 7q0 2 1 7t4.5 11t8.5 6l4 -1q4 -1 9.5 -2t12 -2t14 -2t12.5 -1q17 0 27.5 9t10.5 23q0 20 -20 35t-51 17q-5 0 -5 3t19 49z" />
<glyph unicode="&#xc8;" horiz-adv-x="578" d="M161 862q0 16 11.5 26t27.5 10q22 0 52 -23q149 -108 153 -114q4 -8 4 -13q0 -9 -6 -14t-14 -5h-1q-6 0 -186 86l-4 2q-4 2 -6.5 3t-7 4t-7 5t-6 6t-5.5 7.5t-3.5 9t-1.5 10.5zM436 513q28 0 28 -29v-184q0 -29 -28 -29q-27 0 -27 22v54q0 22 -26 22h-138q-15 0 -23.5 -2 t-17 -11t-8.5 -27v-229q0 -34 32 -38q43 -7 93 -7q34 0 82.5 5.5t61.5 15.5q9 7 35 54.5t34 52.5q6 3 10 3q6 0 12 -6t6 -17v-1q0 -4 -31 -142q-2 -11 -8.5 -15.5t-21.5 -4.5h-344q-45 0 -83.5 -6t-40.5 -6q-12 0 -18 11t-6 19q0 11 7 15.5t40 16.5l29 11q14 5 18 13t4 26 v521q0 11 -4.5 14t-22.5 6q-9 1 -21.5 2t-19 2t-13 3.5t-9.5 7.5t-3 13q0 22 19 22h460q17 0 22 -16q4 -19 11.5 -52l12.5 -56t5 -25q0 -15 -21 -15q-15 0 -28 18q-44 78 -50 84q-8 9 -28 9h-188q-14 0 -21 -6t-8.5 -13t-1.5 -19v-151q0 -22 20 -22h153q11 0 18 1.5t13.5 9 t6.5 22.5v31q0 22 27 22z" />
<glyph unicode="&#xc9;" horiz-adv-x="578" d="M370 897q16 0 28 -10.5t12 -25.5q0 -13 -9 -24t-14 -13.5t-18 -9.5q-181 -86 -187 -86q-8 0 -14 5.5t-6 14.5q0 13 19 26l138 100q30 23 51 23zM436 513q28 0 28 -29v-184q0 -29 -28 -29q-27 0 -27 22v54q0 22 -26 22h-138q-15 0 -23.5 -2t-17 -11t-8.5 -27v-229 q0 -34 32 -38q43 -7 93 -7q34 0 82.5 5.5t61.5 15.5q9 7 35 54.5t34 52.5q6 3 10 3q6 0 12 -6t6 -17v-1q0 -4 -31 -142q-2 -11 -8.5 -15.5t-21.5 -4.5h-344q-45 0 -83.5 -6t-40.5 -6q-12 0 -18 11t-6 19q0 11 7 15.5t40 16.5l29 11q14 5 18 13t4 26v521q0 11 -4.5 14 t-22.5 6q-9 1 -21.5 2t-19 2t-13 3.5t-9.5 7.5t-3 13q0 22 19 22h460q17 0 22 -16q4 -19 11.5 -52l12.5 -56t5 -25q0 -15 -21 -15q-15 0 -28 18q-44 78 -50 84q-8 9 -28 9h-188q-14 0 -21 -6t-8.5 -13t-1.5 -19v-151q0 -22 20 -22h153q11 0 18 1.5t13.5 9t6.5 22.5v31 q0 22 27 22z" />
<glyph unicode="&#xca;" horiz-adv-x="578" d="M179 728q-15 0 -15 14q0 7 36 51l50 62q18 24 38 24q12 0 25 -14l56 -69q38 -46 38 -53q0 -5 -4 -10t-12 -5q-12 0 -26 14l-21 17.5l-16.5 14.5t-12 10l-10 7.5t-7.5 5t-6.5 3t-5.5 0.5q-13 0 -54 -36t-53 -36zM436 513q28 0 28 -29v-184q0 -29 -28 -29q-27 0 -27 22v54 q0 22 -26 22h-138q-15 0 -23.5 -2t-17 -11t-8.5 -27v-229q0 -34 32 -38q43 -7 93 -7q34 0 82.5 5.5t61.5 15.5q9 7 35 54.5t34 52.5q6 3 10 3q6 0 12 -6t6 -17v-1q0 -4 -31 -142q-2 -11 -8.5 -15.5t-21.5 -4.5h-344q-45 0 -83.5 -6t-40.5 -6q-12 0 -18 11t-6 19q0 11 7 15.5 t40 16.5l29 11q14 5 18 13t4 26v521q0 11 -4.5 14t-22.5 6q-9 1 -21.5 2t-19 2t-13 3.5t-9.5 7.5t-3 13q0 22 19 22h460q17 0 22 -16q4 -19 11.5 -52l12.5 -56t5 -25q0 -15 -21 -15q-15 0 -28 18q-44 78 -50 84q-8 9 -28 9h-188q-14 0 -21 -6t-8.5 -13t-1.5 -19v-151 q0 -22 20 -22h153q11 0 18 1.5t13.5 9t6.5 22.5v31q0 22 27 22z" />
<glyph unicode="&#xcb;" horiz-adv-x="578" d="M305 775q0 19 14.5 33t33.5 14q20 0 34 -13.5t14 -32.5q0 -20 -14 -34t-34 -14t-34 13.5t-14 33.5zM170 775q0 19 14.5 33t33.5 14q20 0 34 -13.5t14 -32.5q0 -20 -14 -34t-34 -14t-34 13.5t-14 33.5zM436 513q28 0 28 -29v-184q0 -29 -28 -29q-27 0 -27 22v54 q0 22 -26 22h-138q-15 0 -23.5 -2t-17 -11t-8.5 -27v-229q0 -34 32 -38q43 -7 93 -7q34 0 82.5 5.5t61.5 15.5q9 7 35 54.5t34 52.5q6 3 10 3q6 0 12 -6t6 -17v-1q0 -4 -31 -142q-2 -11 -8.5 -15.5t-21.5 -4.5h-344q-45 0 -83.5 -6t-40.5 -6q-12 0 -18 11t-6 19q0 11 7 15.5 t40 16.5l29 11q14 5 18 13t4 26v521q0 11 -4.5 14t-22.5 6q-9 1 -21.5 2t-19 2t-13 3.5t-9.5 7.5t-3 13q0 22 19 22h460q17 0 22 -16q4 -19 11.5 -52l12.5 -56t5 -25q0 -15 -21 -15q-15 0 -28 18q-44 78 -50 84q-8 9 -28 9h-188q-14 0 -21 -6t-8.5 -13t-1.5 -19v-151 q0 -22 20 -22h153q11 0 18 1.5t13.5 9t6.5 22.5v31q0 22 27 22z" />
<glyph unicode="&#xcc;" horiz-adv-x="323" d="M35 862q0 16 11.5 26t27.5 10q22 0 52 -23q149 -108 153 -114q4 -8 4 -13q0 -9 -6 -14t-14 -5h-1q-6 0 -186 86l-4 2q-4 2 -6.5 3t-7 4t-7 5t-6 6t-5.5 7.5t-3.5 9t-1.5 10.5zM52 680l16 -1q16 -1 44 -2.5t55 -1.5q28 0 51.5 1t36.5 2t16 1q17 0 17 -19q0 -5 -0.5 -8.5 t-1 -6t-2.5 -4.5l-3.5 -3.5t-5 -2.5t-6 -2t-8.5 -1.5t-10 -1t-12 -1t-14 -1.5q-16 -1 -16 -17v-540q0 -23 18 -25q10 -1 22 -1.5t18.5 -0.5t14 -1t11 -2t7 -3.5t5 -6t1.5 -8.5q0 -29 -20 -29q-1 0 -8 0.5t-19 1.5t-27 2t-34.5 1.5t-38.5 0.5t-39 -0.5t-34.5 -1.5t-27 -2 t-19.5 -1.5t-8 -0.5q-15 0 -17 23q-1 3 -1 9q0 12 8.5 15t42.5 5q20 1 33 2q21 1 21 28v520q0 3 0.5 8t0.5 6q0 13 -8.5 16t-36.5 4q-13 1 -21 1q-23 2 -23 21q0 28 22 28z" />
<glyph unicode="&#xcd;" horiz-adv-x="323" d="M243 897q16 0 28 -10.5t12 -25.5q0 -13 -9 -24t-14 -13.5t-18 -9.5q-181 -86 -187 -86q-8 0 -14 5.5t-6 14.5q0 13 19 26l138 100q30 23 51 23zM52 680l16 -1q16 -1 44 -2.5t55 -1.5q28 0 51.5 1t36.5 2t16 1q17 0 17 -19q0 -5 -0.5 -8.5t-1 -6t-2.5 -4.5l-3.5 -3.5 t-5 -2.5t-6 -2t-8.5 -1.5t-10 -1t-12 -1t-14 -1.5q-16 -1 -16 -17v-540q0 -23 18 -25q10 -1 22 -1.5t18.5 -0.5t14 -1t11 -2t7 -3.5t5 -6t1.5 -8.5q0 -29 -20 -29q-1 0 -8 0.5t-19 1.5t-27 2t-34.5 1.5t-38.5 0.5t-39 -0.5t-34.5 -1.5t-27 -2t-19.5 -1.5t-8 -0.5 q-15 0 -17 23q-1 3 -1 9q0 12 8.5 15t42.5 5q20 1 33 2q21 1 21 28v520q0 3 0.5 8t0.5 6q0 13 -8.5 16t-36.5 4q-13 1 -21 1q-23 2 -23 21q0 28 22 28z" />
<glyph unicode="&#xce;" horiz-adv-x="323" d="M53 728q-15 0 -15 14q0 7 36 51l50 62q18 24 38 24q12 0 25 -14l56 -69q38 -46 38 -53q0 -5 -4 -10t-12 -5q-12 0 -26 14l-21 17.5l-16.5 14.5t-12 10l-10 7.5t-7.5 5t-6.5 3t-5.5 0.5q-13 0 -54 -36t-53 -36zM52 680l16 -1q16 -1 44 -2.5t55 -1.5q28 0 51.5 1t36.5 2 t16 1q17 0 17 -19q0 -5 -0.5 -8.5t-1 -6t-2.5 -4.5l-3.5 -3.5t-5 -2.5t-6 -2t-8.5 -1.5t-10 -1t-12 -1t-14 -1.5q-16 -1 -16 -17v-540q0 -23 18 -25q10 -1 22 -1.5t18.5 -0.5t14 -1t11 -2t7 -3.5t5 -6t1.5 -8.5q0 -29 -20 -29q-1 0 -8 0.5t-19 1.5t-27 2t-34.5 1.5 t-38.5 0.5t-39 -0.5t-34.5 -1.5t-27 -2t-19.5 -1.5t-8 -0.5q-15 0 -17 23q-1 3 -1 9q0 12 8.5 15t42.5 5q20 1 33 2q21 1 21 28v520q0 3 0.5 8t0.5 6q0 13 -8.5 16t-36.5 4q-13 1 -21 1q-23 2 -23 21q0 28 22 28z" />
<glyph unicode="&#xcf;" horiz-adv-x="323" d="M179 775q0 19 14.5 33t33.5 14q20 0 34 -13.5t14 -32.5q0 -20 -14 -34t-34 -14t-34 13.5t-14 33.5zM44 775q0 19 14.5 33t33.5 14q20 0 34 -13.5t14 -32.5q0 -20 -14 -34t-34 -14t-34 13.5t-14 33.5zM52 680l16 -1q16 -1 44 -2.5t55 -1.5q28 0 51.5 1t36.5 2t16 1 q17 0 17 -19q0 -5 -0.5 -8.5t-1 -6t-2.5 -4.5l-3.5 -3.5t-5 -2.5t-6 -2t-8.5 -1.5t-10 -1t-12 -1t-14 -1.5q-16 -1 -16 -17v-540q0 -23 18 -25q10 -1 22 -1.5t18.5 -0.5t14 -1t11 -2t7 -3.5t5 -6t1.5 -8.5q0 -29 -20 -29q-1 0 -8 0.5t-19 1.5t-27 2t-34.5 1.5t-38.5 0.5 t-39 -0.5t-34.5 -1.5t-27 -2t-19.5 -1.5t-8 -0.5q-15 0 -17 23q-1 3 -1 9q0 12 8.5 15t42.5 5q20 1 33 2q21 1 21 28v520q0 3 0.5 8t0.5 6q0 13 -8.5 16t-36.5 4q-13 1 -21 1q-23 2 -23 21q0 28 22 28z" />
<glyph unicode="&#xd1;" horiz-adv-x="799" d="M455 789q20 0 37 11.5t27 23t14 11.5t11.5 -4t7.5 -9q0 -6 -19.5 -29t-36.5 -36q-28 -22 -58 -22q-27 0 -57.5 22.5t-49.5 22.5t-35 -13t-24.5 -26t-10.5 -13q-3 0 -8 5.5t-5 9.5q0 3 17.5 29.5t27.5 36.5q23 23 50 23q23 0 56 -21.5t56 -21.5zM791 658q0 -17 -14 -21.5 t-31.5 -2.5t-31.5 -11.5t-14 -46.5q-4 -180 -4 -271q0 -74 1 -137.5t2 -99.5t1 -44q0 -47 -20 -47q-12 0 -49 42l-207 236q-219 244 -222 244l-4 -4q-13 -190 -13 -355v-29q0 -40 7 -51.5t38 -13.5q36 0 61 -7q13 -7 13 -26t-17 -19q-1 0 -8 0.5t-18.5 1.5t-25.5 2t-33 1.5 t-37 0.5q-29 0 -59 -2q-28 0 -46 -2l-18 -2q-21 0 -21 20q0 21 15 26q6 2 26.5 3.5t36 7.5t22.5 21q4 10 18 281l10 189v3v1q0 14 -33 44q-39 39 -89 43q-18 0 -18 22q0 26 22 26h123q24 0 40 -19l157 -182l91 -102q184 -199 192 -204q2 -2 4 -2q7 0 7 10q2 72 2 107 q0 151 -9 298q-1 30 -14 37.5t-51 11.5q-22 3 -22 21q0 9 7 16.5t22 7.5q2 0 14.5 -0.5t34 -1.5t47.5 -1q25 0 46.5 1t33.5 1.5t14 0.5q21 0 21 -23z" />
<glyph unicode="&#xd2;" horiz-adv-x="778" d="M265 863q0 16 11.5 26t27.5 10q22 0 52 -23q149 -108 153 -114q4 -8 4 -13q0 -9 -6 -14t-14 -5h-1q-6 0 -186 86q-41 20 -41 47zM760 337q0 -155 -105 -258t-254 -103q-73 0 -143.5 28.5t-123.5 79.5q-114 110 -116 269q0 152 109 259.5t260 107.5q158 0 265.5 -113.5 t107.5 -269.5zM113 384q0 -90 30.5 -167.5t97 -130t156.5 -52.5q36 0 71.5 9t70.5 31t62 54t43.5 81t16.5 110q0 80 -26.5 155.5t-83.5 125.5q-76 67 -180 67t-181 -72.5t-77 -210.5z" />
<glyph unicode="&#xd3;" horiz-adv-x="778" d="M473 899q16 0 28 -10.5t12 -25.5q0 -13 -9 -24t-14 -13.5t-18 -9.5q-181 -86 -187 -86q-8 0 -14 5.5t-6 14.5q0 13 19 26l138 100q30 23 51 23zM760 337q0 -155 -105 -258t-254 -103q-73 0 -143.5 28.5t-123.5 79.5q-114 110 -116 269q0 152 109 259.5t260 107.5 q158 0 265.5 -113.5t107.5 -269.5zM113 384q0 -90 30.5 -167.5t97 -130t156.5 -52.5q36 0 71.5 9t70.5 31t62 54t43.5 81t16.5 110q0 80 -26.5 155.5t-83.5 125.5q-76 67 -180 67t-181 -72.5t-77 -210.5z" />
<glyph unicode="&#xd4;" horiz-adv-x="778" d="M283 730q-15 0 -15 14q0 7 36 51l50 62q18 24 38 24q12 0 25 -14l56 -69q38 -46 38 -53q0 -5 -4 -10t-12 -5q-12 0 -26 14l-21 17.5l-16.5 14.5t-12 10l-10 7.5t-7.5 5t-6.5 3t-5.5 0.5q-13 0 -54 -36t-53 -36zM760 337q0 -155 -105 -258t-254 -103q-73 0 -143.5 28.5 t-123.5 79.5q-114 110 -116 269q0 152 109 259.5t260 107.5q158 0 265.5 -113.5t107.5 -269.5zM113 384q0 -90 30.5 -167.5t97 -130t156.5 -52.5q36 0 71.5 9t70.5 31t62 54t43.5 81t16.5 110q0 80 -26.5 155.5t-83.5 125.5q-76 67 -180 67t-181 -72.5t-77 -210.5z" />
<glyph unicode="&#xd5;" horiz-adv-x="778" d="M444 801q20 0 37 11.5t27 23t14 11.5t11.5 -4t7.5 -9q0 -6 -19.5 -29t-36.5 -36q-28 -22 -58 -22q-27 0 -57.5 22.5t-49.5 22.5t-34.5 -13t-24.5 -26t-11 -13q-3 0 -8 5.5t-5 9.5q0 3 17.5 29.5t27.5 36.5q23 23 50 23q22 0 56 -21.5t56 -21.5zM760 337q0 -155 -105 -258 t-254 -103q-73 0 -143.5 28.5t-123.5 79.5q-114 110 -116 269q0 152 109 259.5t260 107.5q158 0 265.5 -113.5t107.5 -269.5zM113 384q0 -90 30.5 -167.5t97 -130t156.5 -52.5q36 0 71.5 9t70.5 31t62 54t43.5 81t16.5 110q0 80 -26.5 155.5t-83.5 125.5q-76 67 -180 67 t-181 -72.5t-77 -210.5z" />
<glyph unicode="&#xd6;" horiz-adv-x="778" d="M409 787q0 19 14.5 33t33.5 14q20 0 34 -13.5t14 -32.5q0 -20 -14 -34t-34 -14t-34 13.5t-14 33.5zM274 787q0 19 14.5 33t33.5 14q20 0 34 -13.5t14 -32.5q0 -20 -14 -34t-34 -14t-34 13.5t-14 33.5zM760 337q0 -155 -105 -258t-254 -103q-73 0 -143.5 28.5t-123.5 79.5 q-114 110 -116 269q0 152 109 259.5t260 107.5q158 0 265.5 -113.5t107.5 -269.5zM113 384q0 -90 30.5 -167.5t97 -130t156.5 -52.5q36 0 71.5 9t70.5 31t62 54t43.5 81t16.5 110q0 80 -26.5 155.5t-83.5 125.5q-76 67 -180 67t-181 -72.5t-77 -210.5z" />
<glyph unicode="&#xd7;" horiz-adv-x="552" d="M54 69q0 8 9 17l174 173l-118 118q-47 46 -56.5 56.5t-9.5 16.5q0 7 12 19.5t22 12.5h1q8 0 37 -29q14 -13 61 -62l91 -91l123 123q45 45 53.5 52.5t13.5 8.5h1q7 0 19.5 -12.5t12.5 -21.5v-1q0 -6 -10.5 -17.5t-79.5 -80.5l-92 -92l110 -110q55 -54 64 -64t9 -16 q0 -8 -12 -20.5t-21 -12.5q-8 0 -17 9l-174 174l-110 -110q-54 -55 -64 -64t-16 -9q-8 0 -20.5 12t-12.5 21z" />
<glyph unicode="&#xd8;" horiz-adv-x="778" d="M760 337q0 -155 -105 -258t-254 -103q-89 0 -173 42q-30 -55 -32 -57q-8 -5 -19 -5q-34 0 -34 13v1l40 74q-76 52 -120 134.5t-45 174.5q0 152 109 259.5t260 107.5q76 0 149 -31q27 51 32 54q3 2 13 2q36 0 36 -16q0 -3 -34 -65q82 -52 129.5 -140t47.5 -187zM113 384 q0 -76 25 -151t79 -127l288 527q-63 34 -134 34q-104 0 -181 -72.5t-77 -210.5zM397 34q36 0 71.5 9t70.5 31t62 54t43.5 81t16.5 110q0 82 -27.5 157.5t-84.5 125.5l-291 -529q64 -39 139 -39z" />
<glyph unicode="&#xd9;" horiz-adv-x="756" d="M255 862q0 16 11.5 26t27.5 10q22 0 52 -23q149 -108 153 -114q4 -8 4 -13q0 -9 -6 -14t-14 -5h-1q-6 0 -186 86l-4 2q-4 2 -6.5 3t-7 4t-7 5t-6 6t-5.5 7.5t-3.5 9t-1.5 10.5zM742 663q0 -12 -7 -16t-17 -5t-19.5 -5t-16.5 -20t-7 -45q0 -2 -0.5 -5t-0.5 -5v-227 q0 -8 0.5 -23.5t0.5 -23.5v-32q0 -70 -17 -126.5t-72 -95.5q-71 -49 -189 -49q-68 0 -121.5 14.5t-83.5 33.5t-52 46.5t-29.5 43t-12.5 33.5q-13 46 -13 128q0 12 0.5 38t0.5 38v252q0 4 -0.5 8t-2 6.5t-2.5 4.5t-4 3.5t-4.5 2t-6 1.5t-6.5 1t-8 1t-8 1q-27 3 -27 24 q0 24 20 24q3 0 15.5 -0.5t35.5 -1.5t50 -1h6q28 0 52 1t38 1.5t17 0.5q19 0 19 -26q0 -8 -2 -12.5t-8 -6.5t-12 -3t-18.5 -2t-21.5 -2q-32 -4 -32 -35v-313q0 -67 11.5 -112.5t49.5 -79.5q60 -55 180 -55q140 0 183 91q19 39 19 111v14q0 10 -0.5 31t-0.5 31v272 q0 17 -2.5 27t-12.5 15t-16.5 6.5t-27.5 3.5q-5 1 -8 1q-22 2 -22 22q0 22 19 22q3 0 14 -0.5t31 -1.5t43 -1t43 1t31 1.5t14 0.5q18 0 18 -26z" />
<glyph unicode="&#xda;" horiz-adv-x="756" d="M524 897q16 0 28 -10.5t12 -25.5q0 -13 -9 -24t-14 -13.5t-18 -9.5q-181 -86 -187 -86q-8 0 -14 5.5t-6 14.5q0 13 19 26l138 100q30 23 51 23zM742 663q0 -12 -7 -16t-17 -5t-19.5 -5t-16.5 -20t-7 -45q0 -2 -0.5 -5t-0.5 -5v-227q0 -8 0.5 -23.5t0.5 -23.5v-32 q0 -70 -17 -126.5t-72 -95.5q-71 -49 -189 -49q-68 0 -121.5 14.5t-83.5 33.5t-52 46.5t-29.5 43t-12.5 33.5q-13 46 -13 128q0 12 0.5 38t0.5 38v252q0 4 -0.5 8t-2 6.5t-2.5 4.5t-4 3.5t-4.5 2t-6 1.5t-6.5 1t-8 1t-8 1q-27 3 -27 24q0 24 20 24q3 0 15.5 -0.5t35.5 -1.5 t50 -1h6q28 0 52 1t38 1.5t17 0.5q19 0 19 -26q0 -8 -2 -12.5t-8 -6.5t-12 -3t-18.5 -2t-21.5 -2q-32 -4 -32 -35v-313q0 -67 11.5 -112.5t49.5 -79.5q60 -55 180 -55q140 0 183 91q19 39 19 111v14q0 10 -0.5 31t-0.5 31v272q0 17 -2.5 27t-12.5 15t-16.5 6.5t-27.5 3.5 q-5 1 -8 1q-22 2 -22 22q0 22 19 22q3 0 14 -0.5t31 -1.5t43 -1t43 1t31 1.5t14 0.5q18 0 18 -26z" />
<glyph unicode="&#xdb;" horiz-adv-x="756" d="M273 728q-15 0 -15 14q0 7 36 51l50 62q18 24 38 24q12 0 25 -14l56 -69q38 -46 38 -53q0 -5 -4 -10t-12 -5q-12 0 -26 14l-21 17.5l-16.5 14.5t-12 10l-10 7.5t-7.5 5t-6.5 3t-5.5 0.5q-13 0 -54 -36t-53 -36zM742 663q0 -12 -7 -16t-17 -5t-19.5 -5t-16.5 -20t-7 -45 q0 -2 -0.5 -5t-0.5 -5v-227q0 -8 0.5 -23.5t0.5 -23.5v-32q0 -70 -17 -126.5t-72 -95.5q-71 -49 -189 -49q-68 0 -121.5 14.5t-83.5 33.5t-52 46.5t-29.5 43t-12.5 33.5q-13 46 -13 128q0 12 0.5 38t0.5 38v252q0 4 -0.5 8t-2 6.5t-2.5 4.5t-4 3.5t-4.5 2t-6 1.5t-6.5 1 t-8 1t-8 1q-27 3 -27 24q0 24 20 24q3 0 15.5 -0.5t35.5 -1.5t50 -1h6q28 0 52 1t38 1.5t17 0.5q19 0 19 -26q0 -8 -2 -12.5t-8 -6.5t-12 -3t-18.5 -2t-21.5 -2q-32 -4 -32 -35v-313q0 -67 11.5 -112.5t49.5 -79.5q60 -55 180 -55q140 0 183 91q19 39 19 111v14 q0 10 -0.5 31t-0.5 31v272q0 17 -2.5 27t-12.5 15t-16.5 6.5t-27.5 3.5q-5 1 -8 1q-22 2 -22 22q0 22 19 22q3 0 14 -0.5t31 -1.5t43 -1t43 1t31 1.5t14 0.5q18 0 18 -26z" />
<glyph unicode="&#xdc;" horiz-adv-x="756" d="M423 775q0 19 14.5 33t33.5 14q20 0 34 -13.5t14 -32.5q0 -20 -14 -34t-34 -14t-34 13.5t-14 33.5zM288 775q0 19 14.5 33t33.5 14q20 0 34 -13.5t14 -32.5q0 -20 -14 -34t-34 -14t-34 13.5t-14 33.5zM742 663q0 -12 -7 -16t-17 -5t-19.5 -5t-16.5 -20t-7 -45 q0 -2 -0.5 -5t-0.5 -5v-227q0 -8 0.5 -23.5t0.5 -23.5v-32q0 -70 -17 -126.5t-72 -95.5q-71 -49 -189 -49q-68 0 -121.5 14.5t-83.5 33.5t-52 46.5t-29.5 43t-12.5 33.5q-13 46 -13 128q0 12 0.5 38t0.5 38v252q0 4 -0.5 8t-2 6.5t-2.5 4.5t-4 3.5t-4.5 2t-6 1.5t-6.5 1 t-8 1t-8 1q-27 3 -27 24q0 24 20 24q3 0 15.5 -0.5t35.5 -1.5t50 -1h6q28 0 52 1t38 1.5t17 0.5q19 0 19 -26q0 -8 -2 -12.5t-8 -6.5t-12 -3t-18.5 -2t-21.5 -2q-32 -4 -32 -35v-313q0 -67 11.5 -112.5t49.5 -79.5q60 -55 180 -55q140 0 183 91q19 39 19 111v14 q0 10 -0.5 31t-0.5 31v272q0 17 -2.5 27t-12.5 15t-16.5 6.5t-27.5 3.5q-5 1 -8 1q-22 2 -22 22q0 22 19 22q3 0 14 -0.5t31 -1.5t43 -1t43 1t31 1.5t14 0.5q18 0 18 -26z" />
<glyph unicode="&#xdd;" horiz-adv-x="667" d="M467 897q16 0 28 -10.5t12 -25.5q0 -13 -9 -24t-14 -13.5t-18 -9.5q-181 -86 -187 -86q-8 0 -14 5.5t-6 14.5q0 13 19 26l138 100q30 23 51 23zM490 21v-8q0 -19 -16 -19l-20 2q-20 2 -54 3t-67 1q-22 0 -44 -0.5t-38.5 -1.5t-29.5 -2t-21 -1.5t-9 -0.5q-25 0 -25 28 q0 16 9 20t40 5q18 0 29 1h4t4.5 0.5t4 0.5t3.5 0.5t3.5 1.5t3.5 2l2.5 2.5t2 3.5t1 5t0.5 6v207q0 6 -0.5 11t-1 8t-3.5 8.5t-4 7t-5.5 9.5t-6.5 11l-184 295q-10 12 -29 14t-24 12q-4 6 -4 14q0 22 25 22q3 0 17 -0.5t39 -1.5t54 -1t53.5 1t38.5 1.5t17 0.5q18 0 18 -20 q0 -5 -0.5 -9t-2 -6.5t-3 -4.5t-5 -3.5t-6.5 -2l-9 -1.5t-10.5 -1t-13 -0.5t-15.5 -1.5q-26 -3 -26 -23v-2q0 -8 68 -125l74 -128q8 -14 14 -14q2 0 8 6l56 77q80 109 99.5 139.5t19.5 47.5q0 16 -14.5 21.5t-31.5 4t-31.5 4t-14.5 22.5q0 20 21 20q3 0 14.5 -0.5t31.5 -1.5 t43 -1h3q23 0 43.5 1l31.5 1.5t14 0.5q14 0 21 -6.5t7 -13.5q0 -9 -7.5 -15.5t-21 -17t-23.5 -22.5l-145 -187l-34 -45.5l-26 -35l-18 -24t-13 -17.5l-7.5 -11.5t-4 -10t-1 -8t-0.5 -10.5v-195q0 -15 10.5 -18t59.5 -5q25 -1 40 -2q22 -1 22 -24z" />
<glyph unicode="&#xdf;" horiz-adv-x="529" d="M30 -6q-12 0 -12 19q0 16 7 19t40 7q4 0 7 1.5t4.5 4.5t2.5 6.5t1.5 9.5t0.5 10.5t0.5 13.5t0.5 16q2 50 2 250q0 6 -5 7.5t-23 1.5h-25h-1q-21 0 -21 19q0 23 14 28q5 2 29.5 2t26.5 1q3 1 3 7v2q2 177 88 251q59 49 134 49q51 0 84 -31t33 -81q0 -35 -17.5 -66 t-38.5 -49.5t-38.5 -43.5t-17.5 -49q0 -27 17 -48.5t60 -57.5t73 -68q62 -67 62 -128q0 -51 -36 -83.5t-88 -32.5q-50 0 -85.5 18.5t-47.5 38.5q-6 11 -6 27v66q0 15 2 18q7 7 15 7q9 0 12 -5.5t2.5 -14t1.5 -21.5t8 -24q10 -16 36 -35t55 -19t49.5 17.5t20.5 45.5 q0 27 -17.5 48.5t-66.5 62.5t-84 77q-40 40 -40 80q0 35 44 99t44 108q0 35 -21 59.5t-54 24.5q-11 0 -23.5 -4.5t-30.5 -18t-32.5 -46.5t-20.5 -82q-5 -39 -5 -118v-10q0 -110 -0.5 -180t-0.5 -97.5v-34.5q0 -10 1.5 -15t9 -11t21.5 -7q29 -2 32 -7q2 -3 2 -11 q0 -23 -11 -23h-5q-5 0 -13.5 1.5t-18.5 2.5t-24 1.5t-27 0.5q-21 0 -43 -2q-22 0 -34 -2z" />
<glyph unicode="&#xe0;" horiz-adv-x="423" d="M45 664q0 16 11 26.5t26 10.5h1q28 0 55 -42q101 -150 103 -156q2 -4 2 -9q0 -8 -5.5 -14t-13.5 -6h-2q-7 0 -17.5 9.5t-66.5 66.5l-68 69q-25 25 -25 45zM29 345q0 29 47.5 59t106.5 30q19 0 38.5 -4t44 -14t41.5 -34t21 -58q2 -24 2 -36v-197q0 -18 7 -28.5t13.5 -13 t13.5 -2.5q18 0 28 16.5t16 16.5q9 0 9 -13q0 -23 -21 -51t-56 -28q-13 0 -24.5 4t-19.5 10t-14 12l-10 10l-3 5q-1 0 -1 0.5t-1 0.5q-2 0 -3.5 -1.5t-7 -7.5t-16.5 -13q-43 -28 -93 -28q-51 0 -82.5 32.5t-31.5 79.5v1q0 56 42 89q15 12 38.5 21.5t46.5 14t43.5 7.5t34.5 4 l13 1q8 2 8 14v36q0 52 -24 80q-25 27 -58 27q-53 0 -86 -67q-8 -11 -22 -11q-15 0 -27.5 10t-12.5 26zM171 35q22 0 42 9.5t28 17.5t13 14q6 8 6 23v24v41q0 18 -1.5 23.5t-8.5 5.5q-13 0 -31.5 -2t-45.5 -11t-42 -23q-24 -20 -24 -54q0 -37 21 -55q14 -13 43 -13z" />
<glyph unicode="&#xe1;" horiz-adv-x="423" d="M285 701q15 0 26 -10.5t11 -26.5q0 -19 -24 -45q-130 -133 -139 -140q-7 -5 -15 -5q-9 0 -14 6t-5 14q0 10 26 48l32 47l47 70q27 42 55 42zM29 345q0 29 47.5 59t106.5 30q19 0 38.5 -4t44 -14t41.5 -34t21 -58q2 -24 2 -36v-197q0 -18 7 -28.5t13.5 -13t13.5 -2.5 q18 0 28 16.5t16 16.5q9 0 9 -13q0 -23 -21 -51t-56 -28q-13 0 -24.5 4t-19.5 10t-14 12l-10 10l-3 5q-1 0 -1 0.5t-1 0.5q-2 0 -3.5 -1.5t-7 -7.5t-16.5 -13q-43 -28 -93 -28q-51 0 -82.5 32.5t-31.5 79.5v1q0 56 42 89q15 12 38.5 21.5t46.5 14t43.5 7.5t34.5 4l13 1 q8 2 8 14v36q0 52 -24 80q-25 27 -58 27q-53 0 -86 -67q-8 -11 -22 -11q-15 0 -27.5 10t-12.5 26zM171 35q22 0 42 9.5t28 17.5t13 14q6 8 6 23v24v41q0 18 -1.5 23.5t-8.5 5.5q-13 0 -31.5 -2t-45.5 -11t-42 -23q-24 -20 -24 -54q0 -37 21 -55q14 -13 43 -13z" />
<glyph unicode="&#xe2;" horiz-adv-x="423" d="M107 474q-15 0 -15 15q0 6 24.5 77.5t37.5 99.5q12 29 29 29q16 0 29 -27.5t41 -111.5l19 -55q3 -9 3 -11q0 -8 -5 -12t-10 -4q-12 0 -26 23l-17 30q-18 32 -23 38.5t-10 6.5q-6 0 -11.5 -6.5t-22.5 -37.5q-11 -20 -19 -33q-13 -21 -24 -21zM29 345q0 29 47.5 59 t106.5 30q19 0 38.5 -4t44 -14t41.5 -34t21 -58q2 -24 2 -36v-197q0 -18 7 -28.5t13.5 -13t13.5 -2.5q18 0 28 16.5t16 16.5q9 0 9 -13q0 -23 -21 -51t-56 -28q-13 0 -24.5 4t-19.5 10t-14 12l-10 10l-3 5q-1 0 -1 0.5t-1 0.5q-2 0 -3.5 -1.5t-7 -7.5t-16.5 -13 q-43 -28 -93 -28q-51 0 -82.5 32.5t-31.5 79.5v1q0 56 42 89q15 12 38.5 21.5t46.5 14t43.5 7.5t34.5 4l13 1q8 2 8 14v36q0 52 -24 80q-25 27 -58 27q-53 0 -86 -67q-8 -11 -22 -11q-15 0 -27.5 10t-12.5 26zM171 35q22 0 42 9.5t28 17.5t13 14q6 8 6 23v24v41 q0 18 -1.5 23.5t-8.5 5.5q-13 0 -31.5 -2t-45.5 -11t-42 -23q-24 -20 -24 -54q0 -37 21 -55q14 -13 43 -13z" />
<glyph unicode="&#xe3;" horiz-adv-x="423" d="M239 622q20 0 37 11.5t27 23t14 11.5t11.5 -4t7.5 -9q0 -6 -19.5 -29t-36.5 -36q-28 -22 -58 -22q-27 0 -57.5 22.5t-49.5 22.5t-35 -13t-24.5 -26t-10.5 -13q-3 0 -8 5.5t-5 9.5q0 3 17.5 29.5t27.5 36.5q23 23 50 23q23 0 56 -21.5t56 -21.5zM29 345q0 29 47.5 59 t106.5 30q19 0 38.5 -4t44 -14t41.5 -34t21 -58q2 -24 2 -36v-197q0 -18 7 -28.5t13.5 -13t13.5 -2.5q18 0 28 16.5t16 16.5q9 0 9 -13q0 -23 -21 -51t-56 -28q-13 0 -24.5 4t-19.5 10t-14 12l-10 10l-3 5q-1 0 -1 0.5t-1 0.5q-2 0 -3.5 -1.5t-7 -7.5t-16.5 -13 q-43 -28 -93 -28q-51 0 -82.5 32.5t-31.5 79.5v1q0 56 42 89q15 12 38.5 21.5t46.5 14t43.5 7.5t34.5 4l13 1q8 2 8 14v36q0 52 -24 80q-25 27 -58 27q-53 0 -86 -67q-8 -11 -22 -11q-15 0 -27.5 10t-12.5 26zM171 35q22 0 42 9.5t28 17.5t13 14q6 8 6 23v24v41 q0 18 -1.5 23.5t-8.5 5.5q-13 0 -31.5 -2t-45.5 -11t-42 -23q-24 -20 -24 -54q0 -37 21 -55q14 -13 43 -13z" />
<glyph unicode="&#xe4;" horiz-adv-x="423" d="M203 618q0 19 14.5 33t33.5 14q20 0 34 -13.5t14 -32.5q0 -20 -14 -34t-34 -14t-34 13.5t-14 33.5zM68 618q0 19 14.5 33t33.5 14q20 0 34 -13.5t14 -32.5q0 -20 -14 -34t-34 -14t-34 13.5t-14 33.5zM29 345q0 29 47.5 59t106.5 30q19 0 38.5 -4t44 -14t41.5 -34t21 -58 q2 -24 2 -36v-197q0 -18 7 -28.5t13.5 -13t13.5 -2.5q18 0 28 16.5t16 16.5q9 0 9 -13q0 -23 -21 -51t-56 -28q-13 0 -24.5 4t-19.5 10t-14 12l-10 10l-3 5q-1 0 -1 0.5t-1 0.5q-2 0 -3.5 -1.5t-7 -7.5t-16.5 -13q-43 -28 -93 -28q-51 0 -82.5 32.5t-31.5 79.5v1q0 56 42 89 q15 12 38.5 21.5t46.5 14t43.5 7.5t34.5 4l13 1q8 2 8 14v36q0 52 -24 80q-25 27 -58 27q-53 0 -86 -67q-8 -11 -22 -11q-15 0 -27.5 10t-12.5 26zM171 35q22 0 42 9.5t28 17.5t13 14q6 8 6 23v24v41q0 18 -1.5 23.5t-8.5 5.5q-13 0 -31.5 -2t-45.5 -11t-42 -23 q-24 -20 -24 -54q0 -37 21 -55q14 -13 43 -13z" />
<glyph unicode="&#xe5;" horiz-adv-x="423" d="M183 650q36 0 60.5 -26t24.5 -62q0 -37 -25 -62.5t-60 -25.5t-60 25.5t-25 62.5q0 36 25 62t60 26zM183 612q-19 0 -32 -14.5t-13 -34.5t13.5 -35t32.5 -15t32 15t13 34t-13.5 34.5t-32.5 15.5zM29 345q0 29 47.5 59t106.5 30q19 0 38.5 -4t44 -14t41.5 -34t21 -58 q2 -24 2 -36v-197q0 -18 7 -28.5t13.5 -13t13.5 -2.5q18 0 28 16.5t16 16.5q9 0 9 -13q0 -23 -21 -51t-56 -28q-13 0 -24.5 4t-19.5 10t-14 12l-10 10l-3 5q-1 0 -1 0.5t-1 0.5q-2 0 -3.5 -1.5t-7 -7.5t-16.5 -13q-43 -28 -93 -28q-51 0 -82.5 32.5t-31.5 79.5v1q0 56 42 89 q15 12 38.5 21.5t46.5 14t43.5 7.5t34.5 4l13 1q8 2 8 14v36q0 52 -24 80q-25 27 -58 27q-53 0 -86 -67q-8 -11 -22 -11q-15 0 -27.5 10t-12.5 26zM171 35q22 0 42 9.5t28 17.5t13 14q6 8 6 23v24v41q0 18 -1.5 23.5t-8.5 5.5q-13 0 -31.5 -2t-45.5 -11t-42 -23 q-24 -20 -24 -54q0 -37 21 -55q14 -13 43 -13z" />
<glyph unicode="&#xe6;" horiz-adv-x="645" d="M424 376q-43 0 -69.5 -39t-26.5 -104q0 -7 5 -7q2 0 93 35t95 37q8 4 8 12q0 14 -34 40t-71 26zM106 101q0 -27 14.5 -48t48.5 -21q37 0 66 24q16 13 20 22t4 37v29q0 34 -1.5 40.5t-8.5 6.5h-2q-141 -10 -141 -90zM447 432q64 0 122 -45.5t58 -73.5v-1q0 -9 -5.5 -16 t-16 -12l-18.5 -8.5t-23 -8t-19 -5.5q-204 -70 -208 -73q-4 -2 -4 -6q0 -9 6 -28.5t20 -47.5t46 -48.5t76 -20.5q68 0 119 49q11 14 23 14q15 0 15 -14q0 -8 -6 -17q-33 -43 -80.5 -66t-97.5 -23q-29 0 -55 7.5t-42 18t-28 21.5t-18.5 18.5t-7.5 7.5t-9.5 -8t-23.5 -19 t-33 -22t-42.5 -19t-48.5 -8q-50 0 -82 32.5t-32 79.5v1q0 56 42 89q53 40 176 48q8 2 8 22v28q0 52 -24 80q-24 27 -58 27q-13 0 -25.5 -4.5t-21 -11t-16.5 -15.5t-12 -16q-3 -6 -7 -13l-4 -7q-9 -11 -23 -11q-15 0 -27 10t-12 26q0 29 47 59t108 30q35 0 61.5 -9t38 -19.5 t20 -19.5t12.5 -9t9 5q55 52 123 52z" />
<glyph unicode="&#xe7;" horiz-adv-x="381" d="M289 -120q0 -30 -19 -52.5t-63 -22.5q-22 0 -49 5t-30 8q-4 3 -4 7q0 2 1 7t4.5 11t8.5 6l4 -1q4 -1 9.5 -2t12 -2t14 -2t12.5 -1q17 0 27.5 9t10.5 23q0 20 -20 35t-51 17q-5 0 -5 3l4 10l9.5 24.5t8.5 23.5q-71 12 -114 69.5t-43 141.5q0 102 59 166.5t155 64.5 q53 0 90 -22.5t37 -51.5q0 -17 -12 -27.5t-28 -10.5q-22 0 -56 30t-65 30q-46 0 -80 -45.5t-34 -108.5q0 -71 45 -123.5t113 -52.5q34 0 59.5 13.5t40 27t22.5 13.5q7 0 12 -5t5 -12q0 -8 -6 -16q-27 -36 -69.5 -60.5t-95.5 -24.5h-3l-5 -13t-2.5 -6.5t-0.5 -2.5q0 -3 4 -3 h3q37 0 60.5 -20t23.5 -56v-1z" />
<glyph unicode="&#xe8;" horiz-adv-x="409" d="M32 662q0 16 11 26.5t26 10.5h1q28 0 55 -42q101 -150 103 -156q2 -4 2 -9q0 -8 -5.5 -14t-13.5 -6h-2q-7 0 -17.5 9.5t-66.5 66.5l-68 69q-25 25 -25 45zM22 206q0 102 53.5 163.5t131.5 61.5q49 0 95.5 -27.5t76.5 -68.5q8 -10 8 -22v-1q0 -9 -5 -15.5t-15.5 -12 t-18.5 -9t-23 -8t-19 -5.5l-121 -41q-67 -23 -79.5 -28t-12.5 -10q0 -9 6 -28.5t20 -47.5t46 -48.5t76 -20.5q68 0 119 49q14 14 23 14q16 0 16 -15q0 -8 -7 -16q-32 -41 -78.5 -65t-98.5 -24q-26 0 -51.5 7t-51.5 23.5t-45.5 41.5t-32 64.5t-12.5 88.5zM290 310 q0 13 -34 39.5t-71 26.5q-44 0 -70 -38.5t-26 -104.5q0 -7 5 -7q2 0 93 35.5t94 36.5q9 4 9 12z" />
<glyph unicode="&#xe9;" horiz-adv-x="409" d="M272 699q15 0 26 -10.5t11 -26.5q0 -19 -24 -45q-130 -133 -139 -140q-7 -5 -15 -5q-9 0 -14 6t-5 14q0 10 26 48l32 47l47 70q27 42 55 42zM22 206q0 102 53.5 163.5t131.5 61.5q49 0 95.5 -27.5t76.5 -68.5q8 -10 8 -22v-1q0 -9 -5 -15.5t-15.5 -12t-18.5 -9t-23 -8 t-19 -5.5l-121 -41q-67 -23 -79.5 -28t-12.5 -10q0 -9 6 -28.5t20 -47.5t46 -48.5t76 -20.5q68 0 119 49q14 14 23 14q16 0 16 -15q0 -8 -7 -16q-32 -41 -78.5 -65t-98.5 -24q-26 0 -51.5 7t-51.5 23.5t-45.5 41.5t-32 64.5t-12.5 88.5zM290 310q0 13 -34 39.5t-71 26.5 q-44 0 -70 -38.5t-26 -104.5q0 -7 5 -7q2 0 93 35.5t94 36.5q9 4 9 12z" />
<glyph unicode="&#xea;" horiz-adv-x="409" d="M134 471q-15 0 -15 15q0 6 24.5 77.5t37.5 99.5q12 29 29 29q16 0 29 -27.5t41 -111.5l19 -55q3 -9 3 -11q0 -8 -5 -12t-10 -4q-12 0 -26 23l-17 30q-18 32 -23 38.5t-10 6.5q-6 0 -11.5 -6.5t-22.5 -37.5q-11 -20 -19 -33q-13 -21 -24 -21zM22 206q0 102 53.5 163.5 t131.5 61.5q49 0 95.5 -27.5t76.5 -68.5q8 -10 8 -22v-1q0 -9 -5 -15.5t-15.5 -12t-18.5 -9t-23 -8t-19 -5.5l-121 -41q-67 -23 -79.5 -28t-12.5 -10q0 -9 6 -28.5t20 -47.5t46 -48.5t76 -20.5q68 0 119 49q14 14 23 14q16 0 16 -15q0 -8 -7 -16q-32 -41 -78.5 -65 t-98.5 -24q-26 0 -51.5 7t-51.5 23.5t-45.5 41.5t-32 64.5t-12.5 88.5zM290 310q0 13 -34 39.5t-71 26.5q-44 0 -70 -38.5t-26 -104.5q0 -7 5 -7q2 0 93 35.5t94 36.5q9 4 9 12z" />
<glyph unicode="&#xeb;" horiz-adv-x="409" d="M230 618q0 19 14.5 33t33.5 14q20 0 34 -13.5t14 -32.5q0 -20 -14 -34t-34 -14t-34 13.5t-14 33.5zM95 618q0 19 14.5 33t33.5 14q20 0 34 -13.5t14 -32.5q0 -20 -14 -34t-34 -14t-34 13.5t-14 33.5zM22 206q0 102 53.5 163.5t131.5 61.5q49 0 95.5 -27.5t76.5 -68.5 q8 -10 8 -22v-1q0 -9 -5 -15.5t-15.5 -12t-18.5 -9t-23 -8t-19 -5.5l-121 -41q-67 -23 -79.5 -28t-12.5 -10q0 -9 6 -28.5t20 -47.5t46 -48.5t76 -20.5q68 0 119 49q14 14 23 14q16 0 16 -15q0 -8 -7 -16q-32 -41 -78.5 -65t-98.5 -24q-26 0 -51.5 7t-51.5 23.5t-45.5 41.5 t-32 64.5t-12.5 88.5zM290 310q0 13 -34 39.5t-71 26.5q-44 0 -70 -38.5t-26 -104.5q0 -7 5 -7q2 0 93 35.5t94 36.5q9 4 9 12z" />
<glyph unicode="&#xec;" horiz-adv-x="243" d="M15 671q0 16 11 26.5t26 10.5h1q28 0 55 -42q101 -150 103 -156q2 -4 2 -9q0 -8 -5.5 -14t-13.5 -6h-2q-7 0 -17.5 9.5t-66.5 66.5l-68 69q-25 25 -25 45zM165 121q0 51 0.5 94.5t0.5 68.5v30q0 10 -6.5 14.5t-38.5 17.5q-14 5 -23 9q-12 5 -12 13q0 3 1.5 6t5 5l6 3.5 t7.5 3.5t7 3q108 52 110 52h1q14 0 14 -16l-2 -32q-2 -32 -3 -86.5t-1 -108.5v-33q0 -91 3 -108.5t20 -19.5q4 -1 10 -1.5t9 -1t7 -1.5l6 -1.5t5 -1.5t4 -2t2 -3t1.5 -4t0.5 -5q0 -22 -12 -22q-1 0 -6 0.5t-13.5 1.5t-19.5 2t-25 1.5t-28 0.5t-28.5 -0.5t-25 -1.5t-19 -2 t-13.5 -1.5t-6 -0.5q-15 0 -15 17q0 16 6 19t43 8q17 3 22 11.5t5 24.5v47z" />
<glyph unicode="&#xed;" horiz-adv-x="243" d="M184 708q15 0 26 -10.5t11 -26.5q0 -19 -24 -45q-130 -133 -139 -140q-7 -5 -15 -5q-9 0 -14 6t-5 14q0 10 26 48l32 47l47 70q27 42 55 42zM94 121v94.5t0.5 68.5t0.5 30q0 10 -6.5 14.5t-38.5 17.5q-14 5 -23 9q-12 5 -12 13q0 3 1.5 6t5 5l6 3.5t7.5 3.5t7 3 q108 52 110 52h1q14 0 14 -16l-1 -32q-2 -32 -3.5 -86.5t-1.5 -108.5v-33q0 -91 3 -108.5t20 -19.5q4 -1 10 -1.5t9 -1t7 -1.5l6 -1.5t5 -1.5t4 -2t2 -3t1.5 -4t0.5 -5q0 -22 -12 -22q-1 0 -6 0.5t-13.5 1.5t-19.5 2t-25 1.5t-28 0.5t-28.5 -0.5t-25 -1.5t-19 -2t-13.5 -1.5 t-6 -0.5q-15 0 -15 17q0 16 6 19t43 8q17 3 22 11.5t5 24.5v47z" />
<glyph unicode="&#xee;" horiz-adv-x="243" d="M42 481q-15 0 -15 15q0 6 24.5 77.5t37.5 99.5q12 29 29 29q16 0 29 -27.5t41 -111.5l19 -55q3 -9 3 -11q0 -8 -5 -12t-10 -4q-12 0 -26 23l-17 30q-18 32 -23 38.5t-10 6.5q-6 0 -11.5 -6.5t-22.5 -37.5q-11 -20 -19 -33q-13 -21 -24 -21zM94 121v94.5t0.5 68.5t0.5 30 q0 10 -6.5 14.5t-38.5 17.5q-14 5 -23 9q-12 5 -12 13q0 3 1.5 6t5 5l6 3.5t7.5 3.5t7 3q108 52 110 52h1q14 0 14 -16l-1 -32q-2 -32 -3.5 -86.5t-1.5 -108.5v-33q0 -91 3 -108.5t20 -19.5q4 -1 10 -1.5t9 -1t7 -1.5l6 -1.5t5 -1.5t4 -2t2 -3t1.5 -4t0.5 -5q0 -22 -12 -22 q-1 0 -6 0.5t-13.5 1.5t-19.5 2t-25 1.5t-28 0.5t-28.5 -0.5t-25 -1.5t-19 -2t-13.5 -1.5t-6 -0.5q-15 0 -15 17q0 16 6 19t43 8q17 3 22 11.5t5 24.5v47z" />
<glyph unicode="&#xef;" horiz-adv-x="243" d="M94 121v94.5t0.5 68.5t0.5 30q0 10 -6.5 14.5t-38.5 17.5q-14 5 -23 9q-12 5 -12 13q0 3 1.5 6t5 5l6 3.5t7.5 3.5t7 3q108 52 110 52h1q14 0 14 -16l-1 -32q-2 -32 -3.5 -86.5t-1.5 -108.5v-33q0 -91 3 -108.5t20 -19.5q4 -1 10 -1.5t9 -1t7 -1.5l6 -1.5t5 -1.5t4 -2 t2 -3t1.5 -4t0.5 -5q0 -22 -12 -22q-1 0 -6 0.5t-13.5 1.5t-19.5 2t-25 1.5t-28 0.5t-28.5 -0.5t-25 -1.5t-19 -2t-13.5 -1.5t-6 -0.5q-15 0 -15 17q0 16 6 19t43 8q17 3 22 11.5t5 24.5v47zM130 618q0 19 14.5 33t33.5 14q20 0 34 -13.5t14 -32.5q0 -20 -14 -34t-34 -14 t-34 13.5t-14 33.5zM-5 618q0 19 14.5 33t33.5 14q20 0 34 -13.5t14 -32.5q0 -20 -14 -34t-34 -14t-34 13.5t-14 33.5z" />
<glyph unicode="&#xf1;" horiz-adv-x="499" d="M299 622q20 0 37 11.5t27 23t14 11.5t11.5 -4t7.5 -9q0 -6 -19.5 -29t-36.5 -36q-28 -22 -58 -22q-27 0 -57.5 22.5t-49.5 22.5t-35 -13t-24.5 -26t-10.5 -13q-3 0 -8 5.5t-5 9.5q0 3 17.5 29.5t27.5 36.5q23 23 50 23q23 0 56 -21.5t56 -21.5zM141 377q0 -4 3 -4h1 q1 0 7.5 6t18 15t27 17.5t38 15t46.5 6.5h2q20 0 40 -5.5t43.5 -19.5t39 -44.5t19.5 -74.5q2 -17 2 -51v-19t-0.5 -54t-0.5 -100v-2q0 -5 1 -9t1.5 -7t3.5 -5l4.5 -3t7 -2.5t8 -1.5t10.5 -1t12 -2q14 -2 14 -18q0 -20 -15 -20q-3 0 -13.5 1.5t-29.5 3t-41 1.5 q-12 0 -25 -0.5t-22.5 -1.5t-17.5 -2q-9 -2 -13 -2h-4q-14 0 -14 20q0 3 0.5 5.5t1.5 4t2.5 3t4 2.5t5 1.5t7 1.5t8.5 1.5t10.5 1.5l12.5 2q16 2 16 24v155q0 76 -13 108q-14 33 -44 46.5t-56 13.5q-39 0 -69 -23.5t-34 -41.5q-1 -4 -1 -13v-237v-3q0 -25 22 -28q6 -1 13 -2 t11 -1.5t9 -1.5t7 -2t5 -2t4.5 -2.5t2.5 -4t1.5 -5t0.5 -6.5q0 -18 -13 -18q-1 0 -6 0.5t-14 2t-20 2.5t-25 1.5t-28 0.5q-13 0 -27 -0.5t-24 -1.5t-18.5 -2l-13 -1.5t-5.5 -0.5q-16 0 -16 18q0 14 6 17t33 7q17 3 21.5 10.5t4.5 23.5v239q0 17 -5 23.5t-40 32.5q-6 6 -6 10 v1q0 5 7 9.5t41 22.5l47 25q6 4 10 4q12 0 12 -15v-39v-3z" />
<glyph unicode="&#xf2;" horiz-adv-x="467" d="M55 662q0 16 11 26.5t26 10.5h1q28 0 55 -42q101 -150 103 -156q2 -4 2 -9q0 -8 -5.5 -14t-13.5 -6h-2q-7 0 -17.5 9.5t-66.5 66.5l-68 69q-25 25 -25 45zM21 204q0 101 64 164.5t152 63.5q90 0 149.5 -64t59.5 -164q0 -103 -62 -163t-151 -60q-94 0 -153 64.5t-59 158.5 zM236 30q62 0 102 50.5t40 119.5q0 78 -44.5 131.5t-103.5 53.5q-49 0 -90 -43t-41 -133q0 -79 38 -129t99 -50z" />
<glyph unicode="&#xf3;" horiz-adv-x="467" d="M295 699q15 0 26 -10.5t11 -26.5q0 -19 -24 -45q-130 -133 -139 -140q-7 -5 -15 -5q-9 0 -14 6t-5 14q0 10 26 48l32 47l47 70q27 42 55 42zM21 204q0 101 64 164.5t152 63.5q90 0 149.5 -64t59.5 -164q0 -103 -62 -163t-151 -60q-94 0 -153 64.5t-59 158.5zM236 30 q62 0 102 50.5t40 119.5q0 78 -44.5 131.5t-103.5 53.5q-49 0 -90 -43t-41 -133q0 -79 38 -129t99 -50z" />
<glyph unicode="&#xf4;" horiz-adv-x="467" d="M157 472q-15 0 -15 15q0 6 24.5 77.5t37.5 99.5q12 29 29 29q16 0 29 -27.5t41 -111.5l19 -55q3 -9 3 -11q0 -8 -5 -12t-10 -4q-12 0 -26 23l-17 30q-18 32 -23 38.5t-10 6.5q-6 0 -11.5 -6.5t-22.5 -37.5q-11 -20 -19 -33q-13 -21 -24 -21zM21 204q0 101 64 164.5 t152 63.5q90 0 149.5 -64t59.5 -164q0 -103 -62 -163t-151 -60q-94 0 -153 64.5t-59 158.5zM236 30q62 0 102 50.5t40 119.5q0 78 -44.5 131.5t-103.5 53.5q-49 0 -90 -43t-41 -133q0 -79 38 -129t99 -50z" />
<glyph unicode="&#xf5;" horiz-adv-x="467" d="M287 622q20 0 37 11.5t27 23t14 11.5t11.5 -4t7.5 -9q0 -6 -19.5 -29t-36.5 -36q-28 -22 -58 -22q-27 0 -57.5 22.5t-49.5 22.5t-35 -13t-24.5 -26t-10.5 -13q-3 0 -8 5.5t-5 9.5q0 3 17.5 29.5t27.5 36.5q23 23 50 23q23 0 56 -21.5t56 -21.5zM21 204q0 101 64 164.5 t152 63.5q90 0 149.5 -64t59.5 -164q0 -103 -62 -163t-151 -60q-94 0 -153 64.5t-59 158.5zM236 30q62 0 102 50.5t40 119.5q0 78 -44.5 131.5t-103.5 53.5q-49 0 -90 -43t-41 -133q0 -79 38 -129t99 -50z" />
<glyph unicode="&#xf6;" horiz-adv-x="467" d="M254 618q0 19 14.5 33t33.5 14q20 0 34 -13.5t14 -32.5q0 -20 -14 -34t-34 -14t-34 13.5t-14 33.5zM119 618q0 19 14.5 33t33.5 14q20 0 34 -13.5t14 -32.5q0 -20 -14 -34t-34 -14t-34 13.5t-14 33.5zM21 204q0 101 64 164.5t152 63.5q90 0 149.5 -64t59.5 -164 q0 -103 -62 -163t-151 -60q-94 0 -153 64.5t-59 158.5zM236 30q62 0 102 50.5t40 119.5q0 78 -44.5 131.5t-103.5 53.5q-49 0 -90 -43t-41 -133q0 -79 38 -129t99 -50z" />
<glyph unicode="&#xf7;" horiz-adv-x="701" d="M76 231q-13 0 -18 4.5t-5 17.5v13q0 22 23 22h552q20 0 20 -19v-14q0 -24 -26 -24h-546zM285 400q0 22 16 37t38 15t37 -15t15 -36q0 -22 -15.5 -37t-37.5 -15t-37.5 14.5t-15.5 36.5zM345 67q-21 0 -37 15t-16 37t15 36.5t37 14.5t37.5 -15t15.5 -37t-15 -36.5 t-37 -14.5z" />
<glyph unicode="&#xf8;" horiz-adv-x="467" d="M446 204q0 -103 -62 -163t-151 -60q-45 0 -87 18q-1 -3 -3.5 -7t-3.5 -6.5t-3 -6t-4 -5.5t-4 -3.5t-4.5 -2.5t-5.5 -1q-35 0 -35 13q0 3 22 43q-38 29 -61 76.5t-23 104.5q0 101 64 164.5t152 63.5q41 0 85 -18q3 5 6 11.5t5 10t4.5 7.5t3.5 6t3 4.5t3.5 3.5t4 1.5 t4.5 0.5q36 0 36 -17q0 -5 -28 -54q40 -31 61 -80.5t21 -103.5zM236 30q62 0 102 50.5t40 119.5q0 77 -45 132l-160 -285q29 -17 63 -17zM230 385q-49 0 -90 -43t-41 -133q0 -79 38 -128l158 284q-31 20 -65 20z" />
<glyph unicode="&#xf9;" horiz-adv-x="505" d="M69 662q0 16 11 26.5t26 10.5h1q28 0 55 -42q101 -150 103 -156q2 -4 2 -9q0 -8 -5.5 -14t-13.5 -6h-2q-7 0 -17.5 9.5t-66.5 66.5l-68 69q-25 25 -25 45zM359 33q-1 0 -8 -5.5t-19.5 -13t-28 -14.5t-38 -12.5t-45.5 -5.5q-61 0 -102.5 38.5t-50.5 106.5q-3 30 -3 61 q0 18 0.5 86.5t0.5 74.5q0 18 -27 28q-5 2 -15 4.5t-13 5.5t-3 11v3q0 13 11 14q100 6 104 6q10 0 10 -12v-205q0 -67 18 -103q14 -27 41.5 -47t64.5 -20q49 0 85 36q17 19 17 30v246q0 4 -0.5 7.5t-1.5 6t-3 5t-3.5 4t-5.5 3t-6.5 2t-9 2t-10 2t-12 2l-14.5 2.5 q-15 3 -15 16q0 15 14 17q32 1 58 2t36 1.5t17.5 0.5h11.5q15 0 15 -20v-313q0 -3 0.5 -4.5t2 -3t3.5 -2.5l6 -3t8.5 -4t13 -5.5t16.5 -7.5q8 -3 8 -12t-2 -12.5t-9 -6t-16.5 -4.5t-29.5 -10t-43 -21q-6 -4 -11 -4q-14 0 -14 20v23q0 4 -3 4z" />
<glyph unicode="&#xfa;" horiz-adv-x="505" d="M309 699q15 0 26 -10.5t11 -26.5q0 -19 -24 -45q-130 -133 -139 -140q-7 -5 -15 -5q-9 0 -14 6t-5 14q0 10 26 48l32 47l47 70q27 42 55 42zM359 33q-1 0 -8 -5.5t-19.5 -13t-28 -14.5t-38 -12.5t-45.5 -5.5q-61 0 -102.5 38.5t-50.5 106.5q-3 30 -3 61q0 18 0.5 86.5 t0.5 74.5q0 18 -27 28q-5 2 -15 4.5t-13 5.5t-3 11v3q0 13 11 14q100 6 104 6q10 0 10 -12v-205q0 -67 18 -103q14 -27 41.5 -47t64.5 -20q49 0 85 36q17 19 17 30v246q0 4 -0.5 7.5t-1.5 6t-3 5t-3.5 4t-5.5 3t-6.5 2t-9 2t-10 2t-12 2l-14.5 2.5q-15 3 -15 16q0 15 14 17 q32 1 58 2t36 1.5t17.5 0.5h11.5q15 0 15 -20v-313q0 -3 0.5 -4.5t2 -3t3.5 -2.5l6 -3t8.5 -4t13 -5.5t16.5 -7.5q8 -3 8 -12t-2 -12.5t-9 -6t-16.5 -4.5t-29.5 -10t-43 -21q-6 -4 -11 -4q-14 0 -14 20v23q0 4 -3 4z" />
<glyph unicode="&#xfb;" horiz-adv-x="505" d="M171 471q-15 0 -15 15q0 6 24.5 77.5t37.5 99.5q12 29 29 29q16 0 29 -27.5t41 -111.5l19 -55q3 -9 3 -11q0 -8 -5 -12t-10 -4q-12 0 -26 23l-17 30q-18 32 -23 38.5t-10 6.5q-6 0 -11.5 -6.5t-22.5 -37.5q-11 -20 -19 -33q-13 -21 -24 -21zM359 33q-1 0 -8 -5.5 t-19.5 -13t-28 -14.5t-38 -12.5t-45.5 -5.5q-61 0 -102.5 38.5t-50.5 106.5q-3 30 -3 61q0 18 0.5 86.5t0.5 74.5q0 18 -27 28q-5 2 -15 4.5t-13 5.5t-3 11v3q0 13 11 14q100 6 104 6q10 0 10 -12v-205q0 -67 18 -103q14 -27 41.5 -47t64.5 -20q49 0 85 36q17 19 17 30v246 q0 4 -0.5 7.5t-1.5 6t-3 5t-3.5 4t-5.5 3t-6.5 2t-9 2t-10 2t-12 2l-14.5 2.5q-15 3 -15 16q0 15 14 17q32 1 58 2t36 1.5t17.5 0.5h11.5q15 0 15 -20v-313q0 -3 0.5 -4.5t2 -3t3.5 -2.5l6 -3t8.5 -4t13 -5.5t16.5 -7.5q8 -3 8 -12t-2 -12.5t-9 -6t-16.5 -4.5t-29.5 -10 t-43 -21q-6 -4 -11 -4q-14 0 -14 20v23q0 4 -3 4z" />
<glyph unicode="&#xfc;" horiz-adv-x="505" d="M267 618q0 19 14.5 33t33.5 14q20 0 34 -13.5t14 -32.5q0 -20 -14 -34t-34 -14t-34 13.5t-14 33.5zM132 618q0 19 14.5 33t33.5 14q20 0 34 -13.5t14 -32.5q0 -20 -14 -34t-34 -14t-34 13.5t-14 33.5zM359 33q-1 0 -8 -5.5t-19.5 -13t-28 -14.5t-38 -12.5t-45.5 -5.5 q-61 0 -102.5 38.5t-50.5 106.5q-3 30 -3 61q0 18 0.5 86.5t0.5 74.5q0 18 -27 28q-5 2 -15 4.5t-13 5.5t-3 11v3q0 13 11 14q100 6 104 6q10 0 10 -12v-205q0 -67 18 -103q14 -27 41.5 -47t64.5 -20q49 0 85 36q17 19 17 30v246q0 4 -0.5 7.5t-1.5 6t-3 5t-3.5 4t-5.5 3 t-6.5 2t-9 2t-10 2t-12 2l-14.5 2.5q-15 3 -15 16q0 15 14 17q32 1 58 2t36 1.5t17.5 0.5h11.5q15 0 15 -20v-313q0 -3 0.5 -4.5t2 -3t3.5 -2.5l6 -3t8.5 -4t13 -5.5t16.5 -7.5q8 -3 8 -12t-2 -12.5t-9 -6t-16.5 -4.5t-29.5 -10t-43 -21q-6 -4 -11 -4q-14 0 -14 20v23 q0 4 -3 4z" />
<glyph unicode="&#xfd;" horiz-adv-x="468" d="M295 699q15 0 26 -10.5t11 -26.5q0 -19 -24 -45q-130 -133 -139 -140q-7 -5 -15 -5q-9 0 -14 6t-5 14q0 10 26 48l32 47l47 70q27 42 55 42zM92 -223q-16 0 -27.5 10.5t-11.5 25.5q0 18 13 31t37.5 28.5t37.5 27.5q21 19 44 57t23 58q0 26 -111 248q-50 95 -55 102 t-12.5 9.5t-12.5 2.5t-9 5t-4 16q0 17 14 17q2 0 12 -0.5t27.5 -1.5t38.5 -1t38.5 1t28 1.5t12.5 0.5q13 0 13 -16v-6.5t-1 -5t-1.5 -3.5t-3 -2.5t-3.5 -2t-5 -1t-6 -1t-8 -1t-9 -0.5q-15 -2 -15 -14q0 -5 12.5 -37.5t39 -91.5t57.5 -117q0 -6 7 -6q3 0 5 2t3 4.5t2 3.5 q82 196 82 235q0 6 -1.5 10t-3.5 6t-7 3.5t-8.5 1.5t-12.5 0.5t-15 1.5q-19 2 -19 19q0 18 19 18q2 0 12 -0.5t27.5 -1.5t38.5 -1h1q20 0 37.5 1t27 1.5t11.5 0.5q12 0 12 -20q0 -10 -5.5 -13t-24.5 -5q-6 -1 -9 -1q-10 -1 -14 -7.5t-15 -37.5q-24 -67 -50 -132 q-97 -236 -179 -360q-40 -62 -74 -62z" />
<glyph unicode="&#xff;" horiz-adv-x="468" d="M254 618q0 19 14.5 33t33.5 14q20 0 34 -13.5t14 -32.5q0 -20 -14 -34t-34 -14t-34 13.5t-14 33.5zM119 618q0 19 14.5 33t33.5 14q20 0 34 -13.5t14 -32.5q0 -20 -14 -34t-34 -14t-34 13.5t-14 33.5zM92 -223q-16 0 -27.5 10.5t-11.5 25.5q0 18 13 31t37.5 28.5 t37.5 27.5q21 19 44 57t23 58q0 26 -111 248q-50 95 -55 102t-12.5 9.5t-12.5 2.5t-9 5t-4 16q0 17 14 17q2 0 12 -0.5t27.5 -1.5t38.5 -1t38.5 1t28 1.5t12.5 0.5q13 0 13 -16v-6.5t-1 -5t-1.5 -3.5t-3 -2.5t-3.5 -2t-5 -1t-6 -1t-8 -1t-9 -0.5q-15 -2 -15 -14 q0 -5 12.5 -37.5t39 -91.5t57.5 -117q0 -6 7 -6q3 0 5 2t3 4.5t2 3.5q82 196 82 235q0 6 -1.5 10t-3.5 6t-7 3.5t-8.5 1.5t-12.5 0.5t-15 1.5q-19 2 -19 19q0 18 19 18q2 0 12 -0.5t27.5 -1.5t38.5 -1h1q20 0 37.5 1t27 1.5t11.5 0.5q12 0 12 -20q0 -10 -5.5 -13t-24.5 -5 q-6 -1 -9 -1q-10 -1 -14 -7.5t-15 -37.5q-24 -67 -50 -132q-97 -236 -179 -360q-40 -62 -74 -62z" />
<glyph unicode="&#x152;" horiz-adv-x="1018" d="M638 97q0 -16 6.5 -23.5t34 -13t83.5 -5.5q34 0 82.5 5.5t62.5 15.5q5 4 57 93q9 17 22 17q17 0 17 -23v-1q0 -4 -30 -142q-2 -9 -7 -13.5t-10 -5.5t-15 -1h-278q-88 0 -168 -12t-94 -12q-157 0 -270 111t-113 266q0 151 108.5 259t259.5 108q22 0 44.5 -2t35.5 -4.5 t34 -7t29 -5.5q44 -8 102 -10h305q15 0 20 -16l28 -126v-3q0 -21 -24 -21q-5 0 -9 1t-6.5 4t-3.5 5t-2.5 5.5t-1.5 4.5l-43 73q-8 13 -13 16.5t-17 3.5h-194q-14 0 -22.5 -7t-8.5 -17v-165q0 -22 15 -22h158q11 0 18 1.5t13.5 9t6.5 22.5v31q0 11 8 17t18 6q29 0 29 -30 v-184q0 -29 -27 -29q-28 0 -28 22v54q0 22 -26 22h-112q-49 0 -61.5 -6.5t-12.5 -33.5v-232zM371 667h-1q-103 0 -180.5 -72.5t-77.5 -210.5q0 -66 18.5 -128t53 -112t90 -80t123.5 -30q76 0 136 37q11 6 13 10.5t2 22.5v497q-74 66 -177 66z" />
<glyph unicode="&#x153;" horiz-adv-x="763" d="M564 431q49 0 95.5 -27.5t75.5 -68.5q9 -11 9 -22v-1q0 -9 -5.5 -16t-16 -12l-18.5 -8.5t-23 -8t-19 -5.5q-204 -70 -208 -73q-4 -2 -4 -6q0 -9 6 -28.5t20 -47.5t46 -48.5t76 -20.5q68 0 119 49q11 14 23 14q16 0 16 -15q0 -8 -7 -16q-31 -41 -78 -65t-99 -24 q-54 0 -96 25t-66 66q-28 -43 -75.5 -67t-101.5 -24q-94 0 -153 64.5t-59 158.5q0 101 64 164.5t152 63.5q52 0 98 -25t75 -70q23 41 63 67.5t91 26.5zM647 310q0 13 -34 39.5t-71 26.5q-44 0 -70 -38.5t-26 -104.5q0 -7 5 -7q1 0 93 35.5t94 36.5q9 4 9 12zM236 30 q62 0 102 50.5t40 119.5q0 78 -44.5 131.5t-103.5 53.5q-49 0 -90 -43t-41 -133q0 -79 38 -129t99 -50z" />
<glyph unicode="&#x178;" horiz-adv-x="667" d="M367 775q0 19 14.5 33t33.5 14q20 0 34 -13.5t14 -32.5q0 -20 -14 -34t-34 -14t-34 13.5t-14 33.5zM232 775q0 19 14.5 33t33.5 14q20 0 34 -13.5t14 -32.5q0 -20 -14 -34t-34 -14t-34 13.5t-14 33.5zM490 21v-8q0 -19 -16 -19l-20 2q-20 2 -54 3t-67 1q-22 0 -44 -0.5 t-38.5 -1.5t-29.5 -2t-21 -1.5t-9 -0.5q-25 0 -25 28q0 16 9 20t40 5q18 0 29 1h4t4.5 0.5t4 0.5t3.5 0.5t3.5 1.5t3.5 2l2.5 2.5t2 3.5t1 5t0.5 6v207q0 6 -0.5 11t-1 8t-3.5 8.5t-4 7t-5.5 9.5t-6.5 11l-184 295q-10 12 -29 14t-24 12q-4 6 -4 14q0 22 25 22q3 0 17 -0.5 t39 -1.5t54 -1t53.5 1t38.5 1.5t17 0.5q18 0 18 -20q0 -5 -0.5 -9t-2 -6.5t-3 -4.5t-5 -3.5t-6.5 -2l-9 -1.5t-10.5 -1t-13 -0.5t-15.5 -1.5q-26 -3 -26 -23v-2q0 -8 68 -125l74 -128q8 -14 14 -14q2 0 8 6l56 77q80 109 99.5 139.5t19.5 47.5q0 16 -14.5 21.5t-31.5 4 t-31.5 4t-14.5 22.5q0 20 21 20q3 0 14.5 -0.5t31.5 -1.5t43 -1h3q23 0 43.5 1l31.5 1.5t14 0.5q14 0 21 -6.5t7 -13.5q0 -9 -7.5 -15.5t-21 -17t-23.5 -22.5l-145 -187l-34 -45.5l-26 -35l-18 -24t-13 -17.5l-7.5 -11.5t-4 -10t-1 -8t-0.5 -10.5v-195q0 -15 10.5 -18 t59.5 -5q25 -1 40 -2q22 -1 22 -24z" />
<glyph unicode="&#x2c6;" horiz-adv-x="215" d="M31 479q-15 0 -15 15q0 6 24.5 77.5t37.5 99.5q12 29 29 29q16 0 29 -27.5t41 -111.5l19 -55q3 -9 3 -11q0 -8 -5 -12t-10 -4q-12 0 -26 23l-17 30q-18 32 -23 38.5t-10 6.5q-6 0 -11.5 -6.5t-22.5 -37.5q-11 -20 -19 -33q-13 -21 -24 -21z" />
<glyph unicode="&#x2dc;" horiz-adv-x="336" d="M223 622q20 0 37 11.5t27 23t14 11.5t11.5 -4t7.5 -9q0 -6 -19.5 -29t-36.5 -36q-28 -22 -58 -22q-27 0 -57.5 22.5t-49.5 22.5t-35 -13t-24.5 -26t-10.5 -13q-3 0 -8 5.5t-5 9.5q0 3 17.5 29.5t27.5 36.5q23 23 50 23q23 0 56 -21.5t56 -21.5z" />
<glyph unicode="&#x2000;" horiz-adv-x="449" />
<glyph unicode="&#x2001;" horiz-adv-x="899" />
<glyph unicode="&#x2002;" horiz-adv-x="449" />
<glyph unicode="&#x2003;" horiz-adv-x="899" />
<glyph unicode="&#x2004;" horiz-adv-x="299" />
<glyph unicode="&#x2005;" horiz-adv-x="224" />
<glyph unicode="&#x2006;" horiz-adv-x="149" />
<glyph unicode="&#x2007;" horiz-adv-x="149" />
<glyph unicode="&#x2008;" horiz-adv-x="112" />
<glyph unicode="&#x2009;" horiz-adv-x="179" />
<glyph unicode="&#x200a;" horiz-adv-x="49" />
<glyph unicode="&#x2010;" d="M199 335q16 0 16 -39q0 -14 -18 -28l-44 -31l-34.5 -25l-26.5 -19l-20.5 -14.5l-14.5 -10.5l-10.5 -7.5t-7 -4t-5.5 -2t-4 -0.5q-18 0 -18 26v14q0 10 3.5 14.5t15.5 13.5l97 68q64 45 71 45z" />
<glyph unicode="&#x2011;" d="M199 335q16 0 16 -39q0 -14 -18 -28l-44 -31l-34.5 -25l-26.5 -19l-20.5 -14.5l-14.5 -10.5l-10.5 -7.5t-7 -4t-5.5 -2t-4 -0.5q-18 0 -18 26v14q0 10 3.5 14.5t15.5 13.5l97 68q64 45 71 45z" />
<glyph unicode="&#x2013;" horiz-adv-x="527" d="M27 250v4q0 25 14 25h446q14 0 14 -25v-2q0 -28 -14 -28h-446q-14 0 -14 26z" />
<glyph unicode="&#x2014;" horiz-adv-x="1068" d="M27 250v4q0 25 14 25h987q14 0 14 -25v-2q0 -16 -3 -22t-11 -6h-987q-14 0 -14 26z" />
<glyph unicode="&#x2018;" d="M125 464q-32 0 -59 27.5t-27 84.5q0 37 11.5 64t23.5 37t21 10q19 -2 19 -20q0 -5 -18 -25.5t-18 -41.5q0 -15 10 -26.5t33 -11.5q3 0 9 0.5t9 0.5q27 0 38.5 -13.5t11.5 -29.5q0 -21 -17.5 -38.5t-46.5 -17.5z" />
<glyph unicode="&#x2019;" d="M102 684q32 0 59.5 -27.5t27.5 -84.5q0 -37 -11.5 -63.5t-24 -36.5t-21.5 -10q-8 0 -13.5 5.5t-5.5 13.5q0 5 18 26t18 42q0 14 -10 25.5t-33 11.5q-3 0 -9 -0.5t-9 -0.5q-27 0 -38 13.5t-11 29.5q0 21 17 38.5t46 17.5z" />
<glyph unicode="&#x201a;" d="M102 54q32 0 59 -27.5t27 -84.5q0 -36 -11.5 -63t-23.5 -37t-21 -10q-8 0 -13.5 5.5t-5.5 13.5q0 5 17.5 26t17.5 42q0 37 -43 37q-3 0 -8.5 -0.5t-8.5 -0.5q-27 0 -38.5 13.5t-11.5 29.5q0 21 17.5 38.5t46.5 17.5z" />
<glyph unicode="&#x201c;" horiz-adv-x="416" d="M315 464q-32 0 -59.5 27.5t-27.5 84.5q0 37 11.5 64t24 37t21.5 10q19 -2 19 -20q0 -5 -18 -25.5t-18 -41.5q0 -38 43 -38q3 0 9 0.5t9 0.5q27 0 38 -13.5t11 -29.5q0 -21 -17 -38.5t-46 -17.5zM125 464q-32 0 -59.5 27.5t-27.5 84.5q0 37 11.5 64t24 37t21.5 10 q19 -2 19 -20q0 -5 -18 -25.5t-18 -41.5q0 -38 43 -38q3 0 9 0.5t9 0.5q27 0 38 -13.5t11 -29.5q0 -21 -17 -38.5t-46 -17.5z" />
<glyph unicode="&#x201d;" horiz-adv-x="416" d="M102 684q32 0 59 -27.5t27 -84.5q0 -36 -11.5 -63t-23.5 -37t-21 -10h-1q-7 0 -12.5 6t-5.5 13q0 5 17.5 26t17.5 42q0 37 -43 37q-3 0 -8.5 -0.5t-8.5 -0.5q-27 0 -38.5 13.5t-11.5 29.5q0 21 17.5 38.5t46.5 17.5zM292 684q32 0 59 -27.5t27 -84.5q0 -36 -11.5 -63 t-23.5 -37t-21 -10h-1q-7 0 -12.5 6t-5.5 13q0 5 17.5 26t17.5 42q0 37 -43 37q-3 0 -8.5 -0.5t-8.5 -0.5q-27 0 -38.5 13.5t-11.5 29.5q0 21 17.5 38.5t46.5 17.5z" />
<glyph unicode="&#x201e;" horiz-adv-x="416" d="M102 54q32 0 59 -27.5t27 -84.5q0 -36 -11.5 -63t-23.5 -37t-21 -10q-8 0 -13.5 5.5t-5.5 13.5q0 5 17.5 26t17.5 42q0 37 -43 37q-3 0 -8.5 -0.5t-8.5 -0.5q-27 0 -38.5 13.5t-11.5 29.5q0 21 17.5 38.5t46.5 17.5zM292 54q32 0 59 -27.5t27 -84.5q0 -36 -11.5 -63 t-23.5 -37t-21 -10q-8 0 -13.5 5.5t-5.5 13.5q0 5 17.5 26t17.5 42q0 37 -43 37q-3 0 -8.5 -0.5t-8.5 -0.5q-27 0 -38.5 13.5t-11.5 29.5q0 21 17.5 38.5t46.5 17.5z" />
<glyph unicode="&#x2022;" horiz-adv-x="286" d="M143 188q-34 0 -57 24t-23 56q0 34 24 57t56 23q34 0 57 -24t23 -56q0 -34 -24 -57t-56 -23z" />
<glyph unicode="&#x202f;" horiz-adv-x="179" />
<glyph unicode="&#x2039;" horiz-adv-x="223" d="M185 334q6 0 11 -6.5t5 -12.5q0 -5 -60 -74l-36 -40q-4 -4 -4 -7q0 -5 95 -115q4 -4 4 -8q0 -6 -5 -12.5t-11 -6.5q-4 0 -19 12.5l-138 119.5q-5 5 -5 9q0 6 7 11q151 129 156 130z" />
<glyph unicode="&#x203a;" horiz-adv-x="223" d="M38 334q4 0 68 -55l88 -75q7 -5 7 -11v-1q0 -4 -53 -50l-99 -85q-5 -5 -10 -5t-10.5 5.5t-5.5 12.5q0 5 4 9q95 110 95 114t-4 8l-92 104q-4 4 -4 10t5.5 12.5t10.5 6.5z" />
<glyph unicode="&#x205f;" horiz-adv-x="224" />
<glyph unicode="&#x20ac;" horiz-adv-x="713" d="M451 594q-76 0 -149 -45t-109 -143h437l-25 -61h-425q0 -2 -0.5 -10t-0.5 -14q0 -7 0.5 -15t0.5 -10h404l-26 -62h-365q21 -63 67 -107.5t94 -62.5t95 -18q46 0 86.5 12t68 32.5t39 30.5t20.5 21l1 1l4 -1v-78q-98 -78 -215 -78q-45 0 -90 12.5t-91 39.5t-84 77.5 t-59 118.5h-105l25 62h70v49h-99l25 61h84q20 68 59.5 119t86 77.5t89.5 39t81 12.5q75 0 133.5 -23t114.5 -77l-28 -63q-7 11 -22 25.5t-41 33.5t-66 31.5t-85 12.5z" />
<glyph unicode="&#x2122;" horiz-adv-x="919" d="M830 421q0 -9 0.5 -13t6.5 -6.5t10 -3t19 -1.5q12 0 12 -14q0 -13 -12 -13q-2 0 -9.5 1t-21 1.5t-29.5 0.5h-2q-17 0 -31 -0.5t-21.5 -1.5t-9.5 -1q-12 0 -12 14q0 9 7 11t27 4q11 1 14.5 6t3.5 18v103q0 79 -2 79q-8 -5 -50 -84q-81 -148 -86 -153q-3 -3 -8 -3h-2 q-8 0 -17 19t-42 81.5t-83 138.5q0 1 -2 1q0 -1 -1 -39t-1 -62q0 -75 1.5 -89t8.5 -14q2 0 10 -0.5t11.5 -1.5t8 -2.5t6.5 -5t2 -8.5q0 -13 -10 -13q-2 0 -9.5 1t-20.5 1.5t-28 0.5q-16 0 -29.5 -0.5t-21 -1.5t-9.5 -1q-10 0 -10 13q0 4 1 6.5t3.5 4t4 3t6 2t7 1t8.5 1 t8 0.5q8 1 10 10q3 13 10 111q6 72 6 120q0 3 -5.5 12t-18 18.5t-26.5 9.5q-12 0 -12 10q0 13 10 13h70q10 0 14 -7l92 -153q60 -96 64 -96t4 5l128 237q1 2 2 4.5t2 4l2 3t3 2t5 0.5h72q10 0 10 -13q0 -12 -25 -15t-25 -16q0 -47 2 -234v-6zM278 370q-2 0 -10 1t-22.5 1.5 t-31.5 0.5h-2q-18 0 -33 -0.5t-23 -1.5t-10 -1q-12 0 -12 15q0 2 0.5 4t1 3t1.5 2l2 2t3.5 1.5t4 0.5t5 0.5t6 0.5t7 0.5t7.5 0.5q14 2 14 16v246q0 13 -10 13h-74q-9 0 -13 -4t-14 -25q-4 -10 -7 -15q0 -3 -3.5 -7t-10.5 -4q-12 0 -12 15l14 68q3 8 12 8h284q9 0 11 -6.5 t11 -63.5l1 -2q1 -2 1 -3q0 -6 -4 -9.5t-8 -3.5t-14 10q-3 6 -6.5 12t-5 9.5t-4 7t-3.5 5.5t-2.5 4t-2.5 2.5t-2.5 1t-3 0.5h-4.5h-72q-8 0 -8 -11v-254q0 -7 6 -9t34 -3h2q7 -1 8.5 -4t1.5 -12q0 -12 -10 -12z" />
</font>
</defs>
</svg>
